<?xml version="1.0" standalone="no"?>
<!DOCTYPE svg PUBLIC "-//W3C//DTD SVG 1.1//EN" "http://www.w3.org/Graphics/SVG/1.1/DTD/svg11.dtd" >
<svg>
<metadata>
Created by FontForge 20090914 at Mon Dec 22 11:53:17 2014
 By www-data
Copyright 1990-1998 Bitstream Inc.  All rights reserved.
</metadata>
<defs>
<font id="KaufmannBT-Bold" horiz-adv-x="1024" >
  <font-face 
    font-family="Kaufmann Bd BT"
    font-weight="400"
    font-style="italic"
    font-stretch="normal"
    units-per-em="2048"
    panose-1="3 8 8 2 4 2 7 8 3 5"
    ascent="1556"
    descent="-492"
    x-height="721.003"
    cap-height="1468"
    bbox="-342 -612.001 2141 1890"
    underline-thickness="123"
    underline-position="-238"
    slope="-15"
    unicode-range="U+0020-U+F002"
  />
<missing-glyph horiz-adv-x="1229" 
d="M102 -362v1806h1024v-1806h-1024zM217 -248h795v1577h-795v-1577z" />
    <glyph glyph-name=".notdef" horiz-adv-x="1229" 
d="M102 -362v1806h1024v-1806h-1024zM217 -248h795v1577h-795v-1577z" />
    <glyph glyph-name="space" unicode=" " horiz-adv-x="498" 
 />
    <glyph glyph-name="exclam" unicode="!" horiz-adv-x="602" 
d="M88 -10c-36 0 -64.166 10.1689 -84.499 30.502s-30.5 48.166 -30.5 83.499c0 51.333 14.5 93.666 43.5 126.999s65.167 50 108.5 50c35.333 0 63 -10.167 83 -30.5s30 -48.5 30 -84.5c0 -50.667 -14.333 -92.667 -43 -126s-64.334 -50 -107.001 -50zM119.001 373.002
l256.001 796c12.667 38.667 26.667 62 42 70s41.666 12 78.999 12c29.333 0 52.333 -4.16699 69 -12.5s25 -19.833 25 -34.5c0 -6.66699 -2.16699 -17.5 -6.5 -32.5s-10.5 -31.5 -18.5 -49.5l-319 -749h-127z" />
    <glyph glyph-name="quotedbl" unicode="&#x22;" horiz-adv-x="614" 
d="M524 1436v-555h-139v555h139zM229 1436v-555h-139v555h139z" />
    <glyph glyph-name="numbersign" unicode="#" horiz-adv-x="1575" 
d="M969 858h-260l-93 -264h261zM924 1458l-162 -454h256l164 454h164l-160 -454h301l-51 -146h-303l-93 -262h322l-51 -147h-322l-162 -453h-165l161 453h-258l-162 -453h-165l159 453h-309l53 147h310l92 262h-330l51 146h332l162 454h166z" />
    <glyph glyph-name="dollar" unicode="$" horiz-adv-x="995" 
d="M317 72l-97.999 -255.998l-115 34l95 246c-57.333 19.333 -101.833 50.666 -133.5 93.999s-47.5 94 -47.5 152c0 37.333 7.66699 66.5 23 87.5s35.666 31.5 60.999 31.5h7l30 -4c32.667 -2.66699 52.334 -30 59.001 -82l1 -2c8 -48.667 24.833 -84.167 50.5 -106.5
s62.5 -33.5 110.5 -33.5c48.667 0 87.167 11.833 115.5 35.5s42.5 55.834 42.5 96.501c0 45.333 -33 106 -99 182l-14 17c-48.667 56.667 -81.5 104 -98.5 142s-25.5 78.333 -25.5 121c0 76 29.333 139.333 88 190s135 77.667 229 81l68 176l112 -37l-61 -156
c56 -16.667 101 -46.834 135 -90.501s51 -93.167 51 -148.5c0 -16 -5.5 -29.667 -16.5 -41s-25.5 -18.333 -43.5 -21l-38 -4h-10c-20 0 -35.833 5.5 -47.5 16.5s-21.167 29.5 -28.5 55.5c-9.33301 30.667 -23.5 53 -42.5 67s-43.833 21 -74.5 21
c-36 0 -64.833 -9.16699 -86.5 -27.5s-32.5 -42.5 -32.5 -72.5c0 -36 25.667 -81.667 77 -137l30 -33c44.667 -52.667 78 -102.834 100 -150.501s33 -94.5 33 -140.5c0 -90 -33.5 -163.333 -100.5 -220s-155.167 -85 -264.5 -85c-4.66699 0 -11.334 0.333008 -20.001 1
s-15.667 1 -21 1z" />
    <glyph glyph-name="percent" unicode="%" horiz-adv-x="1546" 
d="M977 238c0 -34.667 7.83301 -62.166 23.5 -82.499s36.5 -30.5 62.5 -30.5c57.333 0 110.833 35.667 160.5 107s74.5 149.666 74.5 234.999c0 35.333 -7.66699 63.333 -23 84s-36.333 31 -63 31c-57.333 0 -110.833 -36 -160.5 -108s-74.5 -150.667 -74.5 -236z
M1047 0.000976562c-62 0 -112 22.833 -150 68.5s-57 106.167 -57 181.5c0 119.333 39.5 225.333 118.5 318s170.5 139 274.5 139c62.667 0 113.167 -22.667 151.5 -68s57.5 -106 57.5 -182c0 -120 -39.833 -226.167 -119.5 -318.5s-171.5 -138.5 -275.5 -138.5zM524 891.001
c-11.333 3.33301 -19.999 9.66699 -25.999 19s-9 21.333 -9 36c0 5.33301 1.5 10.333 4.5 15s7.83301 10 14.5 16c-10 14 -20.833 24.333 -32.5 31s-24.834 10 -39.501 10c-57.333 0 -110.833 -35.667 -160.5 -107s-74.5 -149.666 -74.5 -234.999
c0 -34.667 8 -62.5 24 -83.5s37.333 -31.5 64 -31.5c54 0 103.833 31.167 149.5 93.5s74.167 141.166 85.5 236.499zM1028 1020c-62.667 -40.667 -123.998 -72.166 -183.998 -94.499s-120 -36.5 -180 -42.5c-11.333 -130 -54.333 -237 -129 -321s-163 -126 -265 -126
c-62 0 -112.333 22.833 -151 68.5s-58 106.167 -58 181.5c0 120 39.5 226.167 118.5 318.5s170.833 138.5 275.5 138.5c48 0 89.167 -13.833 123.5 -41.5s58.5 -66.167 72.5 -115.5c71.333 2.66699 145.166 22.167 221.499 58.5s159.5 91.5 249.5 165.5l119 -127l-114 -141
c-289.333 -358.667 -495.666 -635.667 -618.999 -831c-30 -47.333 -64 -104.333 -102 -171c-44 -76 -74.333 -114 -91 -114c-4.66699 0 -9.83398 1.83301 -15.501 5.5s-10.5 8.5 -14.5 14.5l-58 84c62 123.333 159.167 275.166 291.5 455.499s302.166 391.833 509.499 634.5
z" />
    <glyph glyph-name="ampersand" unicode="&#x26;" horiz-adv-x="1147" 
d="M653 145c-64 -52.667 -126.998 -91.9932 -188.998 -117.993s-123.667 -39 -185 -39c-76.667 0 -139 20.667 -187 62s-72 95 -72 161c0 50 16.667 97.667 50 143s107.666 112.333 222.999 201c-22 33.333 -38.5 66.666 -49.5 99.999s-16.5 67.666 -16.5 102.999
c0 112 51.167 207.833 153.5 287.5s226.833 119.5 373.5 119.5c80 0 143.333 -14.333 190 -43s70 -67.334 70 -116.001c0 -52.667 -45.5 -114.834 -136.5 -186.501s-156.833 -131.834 -197.5 -180.501l-150 84c51.333 68 110.666 127.833 177.999 179.5s101 81.167 101 88.5
c0 5.33301 -5 9.5 -15 12.5s-26.333 4.5 -49 4.5c-75.333 0 -150.666 -29.667 -225.999 -89s-113 -115.666 -113 -168.999c0 -28.667 13.167 -64.834 39.5 -108.501s39.5 -76.5 39.5 -98.5c0 -20 -4.83301 -38.167 -14.5 -54.5s-32.167 -39.166 -67.5 -68.499l-25 -21
c-103.333 -86 -155 -148 -155 -186c0 -16.667 7.83301 -30 23.5 -40s36.5 -15 62.5 -15c34 0 73 10.667 117 32s93.667 54.333 149 99l-67 127l139 88l51 -88c14 15.333 27.667 33 41 53s27 42.667 41 68l174 -11c-18 -42 -41.333 -84.333 -70 -127
s-63.334 -86.334 -104.001 -131.001c24.667 -40.667 54.5 -83.834 89.5 -129.501s74.167 -91.834 117.5 -138.501h-225c-20 24 -39.167 48.167 -57.5 72.5s-35.5 48.5 -51.5 72.5z" />
    <glyph glyph-name="quotesingle" unicode="'" horiz-adv-x="317" 
d="M229 1436v-555h-139v555h139z" />
    <glyph glyph-name="parenleft" unicode="(" horiz-adv-x="758" 
d="M104 -551c-10.667 68 -18.668 130.833 -24.001 188.5s-8 112.167 -8 163.5c0 288 61.833 580.167 185.5 876.5s296.5 563.5 518.5 801.5h185c-229.333 -258.667 -406.166 -535.5 -530.499 -830.5s-186.5 -583.5 -186.5 -865.5c0 -54 2.5 -109 7.5 -165
s12.5 -112.333 22.5 -169h-170z" />
    <glyph glyph-name="parenright" unicode=")" horiz-adv-x="758" 
d="M549 1479c10 -62.667 17.667 -123.331 23 -181.998s8 -115.667 8 -171c0 -288.667 -61.833 -581.167 -185.5 -877.5s-296.167 -562.833 -517.5 -799.5h-186c230 259.333 407.333 536.833 532 832.5s187 584.167 187 865.5c0 53.333 -2.66699 107.666 -8 162.999
s-13 111.666 -23 168.999h170z" />
    <glyph glyph-name="asterisk" unicode="*" horiz-adv-x="778" 
d="M498 1059l-140 -254l-141 104l203 211l-285 54l53 163l263 -127l-33 291h160l-31 -291l260 127l55 -163l-284 -54l200 -211l-141 -104z" />
    <glyph glyph-name="plus" unicode="+" horiz-adv-x="1706" 
d="M924 1221v-541h528v-139h-528v-541h-142v541h-528v139h528v541h142z" />
    <glyph glyph-name="comma" unicode="," horiz-adv-x="498" 
d="M-80 -283c-8 0 -14.333 1.33008 -19 3.99707s-7 6.33398 -7 11.001c0 2 0.5 5.16699 1.5 9.5s3.16699 11.5 6.5 21.5l168 442c6 17.333 16.333 30.833 31 40.5s32.334 14.5 53.001 14.5h133c11.333 0 20.666 -3.16699 27.999 -9.5s11 -14.166 11 -23.499
c0 -2.66699 -0.666992 -5.66699 -2 -9s-3 -6.66602 -5 -9.99902l-301 -448c-9.33301 -14.667 -18.833 -25.5 -28.5 -32.5s-20.5 -10.5 -32.5 -10.5h-37z" />
    <glyph glyph-name="hyphen" unicode="-" horiz-adv-x="778" 
d="M92 287l68 172h454l-67 -172h-455z" />
    <glyph glyph-name="period" unicode="." horiz-adv-x="498" 
d="M164 -10c-35.333 0 -63 9.99902 -83 29.999s-30 48 -30 84c0 50.667 14.333 92.834 43 126.501s64.334 50.5 107.001 50.5c34.667 0 61.667 -10 81 -30s29 -48.333 29 -85c0 -51.333 -13.833 -93.5 -41.5 -126.5s-62.834 -49.5 -105.501 -49.5z" />
    <glyph glyph-name="slash" unicode="/" horiz-adv-x="578" 
d="M-143 -190l688 1626h145l-690 -1626h-143z" />
    <glyph glyph-name="zero" unicode="0" horiz-adv-x="995" 
d="M330 -14c-96.667 0 -175.834 33.001 -237.501 99.001s-92.5 151 -92.5 255c0 81.333 14.667 169.5 44 264.5s69.333 182.833 120 263.5c60 97.333 131.667 173.333 215 228s168 82 254 82c98.667 0 176.5 -31.5 233.5 -94.5s85.5 -149.167 85.5 -258.5
c0 -78 -13 -161.333 -39 -250s-62 -172.334 -108 -251.001c-62.667 -105.333 -136.667 -188 -222 -248s-169.666 -90 -252.999 -90zM203 350.001c0 -58 12.334 -102.5 37.001 -133.5s60 -46.5 106 -46.5s94.5 21.167 145.5 63.5s96.833 100.5 137.5 174.5
c38 68.667 68.667 143 92 223s35 147.667 35 203c0 49.333 -12 88.166 -36 116.499s-56.333 42.5 -97 42.5c-42 0 -85.833 -17 -131.5 -51s-90.834 -83 -135.501 -147c-48 -69.333 -85.5 -143.666 -112.5 -222.999s-40.5 -153.333 -40.5 -222z" />
    <glyph glyph-name="one" unicode="1" horiz-adv-x="758" 
d="M373 727c-38 -30.667 -75.5 -54.9961 -112.5 -72.9961s-66.5 -27 -88.5 -27c-10 0 -17 3.33301 -21 10s-6 21.667 -6 45v39c0 41.333 24.333 73.666 73 96.999l3 1c61.333 29.333 117.333 62.166 168 98.499s90.334 71.833 119.001 106.5
c16.667 53.333 37.5 92.666 62.5 117.999s55.5 38 91.5 38c28 0 50 -8.5 66 -25.5s24 -40.167 24 -69.5c0 -26.667 -8 -53.667 -24 -81s-41 -57 -75 -89c-62.667 -150 -124.834 -290.5 -186.501 -421.5s-124.167 -255.167 -187.5 -372.5
c-26.667 -49.333 -48.167 -81.833 -64.5 -97.5s-35.833 -23.5 -58.5 -23.5h-17l-151 12c78 119.333 148.833 238.166 212.5 356.499s121.167 237.833 172.5 358.5z" />
    <glyph glyph-name="two" unicode="2" horiz-adv-x="995" 
d="M244 203c-36.667 16.667 -66.666 28.668 -89.999 36.001s-44 11 -62 11c-24 0 -42.667 -5.66699 -56 -17s-20 -27 -20 -47c0 -18.667 6.16699 -33.834 18.5 -45.501s28.833 -17.5 49.5 -17.5c21.333 0 44.166 6 68.499 18s54.833 32.667 91.5 62zM352.001 106.001
c-57.333 -38.667 -109.499 -67 -156.499 -85s-92.5 -27 -136.5 -27c-59.333 0 -106.833 17 -142.5 51s-53.5 79 -53.5 135c0 58.667 21.667 106.5 65 143.5s98.666 55.5 165.999 55.5c35.333 0 73 -6.16699 113 -18.5s84.333 -31.5 133 -57.5
c124.667 128 222.334 244.833 293.001 350.5s106 185.5 106 239.5c0 32.667 -9.33301 58.5 -28 77.5s-44 28.5 -76 28.5c-35.333 0 -71.5 -10.667 -108.5 -32s-76.5 -55 -118.5 -101c-8.66699 -8.66699 -19.667 -21.334 -33 -38.001c-26.667 -34.667 -50 -52 -70 -52
c-7.33301 0 -14.166 1.33301 -20.499 4s-13.833 7 -22.5 13l-24 16h-1c-24 18 -36 36.333 -36 55c0 15.333 10.167 37.833 30.5 67.5s47.5 60.5 81.5 92.5c56.667 52.667 112.667 91.167 168 115.5s114 36.5 176 36.5c86.667 0 156.167 -22.667 208.5 -68
s78.5 -104.666 78.5 -177.999c0 -87.333 -40 -193 -120 -317s-191.667 -252 -335 -384c48 -17.333 90.667 -30.166 128 -38.499s70.666 -12.5 99.999 -12.5c31.333 0 64 2.66699 98 8s72.333 13.666 115 24.999l-37 -145c-8.66699 -32 -23.167 -53.667 -43.5 -65
s-53.5 -17 -99.5 -17c-58.667 0 -121.834 10.333 -189.501 31s-137.167 51 -208.5 91z" />
    <glyph glyph-name="three" unicode="3" horiz-adv-x="995" 
d="M100 389c21.333 0 37.001 -5.00195 47.001 -15.002s15.667 -27 17 -51c3.33301 -60 17 -101.833 41 -125.5s63.667 -35.5 119 -35.5c74.667 0 137.667 24.333 189 73s77 108.334 77 179.001c0 20 -3.16699 39.167 -9.5 57.5s-16.833 37.833 -31.5 58.5
c-30.667 -9.33301 -57.167 -16 -79.5 -20s-42.833 -6 -61.5 -6c-38.667 0 -69.5 9.66699 -92.5 29s-34.5 45 -34.5 77c0 33.333 14.333 60.5 43 81.5s66 31.5 112 31.5c14 0 29.833 -1.16699 47.5 -3.5s40.167 -5.83301 67.5 -10.5c52.667 34.667 92.5 69.667 119.5 105
s40.5 70 40.5 104c0 26 -7.16699 46 -21.5 60s-34.5 21 -60.5 21c-53.333 0 -111.666 -26.5 -174.999 -79.5s-100 -79.5 -110 -79.5c-6 0 -12 1.33301 -18 4s-15 8 -27 16l-21 15c-6.66699 4.66699 -12.334 11.5 -17.001 20.5s-7 17.833 -7 26.5
c0 12.667 8.66699 30.667 26 54s40 47 68 71c51.333 42.667 103.5 75.167 156.5 97.5s105.5 33.5 157.5 33.5c75.333 0 138.166 -22.833 188.499 -68.5s75.5 -101.5 75.5 -167.5c0 -61.333 -19.167 -118.666 -57.5 -171.999s-95.833 -102.333 -172.5 -147
c31.333 -26.667 54.5 -56.834 69.5 -90.501s22.5 -71.167 22.5 -112.5c0 -117.333 -46 -219 -138 -305s-203.667 -129 -335 -129c-109.333 0 -193.333 24.333 -252 73s-88 118.334 -88 209.001c0 45.333 6.33301 76.833 19 94.5s33.667 26.5 63 26.5h43z" />
    <glyph glyph-name="four" unicode="4" horiz-adv-x="995" 
d="M428 301c-43.333 6.66699 -84.8291 11.8311 -124.496 15.498s-78.834 5.83398 -117.501 6.50098c-25.333 -38.667 -52 -68 -80 -88s-56.667 -30 -86 -30c-28 0 -50 8 -66 24s-24 38 -24 66c0 32 11.667 60.667 35 86s67.666 55.333 132.999 90
c75.333 96.667 143.5 205 204.5 325s111.833 246.667 152.5 380h110c30.667 0 50.667 -2.5 60 -7.5s14 -14.167 14 -27.5c0 -52 -30.667 -139 -92 -261s-143 -255.667 -245 -401c41.333 -4.66699 102.666 -11 183.999 -19l18 -1l80 153c82 160 142.667 263.833 182 311.5
s78.333 71.5 117 71.5c18 0 31.667 -4.16699 41 -12.5s14 -20.5 14 -36.5c0 -20 -22.667 -71.667 -68 -155l-82 -156l-97 -195l47 -3c10 -0.666992 18 -1 24 -1c31.333 0 60.666 1.33301 87.999 4s55.333 7 84 13l-84 -187c-38 0 -76.333 1 -115 3s-76.667 5.33301 -114 10
l-52 -125c-8 -19.333 -18 -45.666 -30 -78.999c-31.333 -89.333 -78 -134 -140 -134h-32c-21.333 0 -37.666 2.83301 -48.999 8.5s-17 14.167 -17 25.5c0 14.667 5.66699 38 17 70s29.666 75.667 54.999 131z" />
    <glyph glyph-name="five" unicode="5" horiz-adv-x="995" 
d="M72 279l37.0049 7.99707c2 0.666992 4.66699 1.16699 8 1.5s9.33301 0.5 18 0.5c22 0 36.667 -11.333 44 -34l3 -9c9.33301 -30 24 -51.833 44 -65.5s47 -20.5 81 -20.5c84 0 162.333 37.833 235 113.5s109 157.167 109 244.5c0 46 -11 80 -33 102s-56.667 33 -104 33
c-23.333 0 -46.833 -2.5 -70.5 -7.5s-50.834 -13.167 -81.501 -24.5c-28 -46 -55.333 -79.5 -82 -100.5s-54.334 -31.5 -83.001 -31.5c-29.333 0 -52.833 9 -70.5 27s-26.5 42 -26.5 72c0 28.667 9.5 55.834 28.5 81.501s51.833 55.167 98.5 88.5l127 305
c16 38 33.167 63.5 51.5 76.5s49.166 19.5 92.499 19.5h116h205c10 0 25.667 0.666992 47 2s38.666 2 51.999 2c22.667 0 37.834 -2.66699 45.501 -8s11.5 -15 11.5 -29c0 -4.66699 -1 -13 -3 -25c-0.666992 -4.66699 -1 -7.66699 -1 -9l-10 -58
c-4.66699 -27.333 -14.667 -45 -30 -53s-56 -12 -122 -12h-227c-31.333 0 -52.333 -3.16699 -63 -9.5s-20.667 -19.5 -30 -39.5l-38 -92c20.667 3.33301 39.5 5.83301 56.5 7.5s32.167 2.5 45.5 2.5c91.333 0 163.666 -27.667 216.999 -83s80 -129.666 80 -222.999
c0 -143.333 -56.333 -270.166 -169 -380.499s-243.334 -165.5 -392.001 -165.5c-90 0 -160.667 19.5 -212 58.5s-77 91.833 -77 158.5c-0 40.667 23.333 65.667 70 75z" />
    <glyph glyph-name="six" unicode="6" horiz-adv-x="995" 
d="M868 1225c4.66699 -6 8.33203 -12.833 10.999 -20.5s4 -15.167 4 -22.5c0 -15.333 -37.667 -49.833 -113 -103.5s-143.666 -108.167 -204.999 -163.5c-107.333 -97.333 -192.5 -199.666 -255.5 -306.999s-94.5 -202 -94.5 -284c0 -48 13 -85 39 -111s63 -39 111 -39
c76.667 0 149.667 40.167 219 120.5s104 157.5 104 231.5c0 21.333 -4.83301 38.333 -14.5 51s-22.5 19 -38.5 19c-23.333 0 -50.833 -8.16699 -82.5 -24.5s-53.5 -24.5 -65.5 -24.5c-21.333 0 -39.166 7.16699 -53.499 21.5s-21.5 32.5 -21.5 54.5
c0 38.667 24.833 74.167 74.5 106.5s106.5 48.5 170.5 48.5c67.333 0 121.5 -22 162.5 -66s61.5 -102.333 61.5 -175c0 -65.333 -14.333 -131.833 -43 -199.5s-68.334 -128.167 -119.001 -181.5c-51.333 -56 -109 -98.333 -173 -127s-131.333 -43 -202 -43
c-100.667 0 -179.834 29.667 -237.501 89s-86.5 140.666 -86.5 243.999c0 102 30.833 211 92.5 327s149.167 229 262.5 339c87.333 85.333 171.333 155.833 252 211.5s135.334 83.5 164.001 83.5c20 0 38 -9.33301 54 -28l1 -1z" />
    <glyph glyph-name="seven" unicode="7" horiz-adv-x="995" 
d="M741 973c-14.667 -1.33301 -36.334 -2.00293 -65.001 -2.00293c-16 0 -42.833 1 -80.5 3s-67.5 3 -89.5 3c-25.333 0 -49.666 -1.16699 -72.999 -3.5s-46 -5.83301 -68 -10.5c-20 -68.667 -46.333 -122.167 -79 -160.5s-68 -57.5 -106 -57.5
c-24.667 0 -45.167 8 -61.5 24s-24.5 36 -24.5 60c0 31.333 10.5 65.5 31.5 102.5s52.833 77.5 95.5 121.5c14 69.333 32.167 112.833 54.5 130.5s60.833 26.5 115.5 26.5c14 0 23.667 -2.5 29 -7.5s8 -13.833 8 -26.5c0 -6 -0.166992 -10.833 -0.5 -14.5
s-0.833008 -7.16699 -1.5 -10.5c17.333 0.666992 34.833 1.16699 52.5 1.5s39.167 0.5 64.5 0.5c28 0 75.667 -2 143 -6s121.333 -6 162 -6c28 0 58.5 1 91.5 3s51.5 3 55.5 3c14.667 0 24.834 -2.33301 30.501 -7s8.5 -12.667 8.5 -24c0 -6.66699 -16.667 -33.667 -50 -81
c-137.333 -194.667 -255.666 -399.667 -354.999 -615l-91 -200c-50 -110.667 -81.333 -175.667 -94 -195c-16 -27.333 -34.333 -46.166 -55 -56.499s-49.334 -15.5 -86.001 -15.5h-45c-16 0 -29.5 4.83301 -40.5 14.5s-16.5 21.834 -16.5 36.501
c0 14 24.333 61.167 73 141.5s89.667 152.5 123 216.5c12 22.667 30.333 59.334 55 110.001c101.333 207.333 197.666 374.333 288.999 501z" />
    <glyph glyph-name="eight" unicode="8" horiz-adv-x="995" 
d="M465 467c-102 -59.333 -174.331 -106.5 -216.998 -141.5s-64 -64.167 -64 -87.5c0 -20 13.167 -36.333 39.5 -49s61.166 -19 104.499 -19c65.333 0 118.5 14.333 159.5 43s61.5 65.667 61.5 111c0 18 -6.83301 38.667 -20.5 62s-34.834 50.333 -63.501 81zM344.002 598
c-44 43.333 -76.8311 85.665 -98.498 126.998s-32.5 83 -32.5 125c0 102 54.667 182.833 164 242.5s258.666 89.5 447.999 89.5c42.667 0 70.167 -5.33301 82.5 -16s20.5 -32.334 24.5 -65.001l2 -20v-10c0 -26.667 -34.667 -43.667 -104 -51
c-16.667 -1.33301 -30.667 -2.66602 -42 -3.99902c-138.667 -14 -236 -33.167 -292 -57.5s-84 -59.166 -84 -104.499c0 -18.667 8.5 -40.334 25.5 -65.001s43.833 -53.667 80.5 -87l196 111l240 145v-137c0 -28 -5.5 -50 -16.5 -66s-32.833 -33.667 -65.5 -53l-229 -135
c37.333 -39.333 64.5 -77.666 81.5 -114.999s25.5 -77.333 25.5 -120c0 -104.667 -39.333 -188.5 -118 -251.5s-184.334 -94.5 -317.001 -94.5c-98 0 -176.333 22.833 -235 68.5s-88 106.167 -88 181.5c0 61.333 22.833 116.833 68.5 166.5s140.167 114.834 283.5 195.501z
" />
    <glyph glyph-name="nine" unicode="9" horiz-adv-x="995" 
d="M45 -129c-7.33301 9.33301 -12.8379 17.999 -16.5049 25.999s-5.5 15.667 -5.5 23c0 15.333 33.167 47.833 99.5 97.5s121.833 95.167 166.5 136.5c146.667 132.667 259.334 258.834 338.001 378.501s118 223.5 118 311.5c0 46 -13.5 82.667 -40.5 110
s-63.167 41 -108.5 41c-75.333 0 -148.166 -39.167 -218.499 -117.5s-105.5 -156.5 -105.5 -234.5c0 -20 5.5 -36.333 16.5 -49s25.5 -19 43.5 -19c21.333 0 48.333 8.66699 81 26s57.334 26 74.001 26s31.5 -7.66699 44.5 -23s19.5 -33 19.5 -53
c0 -34 -26.167 -69.833 -78.5 -107.5s-108.833 -56.5 -169.5 -56.5c-68.667 0 -123.334 22.333 -164.001 67s-61 104.334 -61 179.001c0 64.667 14.833 131 44.5 199s70.834 128.667 123.501 182c52 54 108.333 94.5 169 121.5s126.334 40.5 197.001 40.5
c102 0 183.5 -30.667 244.5 -92s91.5 -142.666 91.5 -243.999c0 -98.667 -39 -213.334 -117 -344.001s-187 -263.334 -327 -398.001c-90.667 -85.333 -171.667 -154.333 -243 -207s-118.666 -79 -141.999 -79c-8.66699 0 -16.5 1.16699 -23.5 3.5
s-12.167 5.83301 -15.5 10.5z" />
    <glyph glyph-name="colon" unicode=":" horiz-adv-x="592" 
d="M160 -10c-35.333 0 -63 9.99902 -83 29.999s-30 48 -30 84c0 50.667 14.333 92.834 43 126.501s64.334 50.5 107.001 50.5c34.667 0 61.667 -10 81 -30s29 -48.333 29 -85c0 -51.333 -13.833 -93.5 -41.5 -126.5s-62.834 -49.5 -105.501 -49.5zM322 445.999
c-36 0 -63.832 10.166 -83.499 30.499s-29.5 48.5 -29.5 84.5c0 50.667 14.333 92.667 43 126s64 50 106 50c35.333 0 62.666 -10 81.999 -30s29 -48 29 -84c0 -51.333 -14 -93.666 -42 -126.999s-63 -50 -105 -50z" />
    <glyph glyph-name="semicolon" unicode=";" horiz-adv-x="592" 
d="M-80 -283c-8 0 -14.333 1.33008 -19 3.99707s-7 6.33398 -7 11.001c0 2 0.5 5.16699 1.5 9.5s3.16699 11.5 6.5 21.5l168 442c6 17.333 16.333 30.833 31 40.5s32.334 14.5 53.001 14.5h133c11.333 0 20.666 -3.16699 27.999 -9.5s11 -14.166 11 -23.499
c0 -2.66699 -0.666992 -5.66699 -2 -9s-3 -6.66602 -5 -9.99902l-301 -448c-9.33301 -14.667 -18.833 -25.5 -28.5 -32.5s-20.5 -10.5 -32.5 -10.5h-37zM299 445.997c-35.333 0 -63.001 10.166 -83.001 30.499s-30 48.5 -30 84.5c0 50.667 14.333 92.667 43 126
s64.334 50 107.001 50c35.333 0 62.5 -10 81.5 -30s28.5 -48 28.5 -84c0 -51.333 -14 -93.666 -42 -126.999s-63 -50 -105 -50z" />
    <glyph glyph-name="less" unicode="&#x3c;" horiz-adv-x="1706" 
d="M1442 1006l-969 -396l969 -393v-154l-1178 484v129l1178 483v-153z" />
    <glyph glyph-name="equal" unicode="=" horiz-adv-x="1706" 
d="M1452 481v-139h-1198v139h1198zM1452 879v-140h-1198v140h1198z" />
    <glyph glyph-name="greater" unicode="&#x3e;" horiz-adv-x="1706" 
d="M1442 676v-129l-1178 -484v154l971 393l-971 396v153z" />
    <glyph glyph-name="question" unicode="?" horiz-adv-x="854" 
d="M213 -10c-35.333 0 -63 10.001 -83 30.001s-30 48 -30 84c0 51.333 14.5 93.666 43.5 126.999s65.167 50 108.5 50c35.333 0 63 -10.167 83 -30.5s30 -48.5 30 -84.5c0 -50 -14.667 -91.833 -44 -125.5s-65.333 -50.5 -108 -50.5zM217 383.001
c8.66699 65.333 29.832 127 63.499 185s78.834 110.333 135.501 157l57 46c109.333 86.667 164 159.334 164 218.001c0 32 -9.83301 57.833 -29.5 77.5s-45.5 29.5 -77.5 29.5c-38 0 -77.5 -18.167 -118.5 -54.5s-81.167 -88.5 -120.5 -156.5l-111 96
c44.667 86 99.667 152.167 165 198.5s136 69.5 212 69.5c81.333 0 147.333 -23.333 198 -70s76 -107.334 76 -182.001c0 -103.333 -86.667 -213.333 -260 -330l-65 -44c-47.333 -32.667 -84.5 -69.5 -111.5 -110.5s-43.833 -86.167 -50.5 -135.5z" />
    <glyph glyph-name="at" unicode="@" horiz-adv-x="2048" 
d="M1284 854l56.9971 114.996h132l-146 -576c-2.66699 -10.667 -4.66699 -21 -6 -31s-2 -19.333 -2 -28c0 -30.667 8.5 -54 25.5 -70s41.833 -24 74.5 -24c32 0 66.167 8.83301 102.5 26.5s71.833 42.834 106.5 75.501c53.333 50.667 95 112.834 125 186.501
s45 151.5 45 233.5c0 172.667 -63.5 312.667 -190.5 420s-293.5 161 -499.5 161c-88.667 0 -170.667 -9.33301 -246 -28s-145.666 -47.334 -210.999 -86.001c-127.333 -76 -226 -175.833 -296 -299.5s-105 -260.167 -105 -409.5c0 -118 20.5 -220.667 61.5 -308
s105.167 -164 192.5 -230c66.667 -51.333 145.5 -90.833 236.5 -118.5s186.833 -41.5 287.5 -41.5c112.667 0 222.167 16.333 328.5 49s203.833 79.667 292.5 141l55 -82c-98.667 -74 -203.5 -129.667 -314.5 -167s-227.5 -56 -349.5 -56
c-126.667 0 -242.667 15.667 -348 47s-198.666 78 -279.999 140c-102.667 78.667 -179.334 170 -230.001 274s-76 222 -76 354c0 110 17.333 214.333 52 313s85 188.334 151 269.001c97.333 118.667 214.5 208.667 351.5 270s288.833 92 455.5 92c108.667 0 212 -15 310 -45
s182.333 -72.333 253 -127c86.667 -66.667 152.5 -143.667 197.5 -231s67.5 -181.666 67.5 -282.999c0 -116.667 -21.167 -221.667 -63.5 -315s-103.833 -172 -184.5 -236c-45.333 -36 -95.166 -63.667 -149.499 -83s-109.833 -29 -166.5 -29
c-66 0 -115.833 13.167 -149.5 39.5s-50.5 65.5 -50.5 117.5v19c-36.667 -59.333 -79.667 -103.166 -129 -131.499s-106.666 -42.5 -171.999 -42.5c-102 0 -179.833 28.333 -233.5 85s-80.5 139 -80.5 247c0 156.667 46 288 138 394s205 159 339 159
c56.667 0 105.167 -12.5 145.5 -37.5s72.5 -62.5 96.5 -112.5zM1190 474.996l58.999 236c-11.333 58.667 -34.166 104 -68.499 136s-77.5 48 -129.5 48c-92 0 -169.333 -43.333 -232 -130s-94 -193 -94 -319c0 -70 16.167 -124 48.5 -162s78.166 -57 137.499 -57
c64.667 0 122.834 23 174.501 69s86.5 105.667 104.5 179z" />
    <glyph glyph-name="A" unicode="A" horiz-adv-x="1346" 
d="M508 614c88.667 -10 170 -31 244 -63s138.667 -73.667 194 -125c44 160 94.667 328.333 152 505s86 274 86 292c0 10 -1.33301 17.167 -4 21.5s-7 6.5 -13 6.5c-58 0 -152.167 -60.167 -282.5 -180.5s-255.833 -272.5 -376.5 -456.5zM-14 0
c36.667 84 73.1641 163.001 109.497 237.001s72.833 144.667 109.5 212l-94 -14.5c-32.667 -5 -66.667 -10.5 -102 -16.5l57 170c40 6.66699 78.833 12.334 116.5 17.001s75.167 8.33398 112.5 11.001c153.333 252.667 316 452.5 488 599.5s325.333 220.5 460 220.5
c52.667 0 91.834 -11 117.501 -33s38.5 -55.333 38.5 -100c0 -41.333 -39.5 -182.833 -118.5 -424.5s-141.833 -464.834 -188.5 -669.501c5.33301 -27.333 9 -47.333 11 -60s3 -23.334 3 -32.001c0 -38 -9.83301 -68.333 -29.5 -91s-46.167 -34 -79.5 -34
c-31.333 0 -57.166 12.167 -77.499 36.5s-30.5 56.5 -30.5 96.5c0 15.333 3.33301 43 10 83c0.666992 5.33301 1.33398 9.66602 2.00098 12.999c-65.333 75.333 -138.333 131.333 -219 168s-170.667 55 -270 55h-17l-111 -216.5l-106 -227.5h-192z" />
    <glyph glyph-name="B" unicode="B" horiz-adv-x="1233" 
d="M-92 -8l103 208.5l89 196.5l267 613c62.667 144 129.667 249.167 201 315.5s153 99.5 245 99.5c96 0 171.167 -30.333 225.5 -91s81.5 -145 81.5 -253c0 -123.333 -34.333 -224 -103 -302s-169.334 -130.667 -302.001 -158c109.333 -30 188.833 -67.5 238.5 -112.5
s74.5 -101.833 74.5 -170.5c0 -104 -46.167 -187.667 -138.5 -251s-215.5 -95 -369.5 -95c-40 0 -81.333 2.5 -124 7.5s-89.334 12.833 -140.001 23.5l59 167c4 0 10.333 -0.666992 19 -2c80 -12 136.667 -18 170 -18c98.667 0 177.167 14 235.5 42s87.5 65.333 87.5 112
c0 38.667 -36 71.667 -108 99l-29 11c-69.333 28 -114 53 -134 75s-30 50.333 -30 85c0 76 57.667 140.667 173 194c14.667 6.66699 25.334 11.667 32.001 15c64.667 31.333 112.334 70 143.001 116s46 102 46 168c0 50.667 -9.66699 89.667 -29 117s-46.666 41 -81.999 41
c-46.667 0 -92.834 -25.833 -138.501 -77.5s-89.5 -128.167 -131.5 -229.5l-273 -655l-1 -2c-48.667 -120 -96 -216.333 -142 -289h-215z" />
    <glyph glyph-name="C" unicode="C" horiz-adv-x="1147" 
d="M1008 332c-62 -110.667 -140.334 -196.002 -235.001 -256.002s-198.667 -90 -312 -90c-134 0 -241 38.5 -321 115.5s-120 179.167 -120 306.5c0 116 31.833 238.167 95.5 366.5s156.167 256.5 277.5 384.5c88 92.667 178.333 163 271 211s184.667 72 276 72
c92.667 0 166.334 -24.5 221.001 -73.5s82 -114.833 82 -197.5c0 -130.667 -61.167 -255.5 -183.5 -374.5s-279.5 -202.833 -471.5 -251.5l53 225c120 43.333 216.833 101.5 290.5 174.5s110.5 143.833 110.5 212.5c0 32.667 -10.167 58.334 -30.5 77.001
s-48.833 28 -85.5 28c-53.333 0 -112.666 -18.833 -177.999 -56.5s-133 -92.167 -203 -163.5c-97.333 -98 -176.333 -204.833 -237 -320.5s-91 -213.5 -91 -293.5c0 -75.333 22.667 -135.166 68 -179.499s106.666 -66.5 183.999 -66.5s147 19.167 209 57.5
s119.333 97.833 172 178.5z" />
    <glyph glyph-name="D" unicode="D" horiz-adv-x="1741" 
d="M1157 858l-167.999 -391c-24.667 -60 -52 -113 -82 -159s-62.667 -86 -98 -120c35.333 -3.33301 65.333 -5.83301 90 -7.5s46.667 -2.5 66 -2.5c128.667 0 226.334 22.833 293.001 68.5s100 112.167 100 199.5c0 38 -5.83301 77.167 -17.5 117.5s-28.5 80.5 -50.5 120.5
c-12.667 23.333 -28.834 48 -48.501 74s-47.834 59.333 -84.501 100zM1098 1171c10.667 16 22.498 31.665 35.498 46.998s29.167 32.666 48.5 51.999l149 -119c-22 -28 -39.167 -50.5 -51.5 -67.5s-23.166 -32.833 -32.499 -47.5c99.333 -94.667 175 -191.5 227 -290.5
s78 -194.5 78 -286.5c0 -152 -52.167 -268.833 -156.5 -350.5s-254.166 -122.5 -449.499 -122.5c-62.667 0 -125.167 3 -187.5 9s-124.166 15.333 -185.499 28c-64.667 -13.333 -118 -22.833 -160 -28.5s-78.667 -8.5 -110 -8.5c-85.333 0 -152 12.333 -200 37
s-72 58.667 -72 102c0 39.333 17.167 68.333 51.5 87s88.166 28 161.499 28c36 0 80.667 -3.16699 134 -9.5s118.333 -16.166 195 -29.499c50 44.667 94.5 96.167 133.5 154.5s84.167 146.833 135.5 265.5l166 378c-104 80 -196 143 -276 189s-136.333 69 -169 69
c-22.667 0 -39.5 -4 -50.5 -12s-16.5 -20.333 -16.5 -37c0 -43.333 24 -91.666 72 -144.999s120.667 -112.666 218 -177.999l-77 -150c-124 59.333 -223.667 134.666 -299 225.999s-113 180 -113 266c0 64.667 19.667 116 59 154s92.666 57 159.999 57
c74.667 0 161.334 -22.667 260.001 -68s206 -111.666 322 -198.999z" />
    <glyph glyph-name="E" unicode="E" horiz-adv-x="1204" 
d="M877 467l208.002 -0.000976562c-43.333 -134 -134.833 -248 -274.5 -342s-286.834 -141 -441.501 -141c-96 0 -171.667 22.667 -227 68s-83 107.333 -83 186c0 70.667 24.333 136.834 73 198.501s129 127.167 241 196.5c-24.667 30.667 -43.167 63.834 -55.5 99.501
s-18.5 73.5 -18.5 113.5c0 73.333 19 147 57 221s91.333 141 160 201c63.333 54.667 132.666 96.667 207.999 126s152 44 230 44c72 0 128.333 -14.333 169 -43s61 -68.334 61 -119.001c0 -54.667 -55.333 -148 -166 -280c-65.333 -78 -116.666 -141.667 -153.999 -191
l-141 115c38.667 53.333 88.334 113.833 149.001 181.5s91 111.5 91 131.5c0 9.33301 -5 16.833 -15 22.5s-23.667 8.5 -41 8.5c-28.667 0 -66 -11.833 -112 -35.5s-92 -54.834 -138 -93.501c-52.667 -46 -93 -96 -121 -150s-42 -108.667 -42 -164
c0 -54.667 17 -106 51 -154s51 -76.333 51 -85c0 -24 -40.333 -61.667 -121 -113l-49 -31c-62.667 -40.667 -105.334 -73.667 -128.001 -99s-34 -51 -34 -77c0 -27.333 11.833 -49.166 35.5 -65.499s56.167 -24.5 97.5 -24.5c84 0 170.167 26.833 258.5 80.5
s162.166 125.167 221.499 214.5z" />
    <glyph glyph-name="F" unicode="F" horiz-adv-x="1389" 
d="M457 -86c54.667 62.667 105.834 127.667 153.501 195s91.834 137.333 132.501 210h-165l81 168h170c110.667 218 191 385.167 241 501.5s75 194.5 75 234.5c0 16 -3.5 26.833 -10.5 32.5s-20.5 8.5 -40.5 8.5c-60.667 0 -141.667 -23.667 -243 -71
s-197.333 -108.333 -288 -183c-90.667 -75.333 -167.5 -154 -230.5 -236s-94.5 -140 -94.5 -174c0 -12 2.16699 -21.5 6.5 -28.5s10.166 -10.5 17.499 -10.5c41.333 0 98.666 35 171.999 105s173 185.333 299 346l74 -193
c-110.667 -150.667 -215.334 -264.834 -314.001 -342.501s-188.667 -116.5 -270 -116.5c-58 0 -104.5 17.5 -139.5 52.5s-52.5 81.833 -52.5 140.5c0 66.667 26.5 143.167 79.5 229.5s129.5 177.166 229.5 272.499c130 123.333 264.5 220.333 403.5 291
s263.167 106 372.5 106c81.333 0 142.333 -15.333 183 -46s61 -76.667 61 -138c0 -51.333 -22.667 -134.666 -68 -249.999s-125.666 -292.333 -240.999 -531h256l-82 -168h-264c-32.667 -62 -70.167 -126.167 -112.5 -192.5s-91.833 -137.166 -148.5 -212.499h-243z" />
    <glyph glyph-name="G" unicode="G" horiz-adv-x="1151" 
d="M641 119c-36.667 -42.667 -79.1699 -74.832 -127.503 -96.499s-102.166 -32.5 -161.499 -32.5c-99.333 0 -177.333 32 -234 96s-85 152.667 -85 266c0 115.333 26.833 242.166 80.5 380.499s125.834 264.833 216.501 379.5c84.667 106.667 174.5 188 269.5 244
s191.5 84 289.5 84c88.667 0 160 -24.333 214 -73s81 -112.334 81 -191.001c0 -84 -30.167 -161.833 -90.5 -233.5s-143.5 -127.834 -249.5 -168.501v201c47.333 24 84.333 52.167 111 84.5s40 64.833 40 97.5c0 30 -10 53.833 -30 71.5s-46.667 26.5 -80 26.5
c-57.333 0 -116.666 -18.167 -177.999 -54.5s-122.333 -89.833 -183 -160.5c-85.333 -100.667 -156.166 -215.667 -212.499 -345s-84.5 -238.666 -84.5 -327.999c0 -60.667 12 -107.334 36 -140.001s58 -49 102 -49c60 0 125.667 26 197 78s144 127 218 225
c34.667 94 64 154.833 88 182.5s53.333 41.5 88 41.5c25.333 0 47.166 -9.33301 65.499 -28s27.5 -41 27.5 -67c0 -31.333 -7.66699 -62.166 -23 -92.499s-40 -62.833 -74 -97.5c-85.333 -267.333 -178.833 -489.833 -280.5 -667.5s-180.167 -266.5 -235.5 -266.5
c-5.33301 0 -9 1.83301 -11 5.5s-3 10.834 -3 21.501c0 5.33301 2.33301 21.5 7 48.5s7 50.833 7 71.5c0 9.33301 -0.166992 16.5 -0.5 21.5s-0.833008 9.83301 -1.5 14.5l-6 57c44 58.667 83.5 120.5 118.5 185.5s66.5 134.167 94.5 207.5z" />
    <glyph glyph-name="H" unicode="H" horiz-adv-x="1792" 
d="M722 354c-164 -2 -290.169 -15.501 -378.502 -40.501s-132.5 -59.833 -132.5 -104.5c0 -19.333 8.5 -33.666 25.5 -42.999s42.5 -14 76.5 -14c70.667 0 140.334 16.833 209.001 50.5s135.334 84.167 200.001 151.5zM1350 -0.000976562l-207.006 0.00195312
c10.667 51.333 24.334 108.5 41.001 171.5s37 132.833 61 209.5c-43.333 -4 -112 -8 -206 -12c-28 -0.666992 -49.333 -1.33398 -64 -2.00098c-97.333 -128 -201.666 -223.833 -312.999 -287.5s-229.666 -95.5 -354.999 -95.5c-90.667 0 -161.167 17.833 -211.5 53.5
s-75.5 85.834 -75.5 150.501c0 112 71.833 200.167 215.5 264.5s343.167 96.5 598.5 96.5h43c68.667 118.667 125.834 240.5 171.501 365.5s79.834 253.5 102.501 385.5l203 23c-27.333 -160.667 -61.333 -301 -102 -421s-92 -235 -154 -345
c53.333 2.66699 96 5.16699 128 7.5s60.333 4.83301 85 7.5c96.667 315.333 188.167 547 274.5 695s172.833 222 259.5 222c14.667 0 25.5 -1.66699 32.5 -5s10.5 -8.66602 10.5 -15.999c0 -5.33301 -14 -37 -42 -95c-121.333 -248.667 -229.333 -503.667 -324 -765
c24 5.33301 47.333 11.666 70 18.999s45.667 16 69 26l39 -182c-32.667 -12 -67 -22.667 -103 -32s-81 -19.333 -135 -30c-21.333 -58.667 -41.166 -121.334 -59.499 -188.001s-35.833 -140.334 -52.5 -221.001z" />
    <glyph glyph-name="I" unicode="I" horiz-adv-x="930" 
d="M10 199c24 -8 42.666 -13.4961 55.999 -16.4961s25.333 -4.5 36 -4.5c79.333 0 156.166 36 230.499 108s146.5 180.667 216.5 326c56 115.333 102.333 235.166 139 359.499s55 209.5 55 255.5c0 13.333 -2.83301 24.166 -8.5 32.499s-12.834 12.5 -21.501 12.5
c-40.667 0 -89.834 -47.5 -147.501 -142.5s-103.5 -212.833 -137.5 -353.5c-36 -29.333 -72.167 -53 -108.5 -71s-64.166 -27 -83.499 -27c-7.33301 0 -12.333 2.66699 -15 8s-4 15 -4 29c0 62.667 12.5 134 37.5 214s59.5 157.333 103.5 232
c56 96 119.833 171.167 191.5 225.5s141.834 81.5 210.501 81.5c60 0 106.667 -18.167 140 -54.5s50 -86.833 50 -151.5c0 -36 -6.33301 -85.167 -19 -147.5s-30.667 -132.833 -54 -211.5c-29.333 -95.333 -64.5 -188.833 -105.5 -280.5s-87.167 -179.834 -138.5 -264.501
c-80.667 -130.667 -165.667 -226.834 -255 -288.501s-188 -92.5 -296 -92.5c-37.333 0 -71.166 4.16699 -101.499 12.5s-59.166 21.5 -86.499 39.5z" />
    <glyph glyph-name="J" unicode="J" horiz-adv-x="930" 
d="M424 256c-113.333 -95.333 -207.5 -200 -282.5 -314s-112.5 -199 -112.5 -255c0 -16.667 2.16699 -28.667 6.5 -36s11.5 -11 21.5 -11c22.667 0 45.667 15 69 45s61.333 98 114 204zM543 535c68.667 148.667 124.004 288.498 166.004 419.498s63 221.833 63 272.5
c0 13.333 -2.83301 24.166 -8.5 32.499s-13.167 12.5 -22.5 12.5c-40 0 -88.833 -47.5 -146.5 -142.5s-103.5 -212.833 -137.5 -353.5c-36.667 -29.333 -73 -53 -109 -71s-64 -27 -84 -27c-6.66699 0 -11.334 2.66699 -14.001 8s-4 15 -4 29c0 63.333 12.333 135 37 215
s58.667 157 102 231c55.333 95.333 119.166 170.333 191.499 225s142.833 82 211.5 82c59.333 0 105.666 -18.333 138.999 -55s50 -87.667 50 -153c0 -101.333 -35 -252.666 -105 -453.999s-171 -440.666 -303 -717.999c-128.667 -272 -227.834 -447.167 -297.501 -525.5
s-145.834 -117.5 -228.501 -117.5c-60.667 0 -109 20.167 -145 60.5s-54 94.5 -54 162.5c0 136 63.333 283.333 190 442s296.334 300.334 509.001 425.001z" />
    <glyph glyph-name="K" unicode="K" horiz-adv-x="1200" 
d="M-29 0l301.002 647c-14 18.667 -24.667 35.334 -32 50.001s-11 27.334 -11 38.001c0 29.333 39 68.666 117 117.999l31 19l260 549h209l-225 -460c111.333 74.667 205.166 149.5 281.499 224.5s138.833 153.5 187.5 235.5h131c17.333 0 30.5 -2.66699 39.5 -8
s13.5 -13.333 13.5 -24c0 -50 -76.333 -146.667 -229 -290s-339.334 -281 -560.001 -413c93.333 -164.667 187.833 -303.334 283.5 -416.001s195.167 -202.667 298.5 -270h-317c-49.333 48 -104 112.333 -164 193s-123 174 -189 280l-219 -473h-207z" />
    <glyph glyph-name="L" unicode="L" horiz-adv-x="1475" 
d="M416 43c-34.667 -14.667 -70.166 -25.5 -106.499 -32.5s-73.833 -10.5 -112.5 -10.5c-70 0 -121.333 9.16699 -154 27.5s-49 46.833 -49 85.5c0 40 21.167 70.833 63.5 92.5s103.833 32.5 184.5 32.5c20.667 0 42.667 -1.33301 66 -4s49.666 -7 78.999 -13
c85.333 89.333 177 267.333 275 534c40 109.333 72 193 96 251c61.333 147.333 129.166 255.5 203.499 324.5s160.833 103.5 259.5 103.5c66.667 0 119.834 -20.167 159.501 -60.5s59.5 -94.833 59.5 -163.5c0 -58 -17.5 -131.333 -52.5 -220s-89.167 -196 -162.5 -322
l-258 -43c89.333 134.667 158 251.167 206 349.5s72 170.833 72 217.5c0 20 -5 35.5 -15 46.5s-24 16.5 -42 16.5c-37.333 0 -79.5 -31 -126.5 -93s-92.167 -147 -135.5 -255l-76 -197c-92.667 -248.667 -175.667 -421.334 -249 -518.001
c31.333 -4.66699 62.333 -8.16699 93 -10.5s60.667 -3.5 90 -3.5c73.333 0 149.333 4.33301 228 13s158.334 21.334 239.001 38.001l-73 -204c-80.667 -12.667 -152.334 -21.667 -215.001 -27s-121.667 -8 -177 -8c-60 0 -120.667 4.33301 -182 13s-124 22 -188 40z" />
    <glyph glyph-name="M" unicode="M" horiz-adv-x="1651" 
d="M-119 -35c93.333 70 194.332 190.665 302.999 361.998s227.667 397 357 677c90.667 196 155.5 318 194.5 366s81.167 72 126.5 72c40.667 0 70.334 -10.167 89.001 -30.5s28 -52.5 28 -96.5c0 -30.667 -4.16699 -71.167 -12.5 -121.5s-19.833 -103.5 -34.5 -159.5
l-199 -745c212 338.667 412.333 615.5 601 830.5s321 322.5 397 322.5c34.667 0 61.667 -8.66699 81 -26s29 -41.666 29 -72.999c0 -30.667 -46 -131 -138 -301l-169 -321c-83.333 -165.333 -140.333 -299.833 -171 -403.5s-46 -204.167 -46 -301.5v-8l-197 -31v33
c0 140 36.167 300.333 108.5 481s193.166 409 362.499 685c-81.333 -72.667 -170.166 -169.167 -266.499 -289.5s-213.5 -281.5 -351.5 -483.5l-55 -80c-144.667 -215.333 -244.667 -323 -300 -323c-28 0 -49.667 7.66699 -65 23s-23 37 -23 65
c0 17.333 6.33301 53.333 19 108c2 6.66699 3.33301 11.667 4 15l240 981c-126 -315.333 -242.167 -573.166 -348.5 -773.499s-207.5 -351.5 -303.5 -453.5h-260z" />
    <glyph glyph-name="N" unicode="N" horiz-adv-x="1237" 
d="M-164 -29c80 100.667 157.666 220.167 232.999 358.5s161 321.5 257 549.5l30 74c60.667 146.667 110.667 260.334 150 341.001c31.333 66 57.166 107.167 77.499 123.5s47.833 24.5 82.5 24.5c46 0 78.333 -19.5 97 -58.5s28 -110.5 28 -214.5v-49l-17 -805l129 422
c46 149.333 93.667 270.666 143 363.999s102.666 164.666 159.999 213.999l56 -228c-34 -47.333 -73.167 -122.166 -117.5 -224.499s-104.166 -257.5 -179.499 -465.5l-1 -2c-95.333 -263.333 -177.666 -395 -246.999 -395c-40 -0 -68.167 14.833 -84.5 44.5
s-24.5 82.5 -24.5 158.5v18l19 967c-116.667 -310 -221.667 -564.833 -315 -764.5s-177.666 -350.5 -252.999 -452.5h-223z" />
    <glyph glyph-name="O" unicode="O" horiz-adv-x="1229" 
d="M737 737l-134.998 -64.9961c-10.667 -5.33301 -19.834 -9.5 -27.501 -12.5s-13.5 -4.5 -17.5 -4.5c-14 0 -23.333 2.83301 -28 8.5s-7 17.167 -7 34.5c0 43.333 10.167 94.166 30.5 152.499s47.166 110.833 80.499 157.5c46.667 65.333 101.334 116.833 164.001 154.5
s124.667 56.5 186 56.5c69.333 0 125.666 -22.667 168.999 -68s65 -103.333 65 -174c0 -103.333 -19.667 -208.833 -59 -316.5s-97 -213.834 -173 -318.501c-84 -116.667 -174.833 -205.167 -272.5 -265.5s-198.5 -90.5 -302.5 -90.5c-114.667 0 -207.167 38.5 -277.5 115.5
s-105.5 177.5 -105.5 301.5c0 123.333 31.833 256.5 95.5 399.5s149.167 270.167 256.5 381.5c87.333 90.667 183.5 163.5 288.5 218.5s197.167 82.5 276.5 82.5c40 0 69.167 -7.33301 87.5 -22s27.5 -37.334 27.5 -68.001c0 -23.333 -5.5 -41.166 -16.5 -53.499
s-31.5 -23.166 -61.5 -32.499c-8 -2.66699 -21.333 -6.33398 -40 -11.001c-120.667 -31.333 -222.667 -79.666 -306 -144.999c-58 -46 -110.833 -97.833 -158.5 -155.5s-90.5 -121.834 -128.5 -192.501c-38 -71.333 -68 -143 -90 -215s-33 -132 -33 -180
c0 -72.667 18.5 -129.834 55.5 -171.501s87.5 -62.5 151.5 -62.5c73.333 0 149.5 32.167 228.5 96.5s153.833 155.166 224.5 272.499c44 74 79.167 148.5 105.5 223.5s39.5 135.5 39.5 181.5c0 27.333 -7.16699 48.833 -21.5 64.5s-33.833 23.5 -58.5 23.5
c-46.667 0 -88.667 -26.167 -126 -78.5s-66.333 -126.5 -87 -222.5z" />
    <glyph glyph-name="P" unicode="P" horiz-adv-x="1053" 
d="M311 465c-20 -182.667 -53.333 -326.667 -100 -432s-99.334 -158 -158.001 -158c-22 0 -39 8.16699 -51 24.5s-18 38.833 -18 67.5c0 56.667 19.333 151.834 58 285.501s92.334 289.167 161.001 466.5c107.333 279.333 207.333 475.833 300 589.5s196 170.5 310 170.5
c89.333 0 157.333 -30.833 204 -92.5s70 -151.834 70 -270.501c0 -231.333 -59.5 -428.666 -178.5 -591.999s-256.5 -245 -412.5 -245c-30 0 -51.5 7.33301 -64.5 22s-19.5 38.667 -19.5 72c0 47.333 38 82.666 114 105.999c46 14 80.333 27.667 103 41
c74.667 44 136.667 122 186 234s74 230.667 74 356c0 60.667 -9 105.167 -27 133.5s-46 42.5 -84 42.5c-66.667 0 -138.667 -67.833 -216 -203.5s-161 -341.5 -251 -617.5z" />
    <glyph glyph-name="Q" unicode="Q" horiz-adv-x="1464" 
d="M481 41c-45.333 -18.667 -87.167 -32.502 -125.5 -41.502s-74.166 -13.5 -107.499 -13.5c-64 0 -113.833 11.667 -149.5 35s-53.5 56 -53.5 98c0 46 16.333 81.333 49 106s79 37 139 37c26 0 54.167 -3.16699 84.5 -9.5s65.166 -16.166 104.499 -29.499
c239.333 143.333 435 298.5 587 465.5s228 303.5 228 409.5c0 50.667 -15.833 91 -47.5 121s-74.5 45 -128.5 45c-99.333 0 -199 -46.167 -299 -138.5s-183.333 -216.833 -250 -373.5l-141 135c72 172 171 307.5 297 406.5s261.667 148.5 407 148.5
c112 0 202.5 -30.333 271.5 -91s103.5 -139.667 103.5 -237c0 -132.667 -69.333 -286.167 -208 -460.5s-318.667 -327.166 -540 -458.499c57.333 -5.33301 106.833 -9.16602 148.5 -11.499s79.834 -3.5 114.501 -3.5c51.333 0 101.666 3 150.999 9s98 14.667 146 26
l-50 -199c-48.667 -6.66699 -98.5 -11.667 -149.5 -15s-103.5 -5 -157.5 -5c-80 0 -155 3.66699 -225 11s-136.333 18.666 -199 33.999z" />
    <glyph glyph-name="R" unicode="R" horiz-adv-x="1180" 
d="M391 588c-25.333 -191.333 -60.502 -338.501 -105.502 -441.501s-96.5 -154.5 -154.5 -154.5c-22.667 0 -40.334 8.16699 -53.001 24.5s-19 39.5 -19 69.5c0 42 22.833 138.5 68.5 289.5s104.167 318.167 175.5 501.5c84.667 216.667 162.834 364.667 234.501 444
s156.834 119 255.501 119c90.667 0 161 -33.333 211 -100s75 -161 75 -283c0 -146.667 -33 -269.167 -99 -367.5s-168 -176.5 -306 -234.5c105.333 -122 182.5 -215.333 231.5 -280s85.167 -120.334 108.5 -167.001l-164 -123c-67.333 115.333 -150 232 -248 350
s-147 194 -147 228c0 50.667 47 101.334 141 152.001c43.333 24 76 43.667 98 59c58.667 40.667 104.167 94.5 136.5 161.5s48.5 140.833 48.5 221.5c0 58.667 -10.167 105.334 -30.5 140.001s-47.166 52 -80.499 52c-52 0 -104.333 -44.333 -157 -133
s-126 -264.667 -220 -528z" />
    <glyph glyph-name="S" unicode="S" horiz-adv-x="1360" 
d="M629 319c-28 4.66699 -54.835 7.99902 -80.502 9.99902s-50.167 3 -73.5 3c-60 0 -109.167 -7.66699 -147.5 -23s-57.5 -33.666 -57.5 -54.999c0 -26 24.5 -46.833 73.5 -62.5s115.5 -23.5 199.5 -23.5c127.333 0 230.5 18.5 309.5 55.5s118.5 84.833 118.5 143.5
c0 56.667 -74.667 122.667 -224 198l-53 27c-83.333 43.333 -145.833 92.333 -187.5 147s-62.5 115.667 -62.5 183c0 66.667 22.667 134.834 68 204.501s106.666 130.5 183.999 182.5c63.333 42.667 131.166 76.167 203.499 100.5s139.833 36.5 202.5 36.5
c78.667 0 141.667 -18.333 189 -55s71 -85.334 71 -146.001c0 -92.667 -50.5 -176.5 -151.5 -251.5s-227.5 -118.833 -379.5 -131.5l37 182c92.667 24.667 166.834 53.5 222.501 86.5s83.5 63.833 83.5 92.5c0 11.333 -6.83301 21.333 -20.5 30s-30.167 13 -49.5 13
c-31.333 0 -70.666 -7.33301 -117.999 -22s-92.666 -34 -135.999 -58c-67.333 -38 -118.333 -77.667 -153 -119s-52 -83.666 -52 -126.999c0 -74.667 75.667 -147.667 227 -219l97 -47c65.333 -34 115.333 -76 150 -126s52 -105.667 52 -167
c0 -121.333 -58.167 -217.5 -174.5 -288.5s-275.166 -106.5 -476.499 -106.5c-144 0 -256.5 23.5 -337.5 70.5s-121.5 111.5 -121.5 193.5c0 77.333 40.333 140.666 121 189.999s186 74 316 74c24 0 50 -1.66699 78 -5s58 -8.33301 90 -15z" />
    <glyph glyph-name="T" unicode="T" horiz-adv-x="1133" 
d="M426 -25c90 132 183.998 296.997 281.998 494.997s198.667 426.333 302 685c-200.667 -32 -366 -64 -496 -96s-195 -55.333 -195 -70c0 -14 17.5 -32.833 52.5 -56.5s87.167 -51.834 156.5 -84.501c-18.667 -32 -38.167 -60.167 -58.5 -84.5s-42.5 -46.166 -66.5 -65.499
c-104.667 48.667 -185.667 99 -243 151s-86 101.333 -86 148c0 72.667 72.5 134.334 217.5 185.001s411.833 104.334 800.5 161.001c18.667 42.667 38.834 72.834 60.501 90.501s48.5 26.5 80.5 26.5c34 0 61.667 -9.66699 83 -29s32 -44.333 32 -75
c0 -31.333 -9 -59.333 -27 -84s-46 -48 -84 -70c-128 -328.667 -233.667 -585 -317 -769s-164.666 -343.333 -243.999 -478z" />
    <glyph glyph-name="U" unicode="U" horiz-adv-x="1417" 
d="M1092 604c-188 -214.667 -340.501 -370.999 -457.501 -468.999s-209.167 -147 -276.5 -147c-39.333 0 -68.833 10.167 -88.5 30.5s-29.5 51.166 -29.5 92.499c0 32.667 11.167 83.5 33.5 152.5s52.833 142.833 91.5 221.5l274 566c16.667 32.667 28.334 60.5 35.001 83.5
s10 44.833 10 65.5c0 18.667 -4.33301 31.834 -13 39.501s-22.667 11.5 -42 11.5c-60 0 -121.5 -44.333 -184.5 -133s-110.167 -202.667 -141.5 -342c-36.667 -30 -73.5 -54.167 -110.5 -72.5s-64.833 -27.5 -83.5 -27.5c-6 0 -10.333 2.66699 -13 8s-4 13.666 -4 24.999
c0 40 12.333 98 37 174s56.667 150.333 96 223c59.333 108.667 126.833 191.5 202.5 248.5s155.834 85.5 240.501 85.5c68.667 0 123.334 -18.5 164.001 -55.5s61 -86.833 61 -149.5c0 -72 -59.333 -224.667 -178 -458c-92 -182.667 -163 -331.667 -213 -447l-35 -84
c-2.66699 -6 -4.66699 -11.167 -6 -15.5s-2 -7.5 -2 -9.5s0.5 -3.5 1.5 -4.5s1.83301 -1.5 2.5 -1.5c20.667 0 116.667 88.167 288 264.5s362 387.833 572 634.5l35 70l1 3c15.333 28 38 45.333 68 52l63 14c11.333 2 21.5 3.5 30.5 4.5s16.833 1.83301 23.5 2.5
c11.333 0 19.666 -1.5 24.999 -4.5s8 -7.16699 8 -12.5c0 -21.333 -32.333 -94.333 -97 -219l-128 -252c-82.667 -169.333 -143.334 -313.166 -182.001 -431.499s-58 -217.5 -58 -297.5v-18l-211 -37c1.33301 83.333 17.5 175.166 48.5 275.499s78.5 213.833 142.5 340.5z
" />
    <glyph glyph-name="V" unicode="V" horiz-adv-x="1395" 
d="M631 1051c16 31.333 27.502 58.8281 34.502 82.4951s10.5 45.834 10.5 66.501c0 18.667 -4.33301 31.834 -13 39.501s-22.667 11.5 -42 11.5c-60 0 -121.167 -44.167 -183.5 -132.5s-109.166 -202.5 -140.499 -342.5c-36.667 -30 -73.834 -54.167 -111.501 -72.5
s-66.167 -27.5 -85.5 -27.5c-4.66699 0 -8.16699 2.33301 -10.5 7s-3.5 13.334 -3.5 26.001c0 41.333 12 99.833 36 175.5s55.667 149.5 95 221.5c59.333 108.667 126.833 191.5 202.5 248.5s155.5 85.5 239.5 85.5c69.333 0 124.666 -18.667 165.999 -56s62 -87 62 -149
c0 -37.333 -9.33301 -82.5 -28 -135.5s-51 -125.833 -97 -218.5l-199 -400c-23.333 -47.333 -42.5 -92.666 -57.5 -135.999s-22.5 -73.666 -22.5 -90.999c0 -27.333 5.83301 -46.833 17.5 -58.5s31.167 -17.5 58.5 -17.5c56 0 120.833 30 194.5 90
s148.834 144.667 225.501 254c85.333 122.667 155 241.834 209 357.501s92.333 228.167 115 337.5l204 118v-6c0 -96.667 -24.5 -214.167 -73.5 -352.5s-117.167 -279.5 -204.5 -423.5c-112.667 -186.667 -228.834 -327.834 -348.501 -423.501
s-239.834 -143.5 -360.501 -143.5c-74 0 -131.333 19.667 -172 59s-61 94.666 -61 165.999c0 51.333 10.167 110.333 30.5 177s50.5 139.334 90.5 218.001z" />
    <glyph glyph-name="W" unicode="W" horiz-adv-x="1849" 
d="M1024 659l-345.998 -380.002c-108 -118.667 -188.167 -197.167 -240.5 -235.5s-99.833 -57.5 -142.5 -57.5c-36 0 -63.833 9.83301 -83.5 29.5s-29.5 47.834 -29.5 84.501c0 22 5.33301 49.833 16 83.5s26 71.5 46 113.5l374 774
c14.667 28.667 25.167 52.834 31.5 72.501s9.5 36.5 9.5 50.5c0 20 -3.66699 34.5 -11 43.5s-19.333 13.5 -36 13.5c-60.667 0 -124.167 -44.333 -190.5 -133s-111.833 -197.667 -136.5 -327c-41.333 -33.333 -81.166 -60.166 -119.499 -80.499s-65.5 -30.5 -81.5 -30.5
c-8.66699 0 -15.667 1.66699 -21 5s-8 7.66602 -8 12.999c0 30 10 78.333 30 145s45.667 131.667 77 195c63.333 132 135 231.667 215 299s166 101 258 101c68 0 123.5 -19 166.5 -57s64.5 -86.667 64.5 -146c0 -30.667 -5.16699 -63 -15.5 -97s-28.833 -78 -55.5 -132
l-375 -752l355.5 367c109 118 212.167 235.333 309.5 352l66 82c50 65.333 88.333 98 115 98c7.33301 0 14.166 -0.666992 20.499 -2s12.5 -3.33301 18.5 -6l43 -19c12 -4.66699 21 -11.167 27 -19.5s9 -18.166 9 -29.499c0 -6 -1 -13 -3 -21s-5 -16.667 -9 -26l-297 -676
c-12 -28 -20.833 -52.167 -26.5 -72.5s-8.5 -37.833 -8.5 -52.5c0 -17.333 4.66699 -30.833 14 -40.5s22.666 -14.5 39.999 -14.5c44.667 0 102.667 31.5 174 94.5s142.333 146.833 213 251.5c82 122 151.833 248.667 209.5 380s102.5 266.333 134.5 405l196 71
c0.666992 -7.33301 1.16699 -14.833 1.5 -22.5s0.5 -16.5 0.5 -26.5c0 -76.667 -32 -198 -96 -364s-146 -327.333 -246 -484c-100.667 -159.333 -202.334 -281.333 -305.001 -366s-200.334 -127 -293.001 -127c-74 0 -131.333 19.667 -172 59s-61 94.666 -61 165.999
c0 42 14.333 100 43 174s72.334 165.333 131.001 274z" />
    <glyph glyph-name="X" unicode="X" horiz-adv-x="1161" 
d="M596 733c0 118.667 1.66895 246.335 5.00195 383.002c0.666992 40 1 65.333 1 76c0 19.333 -2.66699 33 -8 41s-14.333 12 -27 12c-19.333 0 -54.333 -27.167 -105 -81.5s-109.667 -128.166 -177 -221.499l-74 191c66 95.333 136.667 170.666 212 225.999
s144.666 83 207.999 83c62 0 107.5 -20.333 136.5 -61s43.5 -105 43.5 -193c0 -14 -1 -40.333 -3 -79s-5 -91.667 -9 -159c74 95.333 148.333 179.666 223 252.999s151.667 138 231 194v-217c-67.333 -60 -138 -129.5 -212 -208.5s-153.333 -170.167 -238 -273.5v-67
c0 -204 28.667 -394.333 86 -571c8 -24.667 12 -39.334 12 -44.001c0 -12 -4.16699 -20 -12.5 -24s-28.833 -6 -61.5 -6h-61c-40 0 -65.5 4 -76.5 12s-20.167 25.667 -27.5 53c-12.667 44.667 -24 106.5 -34 185.5s-17.333 164.833 -22 257.5l-129 -151
c-206 -240.667 -354.667 -361 -446 -361h-66c-18 0 -37.333 1.66699 -58 5s-42.334 8.33301 -65.001 15c102 68 214.833 161.833 338.5 281.5s262.167 269.5 415.5 449.5z" />
    <glyph glyph-name="Y" unicode="Y" horiz-adv-x="1389" 
d="M985 444c-150.667 -168.667 -273.666 -286.495 -368.999 -353.495s-184.666 -100.5 -267.999 -100.5c-41.333 0 -73.5 10.333 -96.5 31s-34.5 50 -34.5 88c0 19.333 3.33301 41.5 10 66.5s16.334 52.5 29.001 82.5l344 782c17.333 40 29.5 71.5 36.5 94.5
s10.5 41.5 10.5 55.5c0 20.667 -4.33301 35.334 -13 44.001s-23.334 13 -44.001 13c-60.667 0 -120.667 -44.333 -180 -133s-103 -204 -131 -346l-156 -94c-8.66699 -4.66699 -15.667 -8.16699 -21 -10.5s-9.33301 -3.83301 -12 -4.5c-4 0 -7.33301 3.16699 -10 9.5
s-4 14.833 -4 25.5c0 41.333 10.833 101.833 32.5 181.5s48.834 153.167 81.501 220.5c53.333 108.667 118.833 193.167 196.5 253.5s159.167 90.5 244.5 90.5c69.333 0 124.5 -17.667 165.5 -53s61.5 -83.333 61.5 -144c0 -30 -8.33301 -70.833 -25 -122.5
s-42.334 -115.834 -77.001 -192.501l-308 -681c-4.66699 -10 -8.5 -19.833 -11.5 -29.5s-4.5 -15.834 -4.5 -18.501c0.666992 -3.33301 1.66699 -5.5 3 -6.5s3.66602 -1.83301 6.99902 -2.5c22.667 0 51 10.5 85 31.5s82.333 57.833 145 110.5
c96 81.333 183.667 165.666 263 252.999s145.333 171.666 198 252.999c53.333 83.333 100 170 140 260c6 13.333 9.66699 21.333 11 24c6 11.333 15.167 19.666 27.5 24.999s29.166 8 50.499 8h49c16.667 0 30.334 -3.83301 41.001 -11.5s16 -17.5 16 -29.5
c0 -10.667 -4.83301 -30 -14.5 -58s-23.167 -61.333 -40.5 -100l-381 -862c-87.333 -198.667 -166.833 -351.334 -238.5 -458.001s-130.834 -160 -177.501 -160c-24.667 0 -45.5 5.66699 -62.5 17s-25.5 26 -25.5 44c0 14 26.5 64.333 79.5 151s97.5 168 133.5 244z" />
    <glyph glyph-name="Z" unicode="Z" horiz-adv-x="958" 
d="M272 1272c62.667 52 128.5 92.334 197.5 121.001s134.5 43 196.5 43c96 0 171.5 -24.5 226.5 -73.5s82.5 -116.167 82.5 -201.5c0 -88.667 -38 -178 -114 -268s-197 -189 -363 -297c76.667 -12.667 134.334 -42.5 173.001 -89.5s58 -111.5 58 -193.5
c0 -90.667 -25 -191.167 -75 -301.5s-117 -210.5 -201 -300.5c-68 -72.667 -138.5 -128 -211.5 -166s-145.167 -57 -216.5 -57c-76 0 -136.333 21 -181 63s-67 98.667 -67 170c0 58.667 17.333 121 52 187s82.667 127.333 144 184c54 49.333 97.333 83.833 130 103.5
s61.667 29.5 87 29.5c23.333 0 41.833 -6.33301 55.5 -19s20.5 -29.334 20.5 -50.001c0 -27.333 -22 -59.333 -66 -96c-25.333 -20.667 -45 -38 -59 -52c-54 -52.667 -95.833 -102.167 -125.5 -148.5s-44.5 -84.833 -44.5 -115.5c0 -23.333 6.33301 -41.166 19 -53.499
s31 -18.5 55 -18.5c36.667 0 78.667 13.667 126 41s91.333 63.666 132 108.999c66 75.333 119.667 159 161 251s62 170.667 62 236c0 30 -8.66699 55.333 -26 76s-44 37 -80 49l-29 10c-91.333 30 -137 70.333 -137 121c0 54 46.333 113 139 177l68 49
c108 80 186.833 149 236.5 207s74.5 109.667 74.5 155c0 31.333 -8.66699 55.166 -26 71.499s-42 24.5 -74 24.5c-40 0 -83.333 -10.167 -130 -30.5s-96.334 -50.5 -149.001 -90.5c-28.667 -21.333 -61 -49.166 -97 -83.499s-58.333 -51.5 -67 -51.5
c-6 0 -11.167 3.33301 -15.5 10s-6.5 15 -6.5 25c0 5.33301 0.166992 9.33301 0.5 12s0.833008 5 1.5 7z" />
    <glyph glyph-name="bracketleft" unicode="[" horiz-adv-x="758" 
d="M539 1421h370l-41 -118h-204l-584 -1694h207l-43 -117h-371z" />
    <glyph glyph-name="backslash" unicode="\" horiz-adv-x="578" 
d="M213 -190l-117 1626h146l116 -1626h-145z" />
    <glyph glyph-name="bracketright" unicode="]" horiz-adv-x="758" 
d="M92 -510h-371l41 119h205l584 1694h-205l41 118h371z" />
    <glyph glyph-name="asciicircum" unicode="^" horiz-adv-x="2048" 
d="M1116 1458l510 -557h-180l-422 420l-424 -420h-180l510 557h186z" />
    <glyph glyph-name="underscore" unicode="_" 
d="M1024 -340v-143h-1024v143h1024z" />
    <glyph glyph-name="grave" unicode="`" 
d="M717 870h-117l-332 273h236z" />
    <glyph glyph-name="a" unicode="a" horiz-adv-x="907" 
d="M709 563c-30 14.667 -59.334 25.5029 -88.001 32.5029s-56.667 10.5 -84 10.5c-115.333 0 -212.833 -32.833 -292.5 -98.5s-119.5 -145.5 -119.5 -239.5c0 -30.667 5.83301 -55.334 17.5 -74.001s26.834 -28 45.501 -28c51.333 0 105.833 29.333 163.5 88
s109.167 138.667 154.5 240h174l-88 -224c-6 -14 -10.667 -27.333 -14 -40s-5 -23 -5 -31c0.666992 -2.66699 1.16699 -4.33398 1.5 -5.00098s1.5 -1 3.5 -1c13.333 0 49.333 18.167 108 54.5s119.334 80.833 182.001 133.5v-180c-94 -68.667 -177.667 -121.667 -251 -159
s-129.333 -56 -168 -56c-26.667 0 -45.334 6.66699 -56.001 20s-16 36.666 -16 69.999v12c-47.333 -38 -88.333 -64.5 -123 -79.5s-70.334 -22.5 -107.001 -22.5c-69.333 0 -122.166 21.5 -158.499 64.5s-54.5 106.167 -54.5 189.5c0 143.333 58 263.833 174 361.5
s257.333 146.5 424 146.5c18.667 0 39.167 -1.5 61.5 -4.5s57.833 -9.16699 106.5 -18.5z" />
    <glyph glyph-name="b" unicode="b" horiz-adv-x="797" 
d="M37 262c-20 -17.333 -39.1709 -32.9961 -57.5039 -46.9961s-36.166 -26.333 -53.499 -37v174c58.667 46.667 135.334 114.667 230.001 204l6 5l266 670l6 14c66 165.333 124 248 174 248c26 0 46.167 -7.83301 60.5 -23.5s21.5 -37.167 21.5 -64.5
c0 -58 -26.667 -150.167 -80 -276.5s-127 -270.5 -221 -432.5l-143 -360c-14 -36 -24 -65.333 -30 -88s-9 -42 -9 -58c0 -18.667 3.5 -31.834 10.5 -39.501s19.167 -11.5 36.5 -11.5c25.333 0 55.5 12.667 90.5 38s65.5 57.666 91.5 96.999c-2 22 -3.5 40.667 -4.5 56
s-1.5 27.666 -1.5 36.999c0 94 20 179.167 60 255.5s83.667 114.5 131 114.5c26 0 47.167 -10.333 63.5 -31s24.5 -48.334 24.5 -83.001c0 -30.667 -5.66699 -68.667 -17 -114s-29.666 -103 -54.999 -173c4.66699 -1.33301 9.66699 -2.33301 15 -3s11.333 -1 18 -1
c12 0 26.333 5 43 15s45.334 31.667 86.001 65v-179c-26.667 -25.333 -52.167 -43.5 -76.5 -54.5s-50.833 -16.5 -79.5 -16.5c-22.667 0 -41.334 1.5 -56.001 4.5s-28.667 8.16699 -42 15.5c-55.333 -66 -110.833 -114.833 -166.5 -146.5s-114.167 -47.5 -175.5 -47.5
c-57.333 0 -102.166 15.333 -134.499 46s-48.5 73.334 -48.5 128.001c0 12.667 1.33301 27.167 4 43.5s7 35.166 13 56.499z" />
    <glyph glyph-name="c" unicode="c" horiz-adv-x="735" 
d="M698 201c-102 -76.667 -190.833 -131.332 -266.5 -163.999s-149.167 -49 -220.5 -49c-92 0 -161.5 22.833 -208.5 68.5s-70.5 113.5 -70.5 203.5c0 132 50.167 245.5 150.5 340.5s218.833 142.5 355.5 142.5c59.333 0 105.333 -12.333 138 -37s49 -59.334 49 -104.001
c0 -17.333 -2.33301 -36.166 -7 -56.499s-10.667 -39.166 -18 -56.499l-18 -45h-174c10 23.333 17.5 44.166 22.5 62.499s7.5 33.833 7.5 46.5c0 18 -5.16699 31.667 -15.5 41s-25.5 14 -45.5 14c-52 0 -106 -34.333 -162 -103s-84 -141.334 -84 -218.001
c0 -42.667 10.833 -75.5 32.5 -98.5s52.5 -34.5 92.5 -34.5c55.333 0 120.5 19.167 195.5 57.5s157.167 94.833 246.5 169.5v-180z" />
    <glyph glyph-name="d" unicode="d" horiz-adv-x="985" 
d="M557 406c102 173.333 183.498 343.333 244.498 510s91.5 290.667 91.5 372c0 1.33301 -0.5 2.33301 -1.5 3s-1.83301 1 -2.5 1c-25.333 0 -76.166 -91.167 -152.499 -273.5s-136.166 -386.5 -179.499 -612.5zM374.998 248c4 56 11.001 110.667 21.001 164
s23.333 106.333 40 159c-12.667 4 -23 6.83301 -31 8.5s-15.333 2.5 -22 2.5c-70 0 -130.167 -31.167 -180.5 -93.5s-75.5 -139.833 -75.5 -232.5c0 -31.333 7.66699 -55.833 23 -73.5s37 -26.5 65 -26.5c16.667 0 37.667 7.16699 63 21.5s57.666 37.833 96.999 70.5z
M394.999 94c-40.667 -36.667 -81.165 -63.833 -121.498 -81.5s-81.5 -26.5 -123.5 -26.5c-67.333 0 -119.666 23.667 -156.999 71s-56 113.666 -56 198.999c0 130.667 44.167 243.167 132.5 337.5s190.166 141.5 305.499 141.5c14 0 29.333 -1 46 -3s34.667 -5 54 -9
c68.667 220.667 148 402.167 238 544.5s165 213.5 225 213.5c28 0 49 -18.167 63 -54.5s21 -91.166 21 -164.499c0 -162.667 -43 -339.834 -129 -531.501s-201.333 -363.5 -346 -515.5c0 -2 -0.333008 -4.5 -1 -7.5s-1 -5.16699 -1 -6.5c0 -11.333 3.5 -19.666 10.5 -24.999
s17.833 -8 32.5 -8c26 0 73.833 20 143.5 60s141.834 91 216.501 153v-180c-94.667 -70.667 -179.834 -124.167 -255.501 -160.5s-139.834 -54.5 -192.501 -54.5c-34.667 0 -59.834 8 -75.501 24s-25.5 44 -29.5 84z" />
    <glyph glyph-name="e" unicode="e" horiz-adv-x="735" 
d="M698 201c-102 -76.667 -190.836 -131.334 -266.503 -164.001s-149.167 -49 -220.5 -49c-91.333 0 -160.666 23 -207.999 69s-71 113.667 -71 203c0 130.667 49.5 242.834 148.5 336.501s214.833 140.5 347.5 140.5c66 0 116.667 -14 152 -42s53 -68 53 -120
c0 -80.667 -44 -152.667 -132 -216s-206 -106 -354 -128c2.66699 -24 13.5 -42.833 32.5 -56.5s44.5 -20.5 76.5 -20.5c54.667 0 119.834 19.333 195.501 58s157.834 95 246.501 169v-180zM140.997 375c88.667 12.667 161 35.332 217 67.999s84 66.667 84 102
c0 14.667 -5 26.5 -15 35.5s-23.333 13.5 -40 13.5c-40 0 -85 -21.167 -135 -63.5s-87 -94.166 -111 -155.499z" />
    <glyph glyph-name="f" unicode="f" horiz-adv-x="606" 
d="M100 311l-97.002 -78.499c-28 -21.667 -53.667 -39.834 -77 -54.501v174c54.667 44.667 104.667 87.667 150 129s87.666 82.333 126.999 123l243 699c26.667 74 51.167 125.5 73.5 154.5s47.833 43.5 76.5 43.5c20 0 36.333 -8.33301 49 -25s19 -39 19 -67
c0 -61.333 -22.5 -155.833 -67.5 -283.5s-113.5 -292.5 -205.5 -494.5l-346 -989c-2 -7.33301 -3.5 -13.5 -4.5 -18.5s-1.5 -8.5 -1.5 -10.5c0 -6.66699 2.33301 -12.834 7 -18.501s9.66699 -8.5 15 -8.5c34.667 0 76.834 60 126.501 180s84.167 261.333 103.5 424
c79.333 49.333 140 88.333 182 117s74 53.334 96 74.001v-180l-98.5 -69.5c-30.333 -20.333 -54.166 -35.5 -71.499 -45.5c0 -185.333 -41.167 -345 -123.5 -479s-172.166 -201 -269.499 -201c-42.667 0 -76.167 13.5 -100.5 40.5s-36.5 64.833 -36.5 113.5
c0 24 4.83301 56.333 14.5 97s23.167 86 40.5 136z" />
    <glyph glyph-name="g" unicode="g" horiz-adv-x="907" 
d="M709 563c-30 14.667 -59.334 25.502 -88.001 32.502s-56.667 10.5 -84 10.5c-115.333 0 -212.833 -32.833 -292.5 -98.5s-119.5 -145.5 -119.5 -239.5c0 -30.667 5.83301 -55.334 17.5 -74.001s26.834 -28 45.501 -28c51.333 0 105.833 29.333 163.5 88
s109.167 138.667 154.5 240h174l-141 -349l174 121c91.333 62.667 143 101 155 115v-180l-95 -65c-180 -120.667 -308 -223.334 -384 -308.001c-71.333 -185.333 -124.333 -303 -159 -353s-71.667 -75 -111 -75c-30 0 -53.5 9.33301 -70.5 28s-25.5 44 -25.5 76
c0 48.667 23 114 69 196s111 171.667 195 269l39 92c-28 -26.667 -56.333 -46.167 -85 -58.5s-59 -18.5 -91 -18.5c-70 0 -123.5 21.833 -160.5 65.5s-55.5 107.167 -55.5 190.5c0 143.333 58 263.833 174 361.5s257.333 146.5 424 146.5c18.667 0 39.167 -1.5 61.5 -4.5
s57.833 -9.16699 106.5 -18.5z" />
    <glyph glyph-name="h" unicode="h" horiz-adv-x="1053" 
d="M-74 178l-0.00195312 174.004l130 111.5l120 111.5l301 721c26.667 64 53.167 111.5 79.5 142.5s53.166 46.5 80.499 46.5c22 0 39.5 -7.33301 52.5 -22s19.5 -34.667 19.5 -60c0 -62 -25.167 -150.5 -75.5 -265.5s-120.833 -244.167 -211.5 -387.5l-162 -404l332 262
c56.667 45.333 104.834 78.5 144.501 99.5s73.5 31.5 101.5 31.5c21.333 0 40 -5.83301 56 -17.5s24 -25.5 24 -41.5c0 -12.667 -9 -38 -27 -76l-14 -32l-138 -302c-4.66699 -10.667 -10.167 -22.334 -16.5 -35.001s-9.5 -19.334 -9.5 -20.001
c0 -7.33301 0.833008 -12.833 2.5 -16.5s4.16699 -5.5 7.5 -5.5c12 0 47.833 18.5 107.5 55.5s120.834 81.167 183.501 132.5v-180c-96 -70.667 -181 -124.167 -255 -160.5s-135.333 -54.5 -184 -54.5c-29.333 0 -53 6.66699 -71 20s-27 31 -27 53c0 14 2.66699 29.667 8 47
s15.666 42.666 30.999 75.999l131 289c-118 -84.667 -245.667 -187.334 -383 -308.001s-222.666 -181 -255.999 -181c-16 0 -29.833 7 -41.5 21s-17.5 30.667 -17.5 50c0 8 1.33301 17 4 27s6.66699 21 12 33l72 149c-20 -17.333 -39.167 -33 -57.5 -47
s-36.166 -26.333 -53.499 -37z" />
    <glyph glyph-name="i" unicode="i" horiz-adv-x="551" 
d="M37 262c-20 -17.333 -39.167 -33.002 -57.5 -47.002s-36.166 -26.333 -53.499 -37v174c78 65.333 142.667 121.5 194 168.5s79 75.167 83 84.5l53 116h186l-204 -451l-25 -55c0 -7.33301 0.666992 -12.833 2 -16.5s3.33301 -5.5 6 -5.5c13.333 0 50 18.333 110 55
s121 81 183 133v-180c-96 -71.333 -181 -125 -255 -161s-135.667 -54 -185 -54c-29.333 0 -52.333 6.83301 -69 20.5s-25 31.834 -25 54.501c0 16 2.66699 35.833 8 59.5s12.666 47.834 21.999 72.501zM422 841.998c-31.333 0 -55.499 8.16602 -72.499 24.499
s-25.5 39.5 -25.5 69.5c0 40.667 12.167 74.334 36.5 101.001s55.166 40 92.499 40c30 0 53.167 -8 69.5 -24s24.5 -38.667 24.5 -68c0 -41.333 -11.833 -75.5 -35.5 -102.5s-53.5 -40.5 -89.5 -40.5z" />
    <glyph glyph-name="j" unicode="j" horiz-adv-x="623" 
d="M469 842c-31.333 0 -55.167 7.99902 -71.5 23.999s-24.5 39.333 -24.5 70c0 40.667 11.833 74.334 35.5 101.001s54.167 40 91.5 40c30 0 53.167 -8 69.5 -24s24.5 -38.667 24.5 -68c0 -41.333 -11.833 -75.5 -35.5 -102.5s-53.5 -40.5 -89.5 -40.5zM204.999 405.999
l-135 -117.002c-37.333 -32 -66 -55.667 -86 -71s-39.333 -28.666 -58 -39.999v174c115.333 93.333 202 167.666 260 222.999s100.333 104 127 146h191l-221 -606c46 44.667 94.5 89.334 145.5 134.001s104.833 89.334 161.5 134.001v-176
c-68 -56.667 -137.167 -118 -207.5 -184s-144.5 -139.333 -222.5 -220c-48 -160 -89 -269.167 -123 -327.5s-71.667 -87.5 -113 -87.5c-29.333 0 -51.333 9.83301 -66 29.5s-22 49.167 -22 88.5c0 58.667 16 123 48 193s80.333 147 145 231z" />
    <glyph glyph-name="k" unicode="k" horiz-adv-x="1053" 
d="M37 262c-20 -17.333 -39.1709 -33.0039 -57.5039 -47.0039s-36.166 -26.333 -53.499 -37v174l130 111.5l120 111.5l324 775c19.333 45.333 40.5 79.833 63.5 103.5s46.833 35.5 71.5 35.5c23.333 0 41.5 -7.66699 54.5 -23s19.5 -36.333 19.5 -63
c0 -64 -25 -153 -75 -267s-120.667 -242.667 -212 -386l-84 -211c68.667 70 134.834 121.833 198.501 155.5s127.834 50.5 192.501 50.5c60 0 108.5 -15.667 145.5 -47s55.5 -72.333 55.5 -123c0 -64.667 -31.167 -126.167 -93.5 -184.5s-150.166 -107.833 -263.499 -148.5
c-4 -14.667 -6.66699 -25.167 -8 -31.5s-2 -12.166 -2 -17.499c0 -11.333 4.16699 -19.666 12.5 -24.999s21.166 -8 38.499 -8c37.333 0 93.5 20.167 168.5 60.5s152.167 93.833 231.5 160.5v-180c-97.333 -72.667 -185.166 -127 -263.499 -163s-147.5 -54 -207.5 -54
c-53.333 0 -95 13 -125 39s-45 62 -45 108c0 22.667 5.66699 51.667 17 87s30 82 56 140c76.667 13.333 140.667 39.333 192 78s77 77.667 77 117c0 12.667 -3.5 22 -10.5 28s-17.833 9 -32.5 9c-38 0 -91 -28.5 -159 -85.5s-142 -135.833 -222 -236.5
c-32.667 -40 -69.334 -93 -110.001 -159c-51.333 -82 -96 -123 -134 -123c-27.333 0 -48.5 6 -63.5 18s-22.5 29 -22.5 51c0 8.66699 2.33301 20.334 7 35.001s13.334 37.334 26.001 68.001z" />
    <glyph glyph-name="l" unicode="l" horiz-adv-x="551" 
d="M68 287c-25.333 -22 -49.835 -41.999 -73.502 -59.999s-46.5 -34.333 -68.5 -49v174l135.5 116.5c40.333 36.333 75.833 70.5 106.5 102.5l248 709c26 73.333 50.333 125.166 73 155.499s48 45.5 76 45.5c20.667 0 36.834 -9.5 48.501 -28.5s17.5 -45.833 17.5 -80.5
c0 -71.333 -20.333 -161.5 -61 -270.5s-107 -250.833 -199 -425.5l-135 -408l-2 -4c-7.33301 -21.333 -11 -37.666 -11 -48.999c0 -8 0.833008 -13.333 2.5 -16s4.16699 -4 7.5 -4c11.333 0 45.333 18.167 102 54.5s116.334 80.166 179.001 131.499v-180
c-94.667 -70.667 -177 -123.167 -247 -157.5s-128.333 -51.5 -175 -51.5c-26.667 0 -47.334 8 -62.001 24s-22 38.667 -22 68c0 17.333 1.83301 35.5 5.5 54.5s8.83398 36.5 15.501 52.5z" />
    <glyph glyph-name="m" unicode="m" horiz-adv-x="1442" 
d="M524 602c54 45.333 101.998 79.5029 143.998 102.503s78 34.5 108 34.5c20 0 37 -6 51 -18s21 -27 21 -45c0 -14.667 -8.66699 -44 -26 -88c-3.33301 -7.33301 -5.66602 -13 -6.99902 -17l-70 -172l230 203c49.333 44 96 77.833 140 101.5s81.333 35.5 112 35.5
c21.333 0 40 -6 56 -18s24 -25.667 24 -41c0 -12.667 -9 -38.334 -27 -77.001l-14 -31l-140 -302l-18 -39.5c-4 -9 -6 -14.167 -6 -15.5c0 -7.33301 0.833008 -12.833 2.5 -16.5s4.16699 -5.5 7.5 -5.5c12.667 0 48.834 18.333 108.501 55s120.5 81 182.5 133v-180
c-96 -70.667 -181 -124.167 -255 -160.5s-135 -54.5 -183 -54.5c-30 0 -54 6.66699 -72 20s-27 31 -27 53c0 14 2.66699 29.667 8 47s15.666 42.666 30.999 75.999l131 289c-108 -81.333 -220.833 -181.5 -338.5 -300.5s-190.5 -178.5 -218.5 -178.5
c-18.667 0 -34.5 6.5 -47.5 19.5s-19.5 28.833 -19.5 47.5c0 19.333 18 69 54 149l1 1l117 262c-91.333 -74.667 -199.333 -174.834 -324 -300.501s-208.667 -188.5 -252 -188.5c-16 0 -29.833 7 -41.5 21s-17.5 30.667 -17.5 50c0 8 1.33301 17 4 27s6.66699 21 12 33
l72 149c-20 -17.333 -39.167 -33 -57.5 -47s-36.166 -26.333 -53.499 -37v174c78 65.333 142.667 121.5 194 168.5s79 75.167 83 84.5l53 116h186l-151 -320z" />
    <glyph glyph-name="n" unicode="n" horiz-adv-x="1053" 
d="M-74 178l-0.00292969 174.004c78 65.333 142.667 121.5 194 168.5s79 75.167 83 84.5l53 116h186l-151 -320c152 122.667 270 209.667 354 261s149 77 195 77c20.667 0 38.834 -5.83301 54.501 -17.5s23.5 -25.5 23.5 -41.5c0 -12.667 -9 -38 -27 -76l-14 -32l-138 -302
c-4.66699 -10.667 -10.167 -22.334 -16.5 -35.001s-9.5 -19.334 -9.5 -20.001c0 -7.33301 0.833008 -12.833 2.5 -16.5s4.16699 -5.5 7.5 -5.5c12 0 47.833 18.5 107.5 55.5s120.834 81.167 183.501 132.5v-180c-96 -70.667 -181 -124.167 -255 -160.5
s-135.333 -54.5 -184 -54.5c-29.333 0 -53 6.66699 -71 20s-27 31 -27 53c0 14 2.66699 29.667 8 47s15.666 42.666 30.999 75.999l131 289c-118 -84.667 -245.667 -187.334 -383 -308.001s-222.666 -181 -255.999 -181c-16 0 -29.833 7 -41.5 21s-17.5 30.667 -17.5 50
c0 8 1.33301 17 4 27s6.66699 21 12 33l72 149c-20 -17.333 -39.167 -33 -57.5 -47s-36.166 -26.333 -53.499 -37z" />
    <glyph glyph-name="o" unicode="o" horiz-adv-x="735" 
d="M373 248c-14 16.667 -24 32.667 -30 48s-9 31.333 -9 48c0 44 12.667 81 38 111s58.333 47 99 51c-12 43.333 -27.333 75 -46 95s-43 30 -73 30c-56 0 -109.5 -35.167 -160.5 -105.5s-76.5 -145.833 -76.5 -226.5c0 -44 9.5 -78.167 28.5 -102.5s45.5 -36.5 79.5 -36.5
c26.667 0 53.5 7.83301 80.5 23.5s50.167 37.167 69.5 64.5zM582 334c3.33301 -0.666992 7.16895 -1.16699 11.502 -1.5s9.16602 -0.5 14.499 -0.5c20.667 0 62.334 26 125.001 78l2 1v-178c-26.667 -25.333 -51.834 -43.5 -75.501 -54.5s-49.5 -16.5 -77.5 -16.5
c-6 0 -13.5 0.666992 -22.5 2s-24.833 4 -47.5 8c-31.333 -58.667 -74.666 -104.334 -129.999 -137.001s-116.333 -49 -183 -49c-88 0 -156.5 24.5 -205.5 73.5s-73.5 117.167 -73.5 204.5c0 142.667 46.167 266.834 138.5 372.501s199.166 158.5 320.499 158.5
c74 0 134.833 -20.833 182.5 -62.5s71.5 -93.167 71.5 -154.5c0 -27.333 -5.33301 -49.5 -16 -66.5s-26.334 -29.833 -47.001 -38.5c9.33301 -8 16.333 -18 21 -30s7 -26.667 7 -44c0 -10 -1.33301 -20.167 -4 -30.5s-6.66699 -21.833 -12 -34.5z" />
    <glyph glyph-name="p" unicode="p" horiz-adv-x="1063" 
d="M1026 381l-0.000976562 -180.001c-91.333 -68 -167.666 -116.833 -228.999 -146.5s-116 -44.5 -164 -44.5c-13.333 0 -29.5 1.33301 -48.5 4s-38.833 6 -59.5 10c-29.333 -13.333 -54.333 -23 -75 -29s-39.667 -9 -57 -9c-34 0 -64.333 11.833 -91 35.5
s-40 51.167 -40 82.5c0 16 3.83301 27.167 11.5 33.5s21.5 9.5 41.5 9.5c5.33301 0 14.666 -1 27.999 -3s24 -3 32 -3c27.333 0 54.333 9.5 81 28.5s58.334 51.833 95.001 98.5c43.333 56 76.333 105.667 99 149s34 77.666 34 102.999c0 13.333 -5.16699 24.5 -15.5 33.5
s-22.166 13.5 -35.499 13.5c-46.667 0 -117.5 -48.167 -212.5 -144.5s-167.5 -202.5 -217.5 -318.5c-25.333 -56 -49.333 -117.833 -72 -185.5s-43.667 -138.834 -63 -213.501c-5.33301 -20 -12.333 -47.667 -21 -83c-36.667 -148 -81 -222 -133 -222
c-23.333 0 -42.833 9.33301 -58.5 28s-23.5 42 -23.5 70c0 54 25.167 154 75.5 300s122.166 326.667 215.499 542c-38.667 -38 -74.5 -70.5 -107.5 -97.5s-62.833 -48.5 -89.5 -64.5v174c87.333 74.667 161.166 140.5 221.499 197.5s92.5 90.833 96.5 101.5l28 70h150
l-57 -172c62.667 64.667 119.334 111.834 170.001 141.501s99.667 44.5 147 44.5c56.667 0 103.667 -18.333 141 -55s56 -83 56 -139c0 -53.333 -17.167 -113.666 -51.5 -180.999s-80.833 -130.666 -139.5 -189.999c42 13.333 92.833 38.5 152.5 75.5
s121.5 82.167 185.5 135.5z" />
    <glyph glyph-name="q" unicode="q" horiz-adv-x="909" 
d="M682 494l-366.995 -786.998c-12 -26.667 -21.833 -50.5 -29.5 -71.5s-11.5 -35.5 -11.5 -43.5c0 -9.33301 2.66699 -17 8 -23s11.666 -9 18.999 -9c49.333 0 102.833 60.333 160.5 181s99.167 272 124.5 454c54 25.333 104.667 53.333 152 84s92 64.667 134 102v-180
c-34.667 -26.667 -68.334 -50.5 -101.001 -71.5s-64.334 -39.5 -95.001 -55.5c-6.66699 -200.667 -50.667 -363.167 -132 -487.5s-181.333 -186.5 -300 -186.5c-47.333 0 -84.166 13.167 -110.499 39.5s-39.5 62.833 -39.5 109.5c0 47.333 20.333 114.666 61 201.999l9 20
l131 280c-27.333 -23.333 -53.5 -40 -78.5 -50s-52.167 -15 -81.5 -15c-64.667 0 -115.334 22.167 -152.001 66.5s-55 106.833 -55 187.5c0 144 58 264.167 174 360.5s260.333 144.5 433 144.5c48 0 90.833 -3.66699 128.5 -11s72.5 -19.333 104.5 -36v-172
c-42.667 27.333 -83.334 47.5 -122.001 60.5s-77.334 19.5 -116.001 19.5c-114.667 0 -211.834 -32.833 -291.501 -98.5s-119.5 -145.5 -119.5 -239.5c0 -30.667 5.83301 -55.334 17.5 -74.001s26.834 -28 45.501 -28c51.333 0 105.833 29.333 163.5 88
s109.167 138.667 154.5 240h182z" />
    <glyph glyph-name="r" unicode="r" horiz-adv-x="791" 
d="M-74 178l-0.00292969 173.997c71.333 56.667 130.333 109 177 157s80.667 91.333 102 130c-14.667 21.333 -25.167 40 -31.5 56s-9.5 31.333 -9.5 46c0 34 9.83301 62 29.5 84s44.5 33 74.5 33c33.333 0 59 -11.167 77 -33.5s28.667 -56.166 32 -101.499
c4 0 10 0.333008 18 1c30 2 50.667 3 62 3c58.667 0 101.334 -8.16699 128.001 -24.5s40 -42.166 40 -77.499c0 -14.667 -3 -32 -9 -52s-14.667 -42.333 -26 -67l-113 -236l-12 -24c-9.33301 -18.667 -14 -29 -14 -31c0 -7.33301 0.833008 -12.833 2.5 -16.5
s4.16699 -5.5 7.5 -5.5c12.667 0 48.667 18.333 108 55s120.333 81 183 133v-180c-92 -68 -175.167 -120.833 -249.5 -158.5s-131.166 -56.5 -170.499 -56.5c-40 0 -70.833 8.83301 -92.5 26.5s-32.5 42.834 -32.5 75.501c0 33.333 23.333 95.333 70 186
c6 12 10.667 21 14 27l108 211c4.66699 10 8 18.167 10 24.5s3 11.833 3 16.5c0 9.33301 -2.83301 15.833 -8.5 19.5s-16.5 5.5 -32.5 5.5c-3.33301 0 -9.5 -0.5 -18.5 -1.5s-15.833 -1.5 -20.5 -1.5c-56.667 -80 -118.167 -152.333 -184.5 -217
s-140.166 -124.667 -221.499 -180z" />
    <glyph glyph-name="s" unicode="s" horiz-adv-x="705" 
d="M-74 352c76 60 144.162 122.165 204.495 186.498s114.5 132.5 162.5 204.5c4.66699 74.667 18.334 131.334 41.001 170.001s53.334 58 92.001 58c27.333 0 48.833 -8.66699 64.5 -26s23.5 -41.666 23.5 -72.999c0 -23.333 -5 -45.833 -15 -67.5s-26 -43.834 -48 -66.501
c3.33301 -53.333 5.83301 -97 7.5 -131s2.5 -63.667 2.5 -89c0 -74 -5.33301 -136.5 -16 -187.5s-28 -96.833 -52 -137.5c44.667 22.667 89.167 49.334 133.5 80.001s90.833 66.667 139.5 108v-180c-85.333 -62 -162.666 -107.667 -231.999 -137s-134 -44 -194 -44h-13
c-19.333 -10.667 -38.666 -18.334 -57.999 -23.001s-41.666 -7 -66.999 -7c-40.667 0 -72 10.167 -94 30.5s-33 49.833 -33 88.5c0 18.667 3.16699 30.834 9.5 36.501s19.833 8.5 40.5 8.5c12.667 0 31.667 -2.5 57 -7.5s44.333 -7.5 57 -7.5c46.667 0 82.667 30.667 108 92
s38 149 38 263v24c-38 -58.667 -85.5 -115 -142.5 -169s-129.167 -111 -216.5 -171v174z" />
    <glyph glyph-name="t" unicode="t" horiz-adv-x="573" 
d="M258 270c-3.33301 -8 -5.83496 -16.166 -7.50195 -24.499s-2.5 -16.5 -2.5 -24.5s0.666992 -13.667 2 -17s3.33301 -5 6 -5c12.667 0 47 17.667 103 53s114.667 78.333 176 129v-180c-92 -68 -175.167 -120.833 -249.5 -158.5s-131.166 -56.5 -170.499 -56.5
c-31.333 0 -55.666 7.33301 -72.999 22s-26 35.334 -26 62.001c0 15.333 2.66699 33.166 8 53.499s14.333 48.166 27 83.499l39 104c-34.667 -32 -65.167 -58.667 -91.5 -80s-50.5 -39 -72.5 -53v174l197.5 173c49.667 45.333 76.167 72 79.5 80l102 251h-158l52 133h157
c46.667 156 87.834 265.667 123.501 329s72.5 95 110.5 95c21.333 0 38.166 -7.83301 50.499 -23.5s18.5 -37.167 18.5 -64.5c0 -32 -23.667 -103.667 -71 -215c-22 -50.667 -39 -91 -51 -121h147l-51 -133h-148z" />
    <glyph glyph-name="u" unicode="u" horiz-adv-x="1053" 
d="M-74 178l-0.00390625 174.003c78 65.333 142.667 121.5 194 168.5s79 75.167 83 84.5l53 116h184l-227 -467c-3.33301 -6.66699 -5.83301 -12.834 -7.5 -18.501s-2.5 -10.5 -2.5 -14.5c0 -2.66699 0.666992 -4.66699 2 -6s3.33301 -2 6 -2
c34.667 0 109.334 49.167 224.001 147.5s227 218.5 337 360.5h180l-213 -451c-4.66699 -10.667 -10.167 -22.334 -16.5 -35.001s-9.5 -19.334 -9.5 -20.001c0 -7.33301 0.833008 -12.833 2.5 -16.5s4.16699 -5.5 7.5 -5.5c12 0 47.833 18.5 107.5 55.5
s120.834 81.167 183.501 132.5v-180c-93.333 -70 -177.666 -123.333 -252.999 -160s-138 -55 -188 -55c-27.333 0 -49.166 6.5 -65.499 19.5s-24.5 30.167 -24.5 51.5c0 12 3 29.667 9 53s14 47.333 24 72l62 154c-102 -104.667 -203.5 -189.167 -304.5 -253.5
s-178.5 -96.5 -232.5 -96.5c-23.333 0 -40.833 6.66699 -52.5 20s-17.5 34 -17.5 62c0 11.333 1.16699 22.833 3.5 34.5s6.16602 24.167 11.499 37.5l51 122c-20 -17.333 -39.167 -33 -57.5 -47s-36.166 -26.333 -53.499 -37z" />
    <glyph glyph-name="v" unicode="v" horiz-adv-x="842" 
d="M37 262c-20 -17.333 -39.166 -32.998 -57.499 -46.998s-36.166 -26.333 -53.499 -37v174c78 65.333 142.667 121.5 194 168.5s79 75.167 83 84.5l53 116h186l-223 -475c-4.66699 -10 -8.16699 -20.167 -10.5 -30.5s-3.5 -20.833 -3.5 -31.5c0 -14 3 -24 9 -30
s16 -9 30 -9c29.333 0 64.833 16.167 106.5 48.5s87.167 79.166 136.5 140.499c23.333 123.333 56.166 220.333 98.499 291s88.166 106 137.499 106c21.333 0 38.333 -7.33301 51 -22s19 -34.667 19 -60c0 -41.333 -9.33301 -87 -28 -137s-47.667 -108 -87 -174
c11.333 -2.66699 19.333 -4.33398 24 -5.00098s9 -1 13 -1c20 0 58.667 23.667 116 71l11 9v-179c-27.333 -25.333 -52.833 -43.5 -76.5 -54.5s-49.5 -16.5 -77.5 -16.5c-21.333 0 -41 2.33301 -59 7s-36 11.667 -54 21c-65.333 -72 -127 -123.667 -185 -155
s-119.667 -47 -185 -47c-62.667 0 -110.5 13 -143.5 39s-49.5 63.333 -49.5 112c0 15.333 2.16699 33.333 6.5 54s10.5 43.667 18.5 69z" />
    <glyph glyph-name="w" unicode="w" horiz-adv-x="1229" 
d="M653 229c0 -0.666992 -0.339844 -1.99805 -1.00684 -3.99805c-7.33301 -21.333 -11 -38.333 -11 -51c0 -8 3.16699 -14.5 9.5 -19.5s14.833 -7.5 25.5 -7.5c24 0 54.333 14.5 91 43.5s74 68.5 112 118.5c10.667 121.333 38.834 222 84.501 302s94.5 120 146.5 120
c21.333 0 38.333 -7.33301 51 -22s19 -34.667 19 -60c0 -42 -10.167 -90 -30.5 -144s-49.166 -109.667 -86.499 -167c9.33301 -2 17 -3.5 23 -4.5s11.333 -1.5 16 -1.5c20.667 0 59.334 23.667 116.001 71l11 9v-179c-27.333 -25.333 -52.666 -43.5 -75.999 -54.5
s-49.333 -16.5 -78 -16.5c-21.333 0 -41 2.33301 -59 7s-35.667 11.667 -53 21c-68.667 -72.667 -130 -124.5 -184 -155.5s-109 -46.5 -165 -46.5c-46 0 -80.833 11.667 -104.5 35s-39.167 62 -46.5 116c-45.333 -48 -94.5 -85.167 -147.5 -111.5
s-104.833 -39.5 -155.5 -39.5c-46.667 0 -82.667 13.167 -108 39.5s-38 63.5 -38 111.5c0 16 1.83301 33.667 5.5 53s9.5 42.666 17.5 69.999c-20 -17.333 -39.167 -33 -57.5 -47s-36.166 -26.333 -53.499 -37v174c78 65.333 142.667 121.5 194 168.5s79 75.167 83 84.5
l53 116h186l-223 -475c-6 -12.667 -10.5 -25 -13.5 -37s-4.5 -22.333 -4.5 -31c0 -10.667 2.16699 -18.5 6.5 -23.5s11.5 -7.5 21.5 -7.5c36.667 0 80.334 24.833 131.001 74.5s103.334 119.167 158.001 208.5c17.333 28 38 64.333 62 109c46 84.667 86 127 120 127
c19.333 0 35.833 -4.83301 49.5 -14.5s20.5 -20.834 20.5 -33.501c0 -10.667 -1 -21.5 -3 -32.5s-6.33301 -26.5 -13 -46.5z" />
    <glyph glyph-name="x" unicode="x" horiz-adv-x="1008" 
d="M-25 2l398 403.999l4 65v10c0 14.667 -2 25.834 -6 33.501s-9.66699 11.5 -17 11.5c-13.333 0 -66.166 -42.167 -158.499 -126.5s-182.166 -158.166 -269.499 -221.499v174l159 136c192.667 166 320.667 249 384 249c35.333 0 60.166 -11.5 74.499 -34.5
s21.5 -63.833 21.5 -122.5v-17l154 158h196l-350 -361v-116c0 -33.333 3 -56.333 9 -69s16 -19 30 -19c24 0 70.833 21 140.5 63s144.5 96 224.5 162v-180c-100 -73.333 -186.333 -127.5 -259 -162.5s-135.334 -52.5 -188.001 -52.5c-49.333 0 -85.833 16.167 -109.5 48.5
s-35.5 82.166 -35.5 149.499v9l-184 -191h-218z" />
    <glyph glyph-name="y" unicode="y" horiz-adv-x="965" 
d="M41 268c-19.333 -18 -38.3262 -34.3281 -56.9932 -48.9951s-38 -28.334 -58 -41.001v174c78 65.333 142.667 121.5 194 168.5s79 75.167 83 84.5l53 116h166l-211 -453c-0.666992 -1.33301 -1.33398 -3 -2.00098 -5c-5.33301 -14.667 -8 -23 -8 -25
c0 -2.66699 0.666992 -4.83398 2 -6.50098s2.66602 -2.5 3.99902 -2.5c23.333 0 87.666 48.167 192.999 144.5s213 212.166 323 347.499h162l-262 -571l117 89.5l186 141.5v-180c-100.667 -74.667 -187.834 -141.834 -261.501 -201.501s-139.5 -116.167 -197.5 -169.5
c-49.333 -149.333 -96.333 -260 -141 -332s-88.334 -108 -131.001 -108c-24.667 0 -44.834 8.66699 -60.501 26s-23.5 39.333 -23.5 66c0 56.667 20.833 124.167 62.5 202.5s100.5 160.166 176.5 245.499l87 199l89 205c-110.667 -106 -210.334 -189.833 -299.001 -251.5
s-151.334 -92.5 -188.001 -92.5c-18.667 0 -34 7 -46 21s-18 32.333 -18 55c0 24 5.33301 52.5 16 85.5s27.334 71.833 50.001 116.5z" />
    <glyph glyph-name="z" unicode="z" horiz-adv-x="932" 
d="M301 -186c-89.333 -50.667 -156 -95.001 -200 -133.001s-66 -70.333 -66 -97c0 -13.333 3.16699 -23.166 9.5 -29.499s16.166 -9.5 29.499 -9.5c31.333 0 69.333 25.5 114 76.5s82.334 115.167 113.001 192.5zM328 115.999
c-20 -7.33301 -38.501 -12.8311 -55.501 -16.498s-32.833 -5.5 -47.5 -5.5c-30.667 0 -53 5.66699 -67 17s-21 29.666 -21 54.999c0 32.667 16.667 60 50 82s76 33 128 33c10 0 29.667 -1.33301 59 -4c6 0 10.333 -0.333008 13 -1c54 41.333 95.5 84.166 124.5 128.499
s43.5 86.166 43.5 125.499c0 22 -6.5 39.833 -19.5 53.5s-29.833 20.5 -50.5 20.5c-43.333 0 -126.333 -55.5 -249 -166.5s-226 -197.5 -310 -259.5v174c52 42 119.667 101.333 203 178c169.333 156 302.333 234 399 234c66.667 0 119.5 -19.5 158.5 -58.5
s58.5 -91.833 58.5 -158.5c0 -56 -20.5 -113.167 -61.5 -171.5s-101.5 -116.5 -181.5 -174.5c8 -13.333 14.5 -27 19.5 -41s8.83301 -28.333 11.5 -43c60 39.333 120 81 180 125s120 90.333 180 139v-180l-147.5 -108.5l-217.5 -149.5
c-41.333 -160 -107.666 -290.5 -198.999 -391.5s-185.333 -151.5 -282 -151.5c-52.667 0 -93.167 13.167 -121.5 39.5s-42.5 64.5 -42.5 114.5c0 66.667 31.667 131.834 95 195.501s186 147.834 368 252.501c1.33301 7.33301 2.33301 13.666 3 18.999s1 10 1 14
c0 12.667 -1.83301 25.667 -5.5 39s-9.16699 27.333 -16.5 42z" />
    <glyph glyph-name="braceleft" unicode="{" 
d="M866 1327l-40.998 -0.00292969c-80 0 -133.667 -14.833 -161 -44.5s-41 -91.167 -41 -184.5v-242c0 -106.667 -14.833 -182.667 -44.5 -228s-81.834 -78 -156.501 -98c75.333 -18.667 127.666 -50.667 156.999 -96s44 -121.666 44 -228.999v-242
c0 -94 13.833 -155.667 41.5 -185s81.834 -44 162.501 -44h39v-148h-43c-72 0 -128.333 3.83301 -169 11.5s-75 20.167 -103 37.5c-36.667 22.667 -62.5 55 -77.5 97s-22.5 112.333 -22.5 211v245c0 99.333 -18.167 169.333 -54.5 210s-98.166 61 -185.499 61
c-4.66699 0 -11.834 -0.333008 -21.501 -1s-16.834 -1 -21.501 -1v149c5.33301 0 13 -0.333008 23 -1s17.333 -1 22 -1c86.667 0 148 20.167 184 60.5s54 109.5 54 207.5v246c0 98.667 7.5 168.834 22.5 210.501s40.833 73.834 77.5 96.501c30 18.667 66.167 32 108.5 40
s98.833 12 169.5 12h37v-150z" />
    <glyph glyph-name="bar" unicode="|" 
d="M588 1565v-2048h-150v2048h150z" />
    <glyph glyph-name="braceright" unicode="}" 
d="M575 1118l-0.000976562 -245.997c0 -98 18 -167.167 54 -207.5s97.333 -60.5 184 -60.5c4.66699 0 12 0.333008 22 1s17.667 1 23 1v-149c-4.66699 0 -12 0.333008 -22 1s-17 1 -21 1c-88 0 -150 -20.167 -186 -60.5s-54 -110.5 -54 -210.5v-245
c0 -98.667 -7.5 -169 -22.5 -211s-40.833 -74.333 -77.5 -97c-28 -17.333 -62.333 -29.833 -103 -37.5s-97 -11.5 -169 -11.5h-43v148h39c80 0 134 15 162 45s42 92 42 186v240c0 106.667 14.833 182.667 44.5 228s81.834 77.666 156.501 96.999
c-74.667 20 -126.834 52.667 -156.501 98s-44.5 121.333 -44.5 228v242c0 93.333 -14 154.833 -42 184.5s-82 44.5 -162 44.5h-39v150h37c71.333 0 128.333 -4.16699 171 -12.5s78.334 -21.5 107.001 -39.5c36.667 -22.667 62.5 -54.834 77.5 -96.501
s22.5 -111.834 22.5 -210.501z" />
    <glyph glyph-name="asciitilde" unicode="~" horiz-adv-x="1706" 
d="M1530 614c-69.333 -48 -135.669 -83.501 -199.002 -106.501s-126.666 -34.5 -189.999 -34.5c-62 0 -147.333 19.333 -256 58c-14.667 5.33301 -26 9.33301 -34 12l-15 5c-117.333 40 -208.333 60 -273 60c-56 0 -114.333 -12.333 -175 -37s-130.667 -64.667 -210 -120
v155c70.667 48 138 84 202 108s125.667 36 185 36c41.333 0 83.833 -4.5 127.5 -13.5s98.167 -25.167 163.5 -48.5c10.667 -3.33301 26.334 -9 47.001 -17c106 -38 186 -57 240 -57c58.667 0 118.5 12.333 179.5 37s130.167 64.334 207.5 119.001v-156z" />
    <glyph glyph-name="euro" horiz-adv-x="995" 
d="M639 463l-304.995 0.000976562c-4 -18.667 -7 -37 -9 -55s-3 -36 -3 -54c0 -62 13.167 -109.167 39.5 -141.5s64.833 -48.5 115.5 -48.5c42.667 0 82.667 13 120 39s72.333 65.667 105 119l138 -86c-58.667 -84.667 -120.834 -147.5 -186.501 -188.5
s-136.834 -61.5 -213.501 -61.5c-100 0 -179.833 32.333 -239.5 97s-89.5 151 -89.5 259c0 15.333 0.666992 32 2 50s3.66602 41.667 6.99902 71h-157l39 76h133c4 16 8.66699 32.333 14 49l16 49h-149l39 76h138c63.333 145.333 145.333 259.166 246 341.499
s207.667 123.5 321 123.5c88 0 157.833 -21.667 209.5 -65s77.5 -101.666 77.5 -174.999c0 -56.667 -16.5 -104.5 -49.5 -143.5s-81.5 -68.167 -145.5 -87.5l-47 129c25.333 8 43.666 18.667 54.999 32s17 31.333 17 54c0 27.333 -10.833 48.833 -32.5 64.5
s-51.834 23.5 -90.501 23.5c-55.333 0 -113.666 -26.833 -174.999 -80.5s-115 -125.834 -161 -216.501h352l-39 -76h-346c-10.667 -25.333 -18.334 -45 -23.001 -59s-8.66699 -27 -12 -39h330z" />
    <glyph glyph-name="euro" unicode="&#x20ac;" horiz-adv-x="995" 
d="M639 463l-304.995 0.000976562c-4 -18.667 -7 -37 -9 -55s-3 -36 -3 -54c0 -62 13.167 -109.167 39.5 -141.5s64.833 -48.5 115.5 -48.5c42.667 0 82.667 13 120 39s72.333 65.667 105 119l138 -86c-58.667 -84.667 -120.834 -147.5 -186.501 -188.5
s-136.834 -61.5 -213.501 -61.5c-100 0 -179.833 32.333 -239.5 97s-89.5 151 -89.5 259c0 15.333 0.666992 32 2 50s3.66602 41.667 6.99902 71h-157l39 76h133c4 16 8.66699 32.333 14 49l16 49h-149l39 76h138c63.333 145.333 145.333 259.166 246 341.499
s207.667 123.5 321 123.5c88 0 157.833 -21.667 209.5 -65s77.5 -101.666 77.5 -174.999c0 -56.667 -16.5 -104.5 -49.5 -143.5s-81.5 -68.167 -145.5 -87.5l-47 129c25.333 8 43.666 18.667 54.999 32s17 31.333 17 54c0 27.333 -10.833 48.833 -32.5 64.5
s-51.834 23.5 -90.501 23.5c-55.333 0 -113.666 -26.833 -174.999 -80.5s-115 -125.834 -161 -216.501h352l-39 -76h-346c-10.667 -25.333 -18.334 -45 -23.001 -59s-8.66699 -27 -12 -39h330z" />
    <glyph glyph-name="nonbreakingspace" unicode="&#xa0;" horiz-adv-x="995" 
 />
    <glyph glyph-name="exclamdown" unicode="&#xa1;" horiz-adv-x="602" 
d="M477 1253c36 0 64.167 -10 84.5 -30s30.5 -48 30.5 -84c0 -50.667 -14.5 -92.667 -43.5 -126s-65.167 -50 -108.5 -50c-35.333 0 -62.833 9.66699 -82.5 29s-29.5 47 -29.5 83c0 50.667 14.333 93 43 127s64 51 106 51zM446 870l-256 -796
c-12.667 -38 -26.5 -61.167 -41.5 -69.5s-41.167 -12.5 -78.5 -12.5c-30 0 -53.333 4.16699 -70 12.5s-25 19.833 -25 34.5c0 6.66699 2.33301 17.5 7 32.5s10.667 31.5 18 49.5l319 749h127z" />
    <glyph glyph-name="cent" unicode="&#xa2;" horiz-adv-x="995" 
d="M291 215c-66 12 -116.663 39.6729 -151.996 83.0059s-53 99.666 -53 168.999c0 109.333 42.833 210.333 128.5 303s190.167 148.667 313.5 168l107 324l115 -33l-92 -283c43.333 -6 74.833 -18.5 94.5 -37.5s29.5 -46.833 29.5 -83.5c0 -22.667 -4 -47.334 -12 -74.001
s-21 -58 -39 -94h-182c14 26.667 24.333 50.167 31 70.5s10 37.833 10 52.5c0 9.33301 -3.83301 17.166 -11.5 23.499s-16.834 9.5 -27.501 9.5c-16.667 0 -41.334 -10.333 -74.001 -31s-63.334 -46.334 -92.001 -77.001c-32.667 -36 -57.834 -73.333 -75.501 -112
s-26.5 -75.334 -26.5 -110.001c0 -40.667 10.167 -70.5 30.5 -89.5s52.5 -28.5 96.5 -28.5c58 0 124.333 19.167 199 57.5s148.667 92.166 222 161.499v-183c-62 -55.333 -128.5 -99.333 -199.5 -132s-143.5 -52 -217.5 -58l-133 -395l-113 26z" />
    <glyph glyph-name="sterling" unicode="&#xa3;" horiz-adv-x="995" 
d="M145 35c-29.333 -16 -59.166 -27.833 -89.499 -35.5s-61.833 -11.5 -94.5 -11.5c-48 0 -86 9.66699 -114 29s-42 45.666 -42 78.999c0 35.333 16.167 62.333 48.5 81s79.166 28 140.499 28c18.667 0 38.667 -1.33301 60 -4s45 -7 71 -13c27.333 34 52.166 70 74.499 108
s42.5 79.333 60.5 124h-209l58 147h204c62.667 203.333 132 353.5 208 450.5s161.667 145.5 257 145.5c62.667 0 113.167 -17.333 151.5 -52s57.5 -80.667 57.5 -138c0 -35.333 -5.33301 -72.5 -16 -111.5s-27 -80.5 -49 -124.5c-30.667 -10.667 -61.167 -18.667 -91.5 -24
s-62.166 -8 -95.499 -8c28 53.333 49.333 100.333 64 141s22 72 22 94c0 18 -4.33301 31.667 -13 41s-21.334 14 -38.001 14c-40 0 -83.167 -36.5 -129.5 -109.5s-93.166 -179.167 -140.499 -318.5h221l-57 -147h-215c-17.333 -43.333 -37.833 -86.166 -61.5 -128.499
s-50.167 -84.166 -79.5 -125.499c39.333 -2 73.333 -3.5 102 -4.5s51 -1.5 67 -1.5c61.333 0 121 3.66699 179 11s116.333 18.666 175 33.999l-59 -187c-52.667 -10 -102 -17.5 -148 -22.5s-91 -7.5 -135 -7.5c-58 0 -115.5 3.83301 -172.5 11.5s-114.167 19.5 -171.5 35.5z
" />
    <glyph glyph-name="currency" unicode="&#xa4;" horiz-adv-x="995" 
d="M639 463l-304.995 0.000976562c-4 -18.667 -7 -37 -9 -55s-3 -36 -3 -54c0 -62 13.167 -109.167 39.5 -141.5s64.833 -48.5 115.5 -48.5c42.667 0 82.667 13 120 39s72.333 65.667 105 119l138 -86c-58.667 -84.667 -120.834 -147.5 -186.501 -188.5
s-136.834 -61.5 -213.501 -61.5c-100 0 -179.833 32.333 -239.5 97s-89.5 151 -89.5 259c0 15.333 0.666992 32 2 50s3.66602 41.667 6.99902 71h-157l39 76h133c4 16 8.66699 32.333 14 49l16 49h-149l39 76h138c63.333 145.333 145.333 259.166 246 341.499
s207.667 123.5 321 123.5c88 0 157.833 -21.667 209.5 -65s77.5 -101.666 77.5 -174.999c0 -56.667 -16.5 -104.5 -49.5 -143.5s-81.5 -68.167 -145.5 -87.5l-47 129c25.333 8 43.666 18.667 54.999 32s17 31.333 17 54c0 27.333 -10.833 48.833 -32.5 64.5
s-51.834 23.5 -90.501 23.5c-55.333 0 -113.666 -26.833 -174.999 -80.5s-115 -125.834 -161 -216.501h352l-39 -76h-346c-10.667 -25.333 -18.334 -45 -23.001 -59s-8.66699 -27 -12 -39h330z" />
    <glyph glyph-name="yen" unicode="&#xa5;" horiz-adv-x="995" 
d="M223 59l65.999 338.003l-17 68h-272l25 94h237l-12 129h-191l27 94h152c-2 35.333 -3.33301 72 -4 110s-1 91 -1 159v30c0 32.667 4.83301 54.667 14.5 66s30.167 18.666 61.5 21.999l41 2c2 0 5.16699 0.5 9.5 1.5s8.16602 1.5 11.499 1.5c19.333 0 33 -4.5 41 -13.5
s12 -25.167 12 -48.5c0 -1.33301 -1.33301 -25.833 -4 -73.5s-4 -94.834 -4 -141.501c0 -46 1.83301 -96 5.5 -150s9.83398 -116.667 18.501 -188c157.333 190.667 277 365 359 523c4 6.66699 6.66699 11.334 8 14.001c12.667 21.333 27.334 36.666 44.001 45.999
s39.334 15.666 68.001 18.999l29 2c4 0.666992 8 1.16699 12 1.5s8.33301 0.5 13 0.5c6 0 11.5 -2.16699 16.5 -6.5s7.5 -9.5 7.5 -15.5c0 -23.333 -17.333 -66.833 -52 -130.5s-82.667 -140.5 -144 -230.5h168l-27 -94h-209l-100 -129h276l-26 -94h-338l-70 -72l-57 -303
c-8.66699 -45.333 -23.334 -74 -44.001 -86s-56 -18 -106 -18c-20 0 -33.167 2.5 -39.5 7.5s-9.5 13.833 -9.5 26.5c0 9.33301 0.333008 16.833 1 22.5s1.66699 11.167 3 16.5z" />
    <glyph glyph-name="brokenbar" unicode="&#xa6;" 
d="M588 408v-758h-150v758h150zM588 1432v-758h-150v758h150z" />
    <glyph glyph-name="section" unicode="&#xa7;" horiz-adv-x="1147" 
d="M801 520c0 24 -7.99805 52 -23.998 84s-38.667 64.667 -68 98c-46.667 55.333 -89.834 96.166 -129.501 122.499s-77.167 39.5 -112.5 39.5c-36.667 0 -66.334 -11.167 -89.001 -33.5s-34 -52.166 -34 -89.499c0 -24 8 -51 24 -81s40.667 -63.667 74 -101
c50 -57.333 93.5 -98.666 130.5 -123.999s72.833 -38 107.5 -38c36.667 0 66 11.167 88 33.5s33 52.166 33 89.499zM668.002 270c23.333 -32.667 40.3301 -63.999 50.9971 -93.999s16 -60.667 16 -92c0 -80.667 -28.833 -144.5 -86.5 -191.5s-136.5 -70.5 -236.5 -70.5
c-92.667 0 -175 25.333 -247 76s-108 105 -108 163c0 21.333 8.5 39.333 25.5 54s37.167 22 60.5 22c25.333 0 52.666 -21 81.999 -63c11.333 -16 20.333 -27.667 27 -35c20 -23.333 44.667 -41.833 74 -55.5s58.666 -20.5 87.999 -20.5c42 0 76.667 11.167 104 33.5
s41 50.166 41 83.499c0 34.667 -11.333 71.5 -34 110.5s-72 99.833 -148 182.5l-22 23c-122 132.667 -183 243 -183 331c0 77.333 26.333 140.333 79 189s121.334 73 206.001 73h18c-20 34 -34.833 66.333 -44.5 97s-14.5 60.667 -14.5 90c0 80 28.833 143.333 86.5 190
s136.5 70 236.5 70c92.667 0 175 -25.5 247 -76.5s108 -105.5 108 -163.5c0 -20.667 -8.5 -38.5 -25.5 -53.5s-37.167 -22.5 -60.5 -22.5c-25.333 0 -52.666 21 -81.999 63c-11.333 16 -20.333 28 -27 36c-20 22.667 -44.667 40.834 -74 54.501s-58.666 20.5 -87.999 20.5
c-42 0 -76.667 -11 -104 -33s-41 -49.667 -41 -83c0 -35.333 11.333 -72.333 34 -111s72 -99.334 148 -182.001l22 -24c122 -132 183 -242.333 183 -331c0 -76 -25.5 -138.667 -76.5 -188s-115.5 -74 -193.5 -74c-11.333 0 -19.666 0.166992 -24.999 0.5
s-10.666 0.833008 -15.999 1.5z" />
    <glyph glyph-name="dieresis" unicode="&#xa8;" 
d="M625 999c0 31.333 10.5 57.6689 31.5 79.002s47.167 32 78.5 32s57.333 -10.5 78 -31.5s31 -47.5 31 -79.5c0 -30.667 -10.5 -56.334 -31.5 -77.001s-46.833 -31 -77.5 -31s-56.667 10.667 -78 32s-32 46.666 -32 75.999zM301 999.003c0 32 10.333 58.5 31 79.5
s46.667 31.5 78 31.5s57.5 -10.5 78.5 -31.5s31.5 -47.5 31.5 -79.5c0 -30 -10.667 -55.5 -32 -76.5s-47.333 -31.5 -78 -31.5s-56.5 10.5 -77.5 31.5s-31.5 46.5 -31.5 76.5z" />
    <glyph glyph-name="copyright" unicode="&#xa9;" horiz-adv-x="1706" 
d="M1053 907c-8.66699 51.333 -30.667 90.833 -66 118.5s-81.666 41.5 -138.999 41.5c-70 0 -125 -30.167 -165 -90.5s-60 -143.5 -60 -249.5c0 -104.667 20.667 -186.167 62 -244.5s99 -87.5 173 -87.5c54.667 0 100.167 15.667 136.5 47s59.166 74.333 68.499 129h145
c-6 -86.667 -41.833 -157 -107.5 -211s-148.5 -81 -248.5 -81c-121.333 0 -216.5 40 -285.5 120s-103.5 191.333 -103.5 334c0 133.333 36.333 240.833 109 322.5s168 122.5 286 122.5c94.667 0 173.5 -25 236.5 -75s98.167 -115.333 105.5 -196h-147zM1493 727
c0 86.667 -15.833 168.834 -47.5 246.501s-77.167 146.5 -136.5 206.5c-62 61.333 -131.667 108 -209 140s-159.333 48 -246 48c-86 0 -167.167 -15.667 -243.5 -47s-144.5 -77 -204.5 -137c-62 -62 -109.667 -132.5 -143 -211.5s-50 -160.833 -50 -245.5
c0 -84 16.333 -164.667 49 -242s79.667 -147 141 -209c61.333 -60.667 130.5 -107.167 207.5 -139.5s158.167 -48.5 243.5 -48.5c83.333 0 164 16.333 242 49s149 80 213 142c60 58.667 105.667 126.167 137 202.5s47 158.166 47 245.499zM852 1464
c101.333 0 196.499 -18.166 285.499 -54.499s168.5 -89.833 238.5 -160.5c69.333 -68.667 122.5 -148.167 159.5 -238.5s55.5 -184.833 55.5 -283.5c0 -99.333 -18.167 -193.166 -54.5 -281.499s-89.166 -166.5 -158.499 -234.5
c-73.333 -71.333 -155.166 -126 -245.499 -164s-183.833 -57 -280.5 -57s-189.5 18.667 -278.5 56s-168.833 91.666 -239.5 162.999c-70.667 70 -124.5 149.5 -161.5 238.5s-55.5 182.167 -55.5 279.5c0 98 18.667 191.833 56 281.5s91.666 170.5 162.999 242.5
c69.333 69.333 148 122.166 236 158.499s181.333 54.5 280 54.5z" />
    <glyph glyph-name="ordfeminine" unicode="&#xaa;" horiz-adv-x="680" 
d="M532 1366c-22 9.33301 -43.667 16.499 -65 21.499s-42.666 7.5 -63.999 7.5c-86 0 -159 -23 -219 -69s-90 -101.667 -90 -167c0 -22 4.33301 -39.5 13 -52.5s20 -19.5 34 -19.5c38.667 0 79.5 20.667 122.5 62s81.5 97.333 115.5 168h131l-66 -158
c-4 -9.33301 -7.33301 -18.5 -10 -27.5s-4 -16.167 -4 -21.5c0 -1.33301 0.5 -2.33301 1.5 -3s1.83301 -1 2.5 -1c10 0 37 12.833 81 38.5s89.333 56.5 136 92.5v-125c-70 -48.667 -132.5 -86 -187.5 -112s-97.5 -39 -127.5 -39c-19.333 0 -33 4.83301 -41 14.5
s-12 25.834 -12 48.501v8c-36.667 -26.667 -68 -45.167 -94 -55.5s-52 -15.5 -78 -15.5c-52.667 0 -92.5 15 -119.5 45s-40.5 74.333 -40.5 133c0 100 43.333 184.333 130 253s192.667 103 318 103c21.333 0 55.333 -4 102 -12c11.333 -2 19.666 -3.33301 24.999 -4z" />
    <glyph glyph-name="guillemotleft" unicode="&#xab;" horiz-adv-x="1038" 
d="M657 90l-202 309l329 308h170l-329 -308l202 -309h-170zM301 90l-203 309l330 308h170l-330 -308l205 -309h-172z" />
    <glyph glyph-name="logicalnot" unicode="&#xac;" horiz-adv-x="1706" 
d="M1452 860v-502h-137v363h-1061v139h1198z" />
    <glyph glyph-name="sfthyphen" unicode="&#xad;" horiz-adv-x="778" 
d="M92 287l68 172h454l-67 -172h-455z" />
    <glyph glyph-name="registered" unicode="&#xae;" horiz-adv-x="1706" 
d="M844 1057l-129 -0.000976562v-277h133c75.333 0 129.333 10.5 162 31.5s49 54.833 49 101.5c0 50.667 -17 87.334 -51 110.001s-88.667 34 -164 34zM872 1159c116 0 203.167 -19.168 261.5 -57.501s87.5 -95.5 87.5 -171.5c0 -59.333 -16.667 -108.666 -50 -147.999
s-80.333 -65 -141 -77l187 -381h-177l-170 356h-155v-356h-158v835h315zM1493 720.998c0 89.333 -15.5 173 -46.5 251s-76.167 146.667 -135.5 206c-61.333 62 -130.833 109.167 -208.5 141.5s-160.5 48.5 -248.5 48.5c-86.667 0 -168.334 -15.667 -245.001 -47
s-143.667 -76.333 -201 -135c-62.667 -63.333 -110.834 -134.666 -144.501 -213.999s-50.5 -161 -50.5 -245c0 -83.333 16.167 -163.5 48.5 -240.5s78.833 -146.167 139.5 -207.5c60 -61.333 128.833 -108.5 206.5 -141.5s157.834 -49.5 240.501 -49.5
c86.667 0 168.834 16 246.501 48s148.5 78.667 212.5 140c60 58.667 106 126.167 138 202.5s48 157.166 48 242.499zM852 1464c100.667 0 195.999 -18.6689 285.999 -56.002s170 -91.666 240 -162.999c68.667 -69.333 121.334 -148.666 158.001 -237.999
s55 -182.666 55 -279.999c0 -100.667 -18.333 -195.167 -55 -283.5s-90 -166.5 -160 -234.5c-72.667 -70.667 -154.167 -124.834 -244.5 -162.501s-183.5 -56.5 -279.5 -56.5c-98 0 -191.5 18.833 -280.5 56.5s-168.833 92.5 -239.5 164.5
c-70 70.667 -123.333 150.167 -160 238.5s-55 180.833 -55 277.5c0 97.333 19.167 191.5 57.5 282.5s93.5 172.833 165.5 245.5c67.333 68.667 144.5 120.667 231.5 156s180.5 53 280.5 53z" />
    <glyph glyph-name="macron" unicode="&#xaf;" 
d="M295 932l29 141h528l-31 -141h-526z" />
    <glyph glyph-name="degree" unicode="&#xb0;" horiz-adv-x="674" 
d="M530 1169c0 54 -18.5 99.667 -55.5 137s-82.5 56 -136.5 56s-100 -18.667 -138 -56s-57 -83 -57 -137s19 -100.167 57 -138.5s84 -57.5 138 -57.5s99.5 19.167 136.5 57.5s55.5 84.5 55.5 138.5zM338 1456c78.667 0 146.167 -28.167 202.5 -84.5s84.5 -124.5 84.5 -204.5
c0 -79.333 -28 -146.833 -84 -202.5s-124.333 -83.5 -205 -83.5s-148.667 27.667 -204 83s-83 123 -83 203s28.167 148.167 84.5 204.5s124.5 84.5 204.5 84.5z" />
    <glyph glyph-name="plusminus" unicode="&#xb1;" horiz-adv-x="1706" 
d="M1452 170v-141h-1198v141h1198zM924 1192v-340h528v-139h-528v-340h-142v340h-528v139h528v340h142z" />
    <glyph glyph-name="twosuperior" unicode="&#xb2;" horiz-adv-x="657" 
d="M162 586c-22 10 -41.166 17.166 -57.499 21.499s-30.833 6.5 -43.5 6.5c-16 0 -28.5 -3.16699 -37.5 -9.5s-13.5 -15.166 -13.5 -26.499c0 -12 4.16699 -21.5 12.5 -28.5s19.166 -10.5 32.499 -10.5c14 0 29 3.33301 45 10s36.667 19 62 37zM233.001 527.999
c-39.333 -23.333 -74.498 -40.333 -105.498 -51s-60.5 -16 -88.5 -16c-38.667 0 -69.834 10.333 -93.501 31s-35.5 47.667 -35.5 81c0 34.667 14.167 63.167 42.5 85.5s64.5 33.5 108.5 33.5c23.333 0 48.333 -3.66699 75 -11s56.334 -18.666 89.001 -33.999
c82.667 78 147 148.333 193 211s69 110.334 69 143.001c0 19.333 -6 34.833 -18 46.5s-28.333 17.5 -49 17.5c-24 0 -48.167 -6.33301 -72.5 -19s-50.833 -33 -79.5 -61l-19 -22c-18 -22 -34 -33 -48 -33c-4.66699 0 -9 0.666992 -13 2s-9.33301 4 -16 8l-14 10
c-10.667 6.66699 -17.5 12.167 -20.5 16.5s-4.5 9.83301 -4.5 16.5c0 9.33301 6.66699 22.833 20 40.5s31.333 36.167 54 55.5c38 31.333 75.167 54.166 111.5 68.499s74.833 21.5 115.5 21.5c56.667 0 102.334 -13.333 137.001 -40s52 -62.334 52 -107.001
c0 -52 -26.333 -115.167 -79 -189.5s-126 -151.166 -220 -230.499c35.333 -10.667 64.666 -18.5 87.999 -23.5s43.666 -7.5 60.999 -7.5c19.333 0 40.166 1.66699 62.499 5s48.5 8.66602 78.5 15.999l-24 -88c-6.66699 -19.333 -16.5 -32.333 -29.5 -39s-34.5 -10 -64.5 -10
c-38 0 -79.167 6.16699 -123.5 18.5s-90.833 30.5 -139.5 54.5z" />
    <glyph glyph-name="threesuperior" unicode="&#xb3;" horiz-adv-x="657" 
d="M66 698c14 0 24.168 -2.66797 30.501 -8.00098s10.5 -15.666 12.5 -30.999c2 -36 10.833 -61.333 26.5 -76s41.5 -22 77.5 -22c49.333 0 91 14.667 125 44s51 65.333 51 108c0 11.333 -2 22.333 -6 33s-11 22.667 -21 36c-22 -5.33301 -40.167 -9 -54.5 -11
s-27.5 -3 -39.5 -3c-25.333 0 -45.666 5.66699 -60.999 17s-23 26.666 -23 45.999c0 20 9.66699 36.333 29 49s44.666 19 75.999 19c12.667 0 35.334 -2.33301 68.001 -7c3.33301 -0.666992 6 -1 8 -1c34 20.667 59.833 41.5 77.5 62.5s26.5 41.833 26.5 62.5
c0 15.333 -4.66699 27.333 -14 36s-22.333 13 -39 13c-36 0 -75 -16 -117 -48s-66 -48 -72 -48c-4 0 -7.83301 0.666992 -11.5 2s-9.83398 4.66602 -18.501 9.99902l-13 8c-4 2.66699 -7.66699 6.83398 -11 12.501s-5 11.167 -5 16.5c0 7.33301 5.5 18 16.5 32
s25.833 28.667 44.5 44c34 25.333 68.5 44.5 103.5 57.5s69.5 19.5 103.5 19.5c50 0 91.5 -13.5 124.5 -40.5s49.5 -60.5 49.5 -100.5c0 -37.333 -12.5 -71.833 -37.5 -103.5s-62.833 -61.167 -113.5 -88.5c20 -14.667 35.167 -32.167 45.5 -52.5s15.5 -43.166 15.5 -68.499
c0 -70.667 -30.333 -131.667 -91 -183s-134 -77 -220 -77c-72.667 0 -128.334 14.5 -167.001 43.5s-58 71.167 -58 126.5c0 27.333 4 46 12 56s21.667 15 41 15h29z" />
    <glyph glyph-name="acute" unicode="&#xb4;" 
d="M520 870h-112l204 273h219z" />
    <glyph glyph-name="mu" unicode="&#xb5;" horiz-adv-x="1151" 
d="M385 1071l-128.999 -599.999c-4.66699 -21.333 -8.16699 -42.833 -10.5 -64.5s-3.5 -44.5 -3.5 -68.5c0 -66 17.333 -117 52 -153s84 -54 148 -54c88 0 157.5 30.833 208.5 92.5s92.167 165.5 123.5 311.5l115 536h178l-156 -732c-0.666992 -4 -2 -10.667 -4 -20
c-12 -58 -18 -95.333 -18 -112c0 -24.667 5.5 -42.167 16.5 -52.5s29.5 -15.5 55.5 -15.5c8 0 14.167 0.166992 18.5 0.5s8.83301 0.833008 13.5 1.5l-31 -143c-16 -3.33301 -32.667 -5.83301 -50 -7.5s-36.666 -2.5 -57.999 -2.5c-42 0 -74.333 9.66699 -97 29
s-40 52.666 -52 99.999c-30 -44 -67.5 -76.833 -112.5 -98.5s-97.833 -32.5 -158.5 -32.5c-54.667 0 -102.334 9.16699 -143.001 27.5s-78.334 47.833 -113.001 88.5l-110 -530h-181l318 1499h180z" />
    <glyph glyph-name="paragraph" unicode="&#xb6;" 
d="M958 1393h-120.002v-1393h-111v1393h-176v-1393h-113v782c-113.333 5.33301 -203.666 39.5 -270.999 102.5s-101 144.833 -101 245.5c0 104.667 35.833 189 107.5 253s166.834 96 285.501 96h499v-86z" />
    <glyph glyph-name="periodcentered" unicode="&#xb7;" horiz-adv-x="498" 
d="M88 580c0 37.333 13.333 69.5 40 96.5s59 40.5 97 40.5c39.333 0 72 -13.167 98 -39.5s39 -58.833 39 -97.5s-13.167 -71 -39.5 -97s-58.833 -39 -97.5 -39c-38 0 -70.333 13.167 -97 39.5s-40 58.5 -40 96.5z" />
    <glyph glyph-name="cedilla" unicode="&#xb8;" 
d="M76 -387l41 102c42.667 -14 81.834 -24.667 117.501 -32s67.5 -11 95.5 -11c37.333 0 65.333 6.66699 84 20s28 33.333 28 60c0 25.333 -12.5 43.333 -37.5 54s-68.5 16 -130.5 16h-22l65 178h86l-32 -86h14c68.667 0 121 -13.167 157 -39.5s54 -64.5 54 -114.5
c0 -60.667 -20.833 -108.167 -62.5 -142.5s-100.167 -51.5 -175.5 -51.5c-36.667 0 -77.834 3.83301 -123.501 11.5s-98.5 19.5 -158.5 35.5z" />
    <glyph glyph-name="onesuperior" unicode="&#xb9;" horiz-adv-x="500" 
d="M246 901c-24.667 -18 -49.1689 -32.334 -73.502 -43.001s-44.166 -16 -59.499 -16c-6.66699 0 -11.167 2.16699 -13.5 6.5s-3.5 12.833 -3.5 25.5v23c0 24.667 14.667 43.667 44 57c2.66699 1.33301 4.33398 2 5.00098 2c42.667 18.667 80.667 38.834 114 60.501
s59 42.5 77 62.5c10.667 32.667 24.167 56.667 40.5 72s36.166 23 59.499 23c18.667 0 33.334 -5.16699 44.001 -15.5s16 -24.5 16 -42.5c0 -16 -5.16699 -32.333 -15.5 -49s-26.5 -34.334 -48.5 -53.001c-40 -86.667 -80.667 -169.667 -122 -249
s-83.333 -155.333 -126 -228c-17.333 -29.333 -31.333 -48.666 -42 -57.999s-24 -14 -40 -14h-10l-100 8c51.333 70.667 98 141.5 140 212.5s80 142.833 114 215.5z" />
    <glyph glyph-name="ordmasculine" unicode="&#xba;" horiz-adv-x="551" 
d="M281 1145c-11.333 12 -19.333 23.3311 -24 33.998s-7 21.667 -7 33c0 30.667 9.5 56.334 28.5 77.001s44.167 33 75.5 37c-9.33301 30.667 -21 52.834 -35 66.501s-32.333 20.5 -55 20.5c-42 0 -82.167 -24.833 -120.5 -74.5s-57.5 -102.5 -57.5 -158.5
c0 -31.333 7.16699 -55.333 21.5 -72s34.5 -25 60.5 -25c20 0 40.167 5.5 60.5 16.5s37.833 26.167 52.5 45.5zM437 1204c3.33301 -0.666992 6.5 -1.16602 9.5 -1.49902s6.5 -0.5 10.5 -0.5c8.66699 0 19 3.5 31 10.5s33 22.833 63 47.5v-125
c-19.333 -18.667 -38 -32 -56 -40s-37.667 -12 -59 -12c-4 0 -13.667 1.66699 -29 5c-8.66699 1.33301 -15.667 2.33301 -21 3c-25.333 -41.333 -58.5 -73.333 -99.5 -96s-86.5 -34 -136.5 -34c-66 0 -117.333 17 -154 51s-55 81.667 -55 143
c0 100 34.667 187.167 104 261.5s149.333 111.5 240 111.5c55.333 0 100.833 -14.667 136.5 -44s53.5 -66 53.5 -110c0 -18 -4 -33 -12 -45s-19.333 -20.667 -34 -26c6.66699 -6 11.667 -13.167 15 -21.5s5 -18.5 5 -30.5c0 -7.33301 -1 -14.833 -3 -22.5
s-5 -15.834 -9 -24.501z" />
    <glyph glyph-name="guillemotright" unicode="&#xbb;" horiz-adv-x="1038" 
d="M655 707l203 -308l-328 -309h-172l330 309l-203 308h170zM301 707l203 -308l-330 -309h-170l328 309l-203 308h172z" />
    <glyph glyph-name="onequarter" unicode="&#xbc;" horiz-adv-x="1446" 
d="M1090 168c-26.667 4 -52.499 7.00391 -77.499 9.00391s-50.5 3 -76.5 3c-15.333 -21.333 -32 -37.5 -50 -48.5s-36.333 -16.5 -55 -16.5c-17.333 0 -30.833 4.5 -40.5 13.5s-14.5 21.5 -14.5 37.5c0 18 7.33301 34.167 22 48.5s42.334 30.833 83.001 49.5
c47.333 54 90.166 114.5 128.499 181.5s70.5 137.5 96.5 211.5h70c19.333 0 32 -1.33301 38 -4s9 -7.33398 9 -14.001c0 -28.667 -19.333 -77.167 -58 -145.5s-90.334 -143.5 -155.001 -225.5l79.5 -7.5l46.5 -4.5l52 86c52.667 91.333 91.167 150 115.5 176
s48.5 39 72.5 39c11.333 0 20 -2.33301 26 -7s9 -11.334 9 -20.001c0 -10.667 -13.333 -38 -40 -82c-22.667 -36.667 -40.667 -67.334 -54 -92.001l-64 -110c7.33301 0 16 -0.333008 26 -1s16.333 -1 19 -1c20.667 0 39.667 0.833008 57 2.5s34.333 4.16699 51 7.5l-52 -104
c-24.667 0 -49 0.5 -73 1.5s-47.667 2.16699 -71 3.5l-32 -69c-5.33301 -10.667 -11.666 -25.334 -18.999 -44.001c-20.667 -50 -50 -75 -88 -75h-20c-13.333 0 -23.5 1.66699 -30.5 5s-10.5 8 -10.5 14c0 9.33301 3.66699 23.333 11 42s18.666 42 33.999 70z
M135.001 -13.9961l873 1190h151l-872 -1190h-152zM236.001 920.004c-24 -18 -47.666 -32.165 -70.999 -42.498s-42 -15.5 -56 -15.5c-6 0 -10.333 1.83301 -13 5.5s-4 12.167 -4 25.5v22c0 13.333 2.66699 23.833 8 31.5s18.333 15.834 39 24.501c38 16 73 34.167 105 54.5
s57 40.166 75 59.499c10.667 30 24 52.333 40 67s35 22 57 22c18 0 32 -4.83301 42 -14.5s15 -22.834 15 -39.501c0 -14.667 -5 -29.834 -15 -45.501s-25.333 -32.5 -46 -50.5c-38.667 -82.667 -77.5 -160.834 -116.5 -234.501s-78.833 -143.5 -119.5 -209.5
c-16 -27.333 -29.333 -45.5 -40 -54.5s-23.334 -13.5 -38.001 -13.5h-10l-96 6c48 64.667 92.167 130.334 132.5 197.001s77.5 135 111.5 205z" />
    <glyph glyph-name="onehalf" unicode="&#xbd;" horiz-adv-x="1446" 
d="M973 113c-23.333 9.33301 -42.332 16 -56.999 20s-27.667 6 -39 6c-15.333 0 -27.166 -3 -35.499 -9s-12.5 -14.667 -12.5 -26c0 -10 4 -18.167 12 -24.5s18.333 -9.5 31 -9.5c13.333 0 27.666 3.16699 42.999 9.5s34.666 17.5 57.999 33.5zM1040 59
c-36.667 -22 -69.668 -38.001 -99.001 -48.001s-57.666 -15 -84.999 -15c-37.333 0 -67.166 9.5 -89.499 28.5s-33.5 44.167 -33.5 75.5c0 33.333 13.667 60.5 41 81.5s62.333 31.5 105 31.5c20.667 0 43.167 -3.33301 67.5 -10s53.5 -17.667 87.5 -33
c77.333 71.333 138.333 136.5 183 195.5s67 103.833 67 134.5c0 18 -5.83301 32.333 -17.5 43s-27.5 16 -47.5 16c-22 0 -44.5 -5.83301 -67.5 -17.5s-48.5 -30.5 -76.5 -56.5c-4 -4 -9.33301 -10 -16 -18c-18.667 -22 -34.334 -33 -47.001 -33
c-4.66699 0 -9 0.833008 -13 2.5s-8.66699 4.16699 -14 7.5l-16 9c-0.666992 0 -2.33398 1 -5.00098 3c-12 8.66699 -18 17.667 -18 27s6.16699 22 18.5 38s29.5 33.333 51.5 52c36.667 29.333 72.5 50.666 107.5 63.999s71.5 20 109.5 20
c54.667 0 98.334 -12.5 131.001 -37.5s49 -58.167 49 -99.5c0 -48.667 -25 -107.667 -75 -177s-120 -140.666 -210 -213.999c28.667 -9.33301 55 -16.5 79 -21.5s45.667 -7.5 65 -7.5c21.333 0 42.833 1.5 64.5 4.5s44.5 7.83301 68.5 14.5l-23 -82
c-4.66699 -17.333 -13.334 -29.166 -26.001 -35.499s-34 -9.5 -64 -9.5c-37.333 0 -77.666 5.66699 -120.999 17s-87 28 -131 50zM135 -14.001l873 1190h151l-872 -1190h-152zM236 919.999c-24 -18 -47.666 -32.165 -70.999 -42.498s-42 -15.5 -56 -15.5
c-6 0 -10.333 1.83301 -13 5.5s-4 12.167 -4 25.5v22c0 13.333 2.66699 23.833 8 31.5s18.333 15.834 39 24.501c38 16 73 34.167 105 54.5s57 40.166 75 59.499c10.667 30 24 52.333 40 67s35 22 57 22c18 0 32 -4.83301 42 -14.5s15 -22.834 15 -39.501
c0 -14.667 -5 -29.834 -15 -45.501s-25.333 -32.5 -46 -50.5c-38.667 -82.667 -77.5 -160.834 -116.5 -234.501s-78.833 -143.5 -119.5 -209.5c-16 -27.333 -29.333 -45.5 -40 -54.5s-23.334 -13.5 -38.001 -13.5h-10l-96 6c48 64.667 92.167 130.334 132.5 197.001
s77.5 135 111.5 205z" />
    <glyph glyph-name="threequarters" unicode="&#xbe;" horiz-adv-x="1595" 
d="M1239 168c-26 4 -51.501 7.00293 -76.501 9.00293s-50.833 3 -77.5 3c-14.667 -21.333 -31 -37.5 -49 -48.5s-36.333 -16.5 -55 -16.5c-17.333 0 -30.833 4.5 -40.5 13.5s-14.5 21.5 -14.5 37.5c0 18 7.33301 34.167 22 48.5s42 30.833 82 49.5
c48 54 91.167 114.5 129.5 181.5s70.166 137.5 95.499 211.5h70c19.333 0 32 -1.33301 38 -4s9 -7.33398 9 -14.001c0 -28.667 -19.333 -77.167 -58 -145.5s-90 -143.5 -154 -225.5l79 -7.5l47 -4.5l51 86c52.667 91.333 91.167 150 115.5 176s48.833 39 73.5 39
c10.667 0 19.167 -2.33301 25.5 -7s9.5 -11.334 9.5 -20.001c0 -10.667 -13.667 -38 -41 -82c-22.667 -36.667 -40.667 -67.334 -54 -92.001l-63 -110c6.66699 0 15.167 -0.333008 25.5 -1s16.833 -1 19.5 -1c20.667 0 39.5 0.833008 56.5 2.5s34.167 3.83398 51.5 6.50098
l-53 -103c-24 0 -48.167 0.5 -72.5 1.5s-47.833 2.5 -70.5 4.5l-33 -70c-5.33301 -10.667 -11.666 -25.334 -18.999 -44.001c-20 -50 -49 -75 -87 -75h-21c-13.333 0 -23.5 1.66699 -30.5 5s-10.5 8 -10.5 14c0 9.33301 3.83301 23.333 11.5 42s18.834 42 33.501 70z
M284.999 -13.9971l872 1190h152l-873 -1190h-151zM62.999 729.003c14.667 0 24.834 -2.66602 30.501 -7.99902s8.5 -14.666 8.5 -27.999c2.66699 -34 11.667 -57.667 27 -71s40.666 -20 75.999 -20c46.667 0 86 13.667 118 41s48 60.666 48 99.999
c0 11.333 -2 22.166 -6 32.499s-10.333 21.5 -19 33.5c-25.333 -6 -44 -9.83301 -56 -11.5s-23.333 -2.5 -34 -2.5c-24 0 -43.333 5.33301 -58 16s-22 25 -22 43c0 18.667 9.16699 34 27.5 46s41.833 18 70.5 18c13.333 -0.666992 35.333 -3.33398 66 -8.00098
c2.66699 0 4.66699 -0.333008 6 -1c33.333 18.667 58.833 38 76.5 58s26.5 39.667 26.5 59c0 14.667 -4.66699 25.834 -14 33.501s-22.666 11.5 -39.999 11.5c-32.667 0 -68.834 -14.667 -108.501 -44s-62.834 -44 -69.501 -44c-4.66699 0 -9.66699 1 -15 3
s-9.66602 4.33301 -12.999 7l-12 8c-6 4 -10.333 8.16699 -13 12.5s-4 9.16602 -4 14.499c0 7.33301 5.33301 17.333 16 30s25 26 43 40c32.667 24 65.5 42.167 98.5 54.5s65.833 18.5 98.5 18.5c48 0 88 -12.667 120 -38s48 -56.333 48 -93c0 -34 -12.167 -66 -36.5 -96
s-60.833 -58 -109.5 -84c20 -15.333 35 -32.166 45 -50.499s15 -38.833 15 -61.5c0 -66.667 -29.167 -124 -87.5 -172s-128.833 -72 -211.5 -72c-69.333 0 -122.5 13.667 -159.5 41s-55.5 66.333 -55.5 117c0 25.333 3.83301 42.833 11.5 52.5s21.5 14.5 41.5 14.5h26z" />
    <glyph glyph-name="questiondown" unicode="&#xbf;" horiz-adv-x="854" 
d="M678 1251c36 0 64.167 -10 84.5 -30s30.5 -48 30.5 -84c0 -50.667 -14.833 -92.667 -44.5 -126s-66.167 -50 -109.5 -50c-35.333 0 -63 10 -83 30s-30 48 -30 84c0 50.667 14.667 92.667 44 126s65.333 50 108 50zM674 858
c-8.66699 -65.333 -29.832 -126.998 -63.499 -184.998s-78.834 -110.333 -135.501 -157l-57 -46c-109.333 -86.667 -164 -159.334 -164 -218.001c0 -32 9.83301 -57.833 29.5 -77.5s45.167 -29.5 76.5 -29.5c38.667 0 78.334 18.167 119.001 54.5s81 88.5 121 156.5l111 -96
c-44.667 -85.333 -100 -151.333 -166 -198s-137 -70 -213 -70c-80.667 0 -146.334 23.167 -197.001 69.5s-76 107.166 -76 182.499c0 104 87 214.667 261 332l63 42c48 32.667 85.667 69.667 113 111s44.333 86.333 51 135z" />
    <glyph glyph-name="Agrave" unicode="&#xc0;" horiz-adv-x="1346" 
d="M508 614c88.667 -10 170 -31 244 -63s138.667 -73.667 194 -125c44 160 94.667 328.333 152 505s86 274 86 292c0 10 -1.33301 17.167 -4 21.5s-7 6.5 -13 6.5c-58 0 -152.167 -60.167 -282.5 -180.5s-255.833 -272.5 -376.5 -456.5zM-14 0
c36.667 84 73.1641 163.001 109.497 237.001s72.833 144.667 109.5 212l-94 -14.5c-32.667 -5 -66.667 -10.5 -102 -16.5l57 170c40 6.66699 78.833 12.334 116.5 17.001s75.167 8.33398 112.5 11.001c153.333 252.667 316 452.5 488 599.5s325.333 220.5 460 220.5
c52.667 0 91.834 -11 117.501 -33s38.5 -55.333 38.5 -100c0 -41.333 -39.5 -182.833 -118.5 -424.5s-141.833 -464.834 -188.5 -669.501c5.33301 -27.333 9 -47.333 11 -60s3 -23.334 3 -32.001c0 -38 -9.83301 -68.333 -29.5 -91s-46.167 -34 -79.5 -34
c-31.333 0 -57.166 12.167 -77.499 36.5s-30.5 56.5 -30.5 96.5c0 15.333 3.33301 43 10 83c0.666992 5.33301 1.33398 9.66602 2.00098 12.999c-65.333 75.333 -138.333 131.333 -219 168s-170.667 55 -270 55h-17l-111 -216.5l-106 -227.5h-192zM1419 1511h-117l-332 273
h236z" />
    <glyph glyph-name="Aacute" unicode="&#xc1;" horiz-adv-x="1346" 
d="M508 614c88.667 -10 170 -31 244 -63s138.667 -73.667 194 -125c44 160 94.667 328.333 152 505s86 274 86 292c0 10 -1.33301 17.167 -4 21.5s-7 6.5 -13 6.5c-58 0 -152.167 -60.167 -282.5 -180.5s-255.833 -272.5 -376.5 -456.5zM-14 0
c36.667 84 73.1641 163.001 109.497 237.001s72.833 144.667 109.5 212l-94 -14.5c-32.667 -5 -66.667 -10.5 -102 -16.5l57 170c40 6.66699 78.833 12.334 116.5 17.001s75.167 8.33398 112.5 11.001c153.333 252.667 316 452.5 488 599.5s325.333 220.5 460 220.5
c52.667 0 91.834 -11 117.501 -33s38.5 -55.333 38.5 -100c0 -41.333 -39.5 -182.833 -118.5 -424.5s-141.833 -464.834 -188.5 -669.501c5.33301 -27.333 9 -47.333 11 -60s3 -23.334 3 -32.001c0 -38 -9.83301 -68.333 -29.5 -91s-46.167 -34 -79.5 -34
c-31.333 0 -57.166 12.167 -77.499 36.5s-30.5 56.5 -30.5 96.5c0 15.333 3.33301 43 10 83c0.666992 5.33301 1.33398 9.66602 2.00098 12.999c-65.333 75.333 -138.333 131.333 -219 168s-170.667 55 -270 55h-17l-111 -216.5l-106 -227.5h-192zM1222 1511h-112l204 273
h219z" />
    <glyph glyph-name="Acircumflex" unicode="&#xc2;" horiz-adv-x="1346" 
d="M508 614c88.667 -10 170 -31 244 -63s138.667 -73.667 194 -125c44 160 94.667 328.333 152 505s86 274 86 292c0 10 -1.33301 17.167 -4 21.5s-7 6.5 -13 6.5c-58 0 -152.167 -60.167 -282.5 -180.5s-255.833 -272.5 -376.5 -456.5zM-14 0
c36.667 84 73.1641 163.001 109.497 237.001s72.833 144.667 109.5 212l-94 -14.5c-32.667 -5 -66.667 -10.5 -102 -16.5l57 170c40 6.66699 78.833 12.334 116.5 17.001s75.167 8.33398 112.5 11.001c153.333 252.667 316 452.5 488 599.5s325.333 220.5 460 220.5
c52.667 0 91.834 -11 117.501 -33s38.5 -55.333 38.5 -100c0 -41.333 -39.5 -182.833 -118.5 -424.5s-141.833 -464.834 -188.5 -669.501c5.33301 -27.333 9 -47.333 11 -60s3 -23.334 3 -32.001c0 -38 -9.83301 -68.333 -29.5 -91s-46.167 -34 -79.5 -34
c-31.333 0 -57.166 12.167 -77.499 36.5s-30.5 56.5 -30.5 96.5c0 15.333 3.33301 43 10 83c0.666992 5.33301 1.33398 9.66602 2.00098 12.999c-65.333 75.333 -138.333 131.333 -219 168s-170.667 55 -270 55h-17l-111 -216.5l-106 -227.5h-192zM1531 1511h-108l-141 154
l-220 -154h-127l252 273h203z" />
    <glyph glyph-name="Atilde" unicode="&#xc3;" horiz-adv-x="1346" 
d="M508 614c88.667 -10 170 -31 244 -63s138.667 -73.667 194 -125c44 160 94.667 328.333 152 505s86 274 86 292c0 10 -1.33301 17.167 -4 21.5s-7 6.5 -13 6.5c-58 0 -152.167 -60.167 -282.5 -180.5s-255.833 -272.5 -376.5 -456.5zM-14 0
c36.667 84 73.1641 163.001 109.497 237.001s72.833 144.667 109.5 212l-94 -14.5c-32.667 -5 -66.667 -10.5 -102 -16.5l57 170c40 6.66699 78.833 12.334 116.5 17.001s75.167 8.33398 112.5 11.001c153.333 252.667 316 452.5 488 599.5s325.333 220.5 460 220.5
c52.667 0 91.834 -11 117.501 -33s38.5 -55.333 38.5 -100c0 -41.333 -39.5 -182.833 -118.5 -424.5s-141.833 -464.834 -188.5 -669.501c5.33301 -27.333 9 -47.333 11 -60s3 -23.334 3 -32.001c0 -38 -9.83301 -68.333 -29.5 -91s-46.167 -34 -79.5 -34
c-31.333 0 -57.166 12.167 -77.499 36.5s-30.5 56.5 -30.5 96.5c0 15.333 3.33301 43 10 83c0.666992 5.33301 1.33398 9.66602 2.00098 12.999c-65.333 75.333 -138.333 131.333 -219 168s-170.667 55 -270 55h-17l-111 -216.5l-106 -227.5h-192zM1574 1763
c-19.333 -70 -45.668 -121.165 -79.001 -153.498s-76.333 -48.5 -129 -48.5c-15.333 0 -28.666 0.833008 -39.999 2.5s-22.333 4.16699 -33 7.5l-54 18c-16 5.33301 -29.333 9.16602 -40 11.499s-20 3.5 -28 3.5c-21.333 0 -39.166 -5.5 -53.499 -16.5
s-25.166 -27.5 -32.499 -49.5h-109c18.667 67.333 45.667 118 81 152s78.666 51 129.999 51c14.667 0 29.5 -1.33301 44.5 -4s29.167 -6.33398 42.5 -11.001l53 -16c14 -4 25.333 -7 34 -9s15.667 -3 21 -3c24 0 42.167 4.83301 54.5 14.5s22.166 26.5 29.499 50.5h108z" />
    <glyph glyph-name="Adieresis" unicode="&#xc4;" horiz-adv-x="1346" 
d="M508 614c88.667 -10 170 -31 244 -63s138.667 -73.667 194 -125c44 160 94.667 328.333 152 505s86 274 86 292c0 10 -1.33301 17.167 -4 21.5s-7 6.5 -13 6.5c-58 0 -152.167 -60.167 -282.5 -180.5s-255.833 -272.5 -376.5 -456.5zM-14 0
c36.667 84 73.1641 163.001 109.497 237.001s72.833 144.667 109.5 212l-94 -14.5c-32.667 -5 -66.667 -10.5 -102 -16.5l57 170c40 6.66699 78.833 12.334 116.5 17.001s75.167 8.33398 112.5 11.001c153.333 252.667 316 452.5 488 599.5s325.333 220.5 460 220.5
c52.667 0 91.834 -11 117.501 -33s38.5 -55.333 38.5 -100c0 -41.333 -39.5 -182.833 -118.5 -424.5s-141.833 -464.834 -188.5 -669.501c5.33301 -27.333 9 -47.333 11 -60s3 -23.334 3 -32.001c0 -38 -9.83301 -68.333 -29.5 -91s-46.167 -34 -79.5 -34
c-31.333 0 -57.166 12.167 -77.499 36.5s-30.5 56.5 -30.5 96.5c0 15.333 3.33301 43 10 83c0.666992 5.33301 1.33398 9.66602 2.00098 12.999c-65.333 75.333 -138.333 131.333 -219 168s-170.667 55 -270 55h-17l-111 -216.5l-106 -227.5h-192zM1327 1640
c0 31.333 10.5 57.6689 31.5 79.002s47.167 32 78.5 32s57.333 -10.5 78 -31.5s31 -47.5 31 -79.5c0 -30.667 -10.5 -56.334 -31.5 -77.001s-46.833 -31 -77.5 -31s-56.667 10.667 -78 32s-32 46.666 -32 75.999zM1003 1640c0 32 10.333 58.5 31 79.5s46.667 31.5 78 31.5
s57.5 -10.5 78.5 -31.5s31.5 -47.5 31.5 -79.5c0 -30 -10.667 -55.5 -32 -76.5s-47.333 -31.5 -78 -31.5s-56.5 10.5 -77.5 31.5s-31.5 46.5 -31.5 76.5z" />
    <glyph glyph-name="Aring" unicode="&#xc5;" horiz-adv-x="1346" 
d="M1288 1686c0 -24.667 8.83105 -45.667 26.498 -63s38.834 -26 63.501 -26c24 0 44.667 8.66699 62 26s26 38.333 26 63c0 25.333 -8.5 46.666 -25.5 63.999s-37.833 26 -62.5 26c-25.333 0 -46.666 -8.66699 -63.999 -26s-26 -38.666 -26 -63.999zM1176 1688
c0 55.333 19.667 102.833 59 142.5s87 59.5 143 59.5c55.333 0 103 -20 143 -60s60 -87.333 60 -142c0 -56 -19.833 -103.833 -59.5 -143.5s-87.5 -59.5 -143.5 -59.5s-103.667 19.667 -143 59s-59 87.333 -59 144zM507.998 614c88.667 -10 170 -31 244 -63
s138.667 -73.667 194 -125c44 160 94.667 328.333 152 505s86 274 86 292c0 10 -1.33301 17.167 -4 21.5s-7 6.5 -13 6.5c-58 0 -152.167 -60.167 -282.5 -180.5s-255.833 -272.5 -376.5 -456.5zM-14.002 0c36.667 84 73.1641 163.003 109.497 237.003
s72.833 144.667 109.5 212l-94 -14.5c-32.667 -5 -66.667 -10.5 -102 -16.5l57 168c36 7.33301 73 13.5 111 18.5s77 8.83301 117 11.5c154 252.667 317 452.5 489 599.5s325.333 220.5 460 220.5c52.667 0 91.834 -11 117.501 -33s38.5 -55.333 38.5 -100
c0 -41.333 -39.5 -182.833 -118.5 -424.5s-141.833 -464.834 -188.5 -669.501c5.33301 -27.333 9 -47.333 11 -60s3 -23.334 3 -32.001c0 -38 -9.83301 -68.333 -29.5 -91s-46.167 -34 -79.5 -34c-31.333 0 -57.166 12.167 -77.499 36.5s-30.5 56.5 -30.5 96.5
c0 15.333 3.33301 43 10 83c0.666992 5.33301 1.33398 9.66602 2.00098 12.999c-65.333 75.333 -138.333 131.333 -219 168s-170.667 55 -270 55h-17l-111 -216.5l-106 -227.5h-192z" />
    <glyph glyph-name="AE" unicode="&#xc6;" horiz-adv-x="1939" 
d="M1391 1354c53.333 28.667 105.664 49.835 156.997 63.502s103.333 20.5 156 20.5c73.333 0 130.166 -14.167 170.499 -42.5s60.5 -68.166 60.5 -119.499c0 -56 -56.667 -152.333 -170 -289c-62.667 -74.667 -111.667 -135.334 -147 -182.001l-143 115
c38.667 54 88.5 114.667 149.5 182s91.5 111 91.5 131c0 9.33301 -5.16699 16.833 -15.5 22.5s-24.166 8.5 -41.499 8.5c-28.667 0 -66.167 -11.833 -112.5 -35.5s-92.166 -54.834 -137.499 -93.501c-52.667 -46 -93.167 -96 -121.5 -150s-42.5 -108.667 -42.5 -164
c0 -54.667 17.167 -106 51.5 -154s51.5 -76.333 51.5 -85c0 -24.667 -41.667 -63.334 -125 -116.001c-18 -11.333 -32.333 -20.666 -43 -27.999c-64.667 -42 -108.167 -75.5 -130.5 -100.5s-33.5 -50.167 -33.5 -75.5c0 -27.333 11.833 -49.166 35.5 -65.499
s56.167 -24.5 97.5 -24.5c84 0 170.5 27 259.5 81s162.833 125.333 221.5 214h209c-43.333 -134 -135.166 -248 -275.499 -342s-288.166 -141 -443.499 -141c-95.333 0 -170.333 22.667 -225 68s-82 107.333 -82 186c0 31.333 5 61.833 15 91.5s25.333 59.834 46 90.501
c-6.66699 1.33301 -17.667 3.66602 -33 6.99902c-158 33.333 -281.333 50 -370 50c-16.667 0 -29.334 -0.166992 -38.001 -0.5s-16.334 -0.833008 -23.001 -1.5c-39.333 -71.333 -77.666 -145.333 -114.999 -222s-76.333 -161 -117 -253h-192
c34 79.333 70.5 158.166 109.5 236.499s80.167 155.833 123.5 232.5c-8 -1.33301 -20.333 -3 -37 -5c-68 -9.33301 -121 -17.333 -159 -24l57 166c36 7.33301 73 13.5 111 18.5s77.333 9.16699 118 12.5c152 247.333 312.667 442.666 482 585.999s321.333 215 456 215
c40 0 71.833 -7 95.5 -21s39.834 -35 48.501 -63zM527.998 645.001c96 -6.66699 192.168 -20.665 288.501 -41.998s147.833 -32 154.5 -32c19.333 0 38.666 2.66699 57.999 8s35.333 12.333 48 21l47 33c-24.667 30.667 -43 63.667 -55 99s-18 73.333 -18 114
c0 52 10.333 106.167 31 162.5s47.667 105.166 81 146.499l28 31c26.667 27.333 40 47.666 40 60.999c0 5.33301 -2.5 9.5 -7.5 12.5s-12.167 4.5 -21.5 4.5c-70.667 0 -170.167 -57.333 -298.5 -172s-253.5 -263.667 -375.5 -447z" />
    <glyph glyph-name="Ccedilla" unicode="&#xc7;" horiz-adv-x="1147" 
d="M1008 332c-62 -110.667 -140.334 -196.002 -235.001 -256.002s-198.667 -90 -312 -90c-134 0 -241 38.5 -321 115.5s-120 179.167 -120 306.5c0 116 31.833 238.167 95.5 366.5s156.167 256.5 277.5 384.5c88 92.667 178.333 163 271 211s184.667 72 276 72
c92.667 0 166.334 -24.5 221.001 -73.5s82 -114.833 82 -197.5c0 -130.667 -61.167 -255.5 -183.5 -374.5s-279.5 -202.833 -471.5 -251.5l53 225c120 43.333 216.833 101.5 290.5 174.5s110.5 143.833 110.5 212.5c0 32.667 -10.167 58.334 -30.5 77.001
s-48.833 28 -85.5 28c-53.333 0 -112.666 -18.833 -177.999 -56.5s-133 -92.167 -203 -163.5c-97.333 -98 -176.333 -204.833 -237 -320.5s-91 -213.5 -91 -293.5c0 -75.333 22.667 -135.166 68 -179.499s106.666 -66.5 183.999 -66.5s147 19.167 209 57.5
s119.333 97.833 172 178.5zM112.999 -387.002l41 102c42.667 -14 81.834 -24.667 117.501 -32s67.5 -11 95.5 -11c37.333 0 65.333 6.66699 84 20s28 33.333 28 60c0 25.333 -12.5 43.333 -37.5 54s-68.5 16 -130.5 16h-22l65 178h86l-32 -86h14
c68.667 0 121 -13.167 157 -39.5s54 -64.5 54 -114.5c0 -60.667 -20.833 -108.167 -62.5 -142.5s-100.167 -51.5 -175.5 -51.5c-36.667 0 -77.834 3.83301 -123.501 11.5s-98.5 19.5 -158.5 35.5z" />
    <glyph glyph-name="Egrave" unicode="&#xc8;" horiz-adv-x="1204" 
d="M877 467l208.002 -0.000976562c-43.333 -134 -134.833 -248 -274.5 -342s-286.834 -141 -441.501 -141c-96 0 -171.667 22.667 -227 68s-83 107.333 -83 186c0 70.667 24.333 136.834 73 198.501s129 127.167 241 196.5c-24.667 30.667 -43.167 63.834 -55.5 99.501
s-18.5 73.5 -18.5 113.5c0 73.333 19 147 57 221s91.333 141 160 201c63.333 54.667 132.666 96.667 207.999 126s152 44 230 44c72 0 128.333 -14.333 169 -43s61 -68.334 61 -119.001c0 -54.667 -55.333 -148 -166 -280c-65.333 -78 -116.666 -141.667 -153.999 -191
l-141 115c38.667 53.333 88.334 113.833 149.001 181.5s91 111.5 91 131.5c0 9.33301 -5 16.833 -15 22.5s-23.667 8.5 -41 8.5c-28.667 0 -66 -11.833 -112 -35.5s-92 -54.834 -138 -93.501c-52.667 -46 -93 -96 -121 -150s-42 -108.667 -42 -164
c0 -54.667 17 -106 51 -154s51 -76.333 51 -85c0 -24 -40.333 -61.667 -121 -113l-49 -31c-62.667 -40.667 -105.334 -73.667 -128.001 -99s-34 -51 -34 -77c0 -27.333 11.833 -49.166 35.5 -65.499s56.167 -24.5 97.5 -24.5c84 0 170.167 26.833 258.5 80.5
s162.166 125.167 221.499 214.5zM1077 1511h-117l-332 273h236z" />
    <glyph glyph-name="Eacute" unicode="&#xc9;" horiz-adv-x="1204" 
d="M877 467l208.002 -0.000976562c-43.333 -134 -134.833 -248 -274.5 -342s-286.834 -141 -441.501 -141c-96 0 -171.667 22.667 -227 68s-83 107.333 -83 186c0 70.667 24.333 136.834 73 198.501s129 127.167 241 196.5c-24.667 30.667 -43.167 63.834 -55.5 99.501
s-18.5 73.5 -18.5 113.5c0 73.333 19 147 57 221s91.333 141 160 201c63.333 54.667 132.666 96.667 207.999 126s152 44 230 44c72 0 128.333 -14.333 169 -43s61 -68.334 61 -119.001c0 -54.667 -55.333 -148 -166 -280c-65.333 -78 -116.666 -141.667 -153.999 -191
l-141 115c38.667 53.333 88.334 113.833 149.001 181.5s91 111.5 91 131.5c0 9.33301 -5 16.833 -15 22.5s-23.667 8.5 -41 8.5c-28.667 0 -66 -11.833 -112 -35.5s-92 -54.834 -138 -93.501c-52.667 -46 -93 -96 -121 -150s-42 -108.667 -42 -164
c0 -54.667 17 -106 51 -154s51 -76.333 51 -85c0 -24 -40.333 -61.667 -121 -113l-49 -31c-62.667 -40.667 -105.334 -73.667 -128.001 -99s-34 -51 -34 -77c0 -27.333 11.833 -49.166 35.5 -65.499s56.167 -24.5 97.5 -24.5c84 0 170.167 26.833 258.5 80.5
s162.166 125.167 221.499 214.5zM880.002 1511h-112l204 273h219z" />
    <glyph glyph-name="Ecircumflex" unicode="&#xca;" horiz-adv-x="1204" 
d="M877 467l208.002 -0.000976562c-43.333 -134 -134.833 -248 -274.5 -342s-286.834 -141 -441.501 -141c-96 0 -171.667 22.667 -227 68s-83 107.333 -83 186c0 70.667 24.333 136.834 73 198.501s129 127.167 241 196.5c-24.667 30.667 -43.167 63.834 -55.5 99.501
s-18.5 73.5 -18.5 113.5c0 73.333 19 147 57 221s91.333 141 160 201c63.333 54.667 132.666 96.667 207.999 126s152 44 230 44c72 0 128.333 -14.333 169 -43s61 -68.334 61 -119.001c0 -54.667 -55.333 -148 -166 -280c-65.333 -78 -116.666 -141.667 -153.999 -191
l-141 115c38.667 53.333 88.334 113.833 149.001 181.5s91 111.5 91 131.5c0 9.33301 -5 16.833 -15 22.5s-23.667 8.5 -41 8.5c-28.667 0 -66 -11.833 -112 -35.5s-92 -54.834 -138 -93.501c-52.667 -46 -93 -96 -121 -150s-42 -108.667 -42 -164
c0 -54.667 17 -106 51 -154s51 -76.333 51 -85c0 -24 -40.333 -61.667 -121 -113l-49 -31c-62.667 -40.667 -105.334 -73.667 -128.001 -99s-34 -51 -34 -77c0 -27.333 11.833 -49.166 35.5 -65.499s56.167 -24.5 97.5 -24.5c84 0 170.167 26.833 258.5 80.5
s162.166 125.167 221.499 214.5zM1189 1511h-108l-141 154l-220 -154h-127l252 273h203z" />
    <glyph glyph-name="Edieresis" unicode="&#xcb;" horiz-adv-x="1204" 
d="M877 467l208.002 -0.000976562c-43.333 -134 -134.833 -248 -274.5 -342s-286.834 -141 -441.501 -141c-96 0 -171.667 22.667 -227 68s-83 107.333 -83 186c0 70.667 24.333 136.834 73 198.501s129 127.167 241 196.5c-24.667 30.667 -43.167 63.834 -55.5 99.501
s-18.5 73.5 -18.5 113.5c0 73.333 19 147 57 221s91.333 141 160 201c63.333 54.667 132.666 96.667 207.999 126s152 44 230 44c72 0 128.333 -14.333 169 -43s61 -68.334 61 -119.001c0 -54.667 -55.333 -148 -166 -280c-65.333 -78 -116.666 -141.667 -153.999 -191
l-141 115c38.667 53.333 88.334 113.833 149.001 181.5s91 111.5 91 131.5c0 9.33301 -5 16.833 -15 22.5s-23.667 8.5 -41 8.5c-28.667 0 -66 -11.833 -112 -35.5s-92 -54.834 -138 -93.501c-52.667 -46 -93 -96 -121 -150s-42 -108.667 -42 -164
c0 -54.667 17 -106 51 -154s51 -76.333 51 -85c0 -24 -40.333 -61.667 -121 -113l-49 -31c-62.667 -40.667 -105.334 -73.667 -128.001 -99s-34 -51 -34 -77c0 -27.333 11.833 -49.166 35.5 -65.499s56.167 -24.5 97.5 -24.5c84 0 170.167 26.833 258.5 80.5
s162.166 125.167 221.499 214.5zM985.002 1640c0 31.333 10.5 57.6689 31.5 79.002s47.167 32 78.5 32s57.333 -10.5 78 -31.5s31 -47.5 31 -79.5c0 -30.667 -10.5 -56.334 -31.5 -77.001s-46.833 -31 -77.5 -31s-56.667 10.667 -78 32s-32 46.666 -32 75.999zM661.002 1640
c0 32 10.333 58.5 31 79.5s46.667 31.5 78 31.5s57.5 -10.5 78.5 -31.5s31.5 -47.5 31.5 -79.5c0 -30 -10.667 -55.5 -32 -76.5s-47.333 -31.5 -78 -31.5s-56.5 10.5 -77.5 31.5s-31.5 46.5 -31.5 76.5z" />
    <glyph glyph-name="Igrave" unicode="&#xcc;" horiz-adv-x="930" 
d="M10 199c24 -8 42.666 -13.4961 55.999 -16.4961s25.333 -4.5 36 -4.5c79.333 0 156.166 36 230.499 108s146.5 180.667 216.5 326c56 115.333 102.333 235.166 139 359.499s55 209.5 55 255.5c0 13.333 -2.83301 24.166 -8.5 32.499s-12.834 12.5 -21.501 12.5
c-40.667 0 -89.834 -47.5 -147.501 -142.5s-103.5 -212.833 -137.5 -353.5c-36 -29.333 -72.167 -53 -108.5 -71s-64.166 -27 -83.499 -27c-7.33301 0 -12.333 2.66699 -15 8s-4 15 -4 29c0 62.667 12.5 134 37.5 214s59.5 157.333 103.5 232
c56 96 119.833 171.167 191.5 225.5s141.834 81.5 210.501 81.5c60 0 106.667 -18.167 140 -54.5s50 -86.833 50 -151.5c0 -36 -6.33301 -85.167 -19 -147.5s-30.667 -132.833 -54 -211.5c-29.333 -95.333 -64.5 -188.833 -105.5 -280.5s-87.167 -179.834 -138.5 -264.501
c-80.667 -130.667 -165.667 -226.834 -255 -288.501s-188 -92.5 -296 -92.5c-37.333 0 -71.166 4.16699 -101.499 12.5s-59.166 21.5 -86.499 39.5zM923.999 1511h-117l-332 273h236z" />
    <glyph glyph-name="Iacute" unicode="&#xcd;" horiz-adv-x="930" 
d="M10 199c24 -8 42.666 -13.4961 55.999 -16.4961s25.333 -4.5 36 -4.5c79.333 0 156.166 36 230.499 108s146.5 180.667 216.5 326c56 115.333 102.333 235.166 139 359.499s55 209.5 55 255.5c0 13.333 -2.83301 24.166 -8.5 32.499s-12.834 12.5 -21.501 12.5
c-40.667 0 -89.834 -47.5 -147.501 -142.5s-103.5 -212.833 -137.5 -353.5c-36 -29.333 -72.167 -53 -108.5 -71s-64.166 -27 -83.499 -27c-7.33301 0 -12.333 2.66699 -15 8s-4 15 -4 29c0 62.667 12.5 134 37.5 214s59.5 157.333 103.5 232
c56 96 119.833 171.167 191.5 225.5s141.834 81.5 210.501 81.5c60 0 106.667 -18.167 140 -54.5s50 -86.833 50 -151.5c0 -36 -6.33301 -85.167 -19 -147.5s-30.667 -132.833 -54 -211.5c-29.333 -95.333 -64.5 -188.833 -105.5 -280.5s-87.167 -179.834 -138.5 -264.501
c-80.667 -130.667 -165.667 -226.834 -255 -288.501s-188 -92.5 -296 -92.5c-37.333 0 -71.166 4.16699 -101.499 12.5s-59.166 21.5 -86.499 39.5zM726.999 1511h-112l204 273h219z" />
    <glyph glyph-name="Icircumflex" unicode="&#xce;" horiz-adv-x="930" 
d="M10 199c24 -8 42.666 -13.4961 55.999 -16.4961s25.333 -4.5 36 -4.5c79.333 0 156.166 36 230.499 108s146.5 180.667 216.5 326c56 115.333 102.333 235.166 139 359.499s55 209.5 55 255.5c0 13.333 -2.83301 24.166 -8.5 32.499s-12.834 12.5 -21.501 12.5
c-40.667 0 -89.834 -47.5 -147.501 -142.5s-103.5 -212.833 -137.5 -353.5c-36 -29.333 -72.167 -53 -108.5 -71s-64.166 -27 -83.499 -27c-7.33301 0 -12.333 2.66699 -15 8s-4 15 -4 29c0 62.667 12.5 134 37.5 214s59.5 157.333 103.5 232
c56 96 119.833 171.167 191.5 225.5s141.834 81.5 210.501 81.5c60 0 106.667 -18.167 140 -54.5s50 -86.833 50 -151.5c0 -36 -6.33301 -85.167 -19 -147.5s-30.667 -132.833 -54 -211.5c-29.333 -95.333 -64.5 -188.833 -105.5 -280.5s-87.167 -179.834 -138.5 -264.501
c-80.667 -130.667 -165.667 -226.834 -255 -288.501s-188 -92.5 -296 -92.5c-37.333 0 -71.166 4.16699 -101.499 12.5s-59.166 21.5 -86.499 39.5zM1036 1511h-108l-141 154l-220 -154h-127l252 273h203z" />
    <glyph glyph-name="Idieresis" unicode="&#xcf;" horiz-adv-x="930" 
d="M10 199c24 -8 42.666 -13.4961 55.999 -16.4961s25.333 -4.5 36 -4.5c79.333 0 156.166 36 230.499 108s146.5 180.667 216.5 326c56 115.333 102.333 235.166 139 359.499s55 209.5 55 255.5c0 13.333 -2.83301 24.166 -8.5 32.499s-12.834 12.5 -21.501 12.5
c-40.667 0 -89.834 -47.5 -147.501 -142.5s-103.5 -212.833 -137.5 -353.5c-36 -29.333 -72.167 -53 -108.5 -71s-64.166 -27 -83.499 -27c-7.33301 0 -12.333 2.66699 -15 8s-4 15 -4 29c0 62.667 12.5 134 37.5 214s59.5 157.333 103.5 232
c56 96 119.833 171.167 191.5 225.5s141.834 81.5 210.501 81.5c60 0 106.667 -18.167 140 -54.5s50 -86.833 50 -151.5c0 -36 -6.33301 -85.167 -19 -147.5s-30.667 -132.833 -54 -211.5c-29.333 -95.333 -64.5 -188.833 -105.5 -280.5s-87.167 -179.834 -138.5 -264.501
c-80.667 -130.667 -165.667 -226.834 -255 -288.501s-188 -92.5 -296 -92.5c-37.333 0 -71.166 4.16699 -101.499 12.5s-59.166 21.5 -86.499 39.5zM831.999 1640c0 31.333 10.5 57.6689 31.5 79.002s47.167 32 78.5 32s57.333 -10.5 78 -31.5s31 -47.5 31 -79.5
c0 -30.667 -10.5 -56.334 -31.5 -77.001s-46.833 -31 -77.5 -31s-56.667 10.667 -78 32s-32 46.666 -32 75.999zM507.999 1640.01c0 32 10.333 58.5 31 79.5s46.667 31.5 78 31.5s57.5 -10.5 78.5 -31.5s31.5 -47.5 31.5 -79.5c0 -30 -10.667 -55.5 -32 -76.5
s-47.333 -31.5 -78 -31.5s-56.5 10.5 -77.5 31.5s-31.5 46.5 -31.5 76.5z" />
    <glyph glyph-name="Eth" unicode="&#xd0;" horiz-adv-x="1741" 
d="M1098 1171c10.667 16 22.498 31.666 35.498 46.999s29.167 32.666 48.5 51.999l149 -119c-22 -28 -39.167 -50.5 -51.5 -67.5s-23.166 -32.833 -32.499 -47.5c99.333 -94.667 175 -191.5 227 -290.5s78 -194.5 78 -286.5c0 -152 -52.167 -268.833 -156.5 -350.5
s-254.166 -122.5 -449.499 -122.5c-62.667 0 -125.167 3 -187.5 9s-124.166 15.333 -185.499 28c-64.667 -13.333 -118 -22.833 -160 -28.5s-78.667 -8.5 -110 -8.5c-85.333 0 -152 12.333 -200 37s-72 58.667 -72 102c0 39.333 17.167 68.333 51.5 87s88.166 28 161.499 28
c34.667 0 78.667 -3.16699 132 -9.5s119 -16.166 197 -29.499c40 36 74.833 73.667 104.5 113s55.167 80.666 76.5 123.999h-228l43 123h244l195 438c-104 80 -196 143 -276 189s-136.333 69 -169 69c-22.667 0 -39.5 -4 -50.5 -12s-16.5 -20.333 -16.5 -37
c0 -43.333 24 -91.666 72 -144.999s120.667 -112.666 218 -177.999l-77 -150c-124 59.333 -223.667 134.666 -299 225.999s-113 180 -113 266c0 64.667 19.667 116 59 154s92.666 57 159.999 57c74.667 0 161.334 -22.667 260.001 -68s206 -111.666 322 -198.999z
M1157 857.999l-129.002 -297h180l-43 -123h-188c-28 -59.333 -55.5 -108.833 -82.5 -148.5s-55.5 -73.5 -85.5 -101.5c35.333 -3.33301 65.333 -5.83301 90 -7.5s46.667 -2.5 66 -2.5c128.667 0 226.334 22.833 293.001 68.5s100 112.167 100 199.5
c0 66 -16.667 133 -50 201s-83.666 138.333 -150.999 211z" />
    <glyph glyph-name="Ntilde" unicode="&#xd1;" horiz-adv-x="1237" 
d="M-164 -29c80 100.667 157.666 220.167 232.999 358.5s161 321.5 257 549.5l30 74c60.667 146.667 110.667 260.334 150 341.001c31.333 66 57.166 107.167 77.499 123.5s47.833 24.5 82.5 24.5c46 0 78.333 -19.5 97 -58.5s28 -110.5 28 -214.5v-49l-17 -805l129 422
c46 149.333 93.667 270.666 143 363.999s102.666 164.666 159.999 213.999l56 -228c-34 -47.333 -73.167 -122.166 -117.5 -224.499s-104.166 -257.5 -179.499 -465.5l-1 -2c-95.333 -263.333 -177.666 -395 -246.999 -395c-40 -0 -68.167 14.833 -84.5 44.5
s-24.5 82.5 -24.5 158.5v18l19 967c-116.667 -310 -221.667 -564.833 -315 -764.5s-177.666 -350.5 -252.999 -452.5h-223zM1290 1763c-19.333 -70 -45.668 -121.165 -79.001 -153.498s-76.333 -48.5 -129 -48.5c-15.333 0 -28.666 0.833008 -39.999 2.5
s-22.333 4.16699 -33 7.5l-54 18c-16 5.33301 -29.333 9.16602 -40 11.499s-20 3.5 -28 3.5c-21.333 0 -39.166 -5.5 -53.499 -16.5s-25.166 -27.5 -32.499 -49.5h-109c18.667 67.333 45.667 118 81 152s78.666 51 129.999 51c14.667 0 29.5 -1.33301 44.5 -4
s29.167 -6.33398 42.5 -11.001l53 -16c14 -4 25.333 -7 34 -9s15.667 -3 21 -3c24 0 42.167 4.83301 54.5 14.5s22.166 26.5 29.499 50.5h108z" />
    <glyph glyph-name="Ograve" unicode="&#xd2;" horiz-adv-x="1229" 
d="M737 737l-134.998 -64.9961c-10.667 -5.33301 -19.834 -9.5 -27.501 -12.5s-13.5 -4.5 -17.5 -4.5c-14 0 -23.333 2.83301 -28 8.5s-7 17.167 -7 34.5c0 43.333 10.167 94.166 30.5 152.499s47.166 110.833 80.499 157.5c46.667 65.333 101.334 116.833 164.001 154.5
s124.667 56.5 186 56.5c69.333 0 125.666 -22.667 168.999 -68s65 -103.333 65 -174c0 -103.333 -19.667 -208.833 -59 -316.5s-97 -213.834 -173 -318.501c-84 -116.667 -174.833 -205.167 -272.5 -265.5s-198.5 -90.5 -302.5 -90.5c-114.667 0 -207.167 38.5 -277.5 115.5
s-105.5 177.5 -105.5 301.5c0 123.333 31.833 256.5 95.5 399.5s149.167 270.167 256.5 381.5c87.333 90.667 183.5 163.5 288.5 218.5s197.167 82.5 276.5 82.5c40 0 69.167 -7.33301 87.5 -22s27.5 -37.334 27.5 -68.001c0 -23.333 -5.5 -41.166 -16.5 -53.499
s-31.5 -23.166 -61.5 -32.499c-8 -2.66699 -21.333 -6.33398 -40 -11.001c-120.667 -31.333 -222.667 -79.666 -306 -144.999c-58 -46 -110.833 -97.833 -158.5 -155.5s-90.5 -121.834 -128.5 -192.501c-38 -71.333 -68 -143 -90 -215s-33 -132 -33 -180
c0 -72.667 18.5 -129.834 55.5 -171.501s87.5 -62.5 151.5 -62.5c73.333 0 149.5 32.167 228.5 96.5s153.833 155.166 224.5 272.499c44 74 79.167 148.5 105.5 223.5s39.5 135.5 39.5 181.5c0 27.333 -7.16699 48.833 -21.5 64.5s-33.833 23.5 -58.5 23.5
c-46.667 0 -88.667 -26.167 -126 -78.5s-66.333 -126.5 -87 -222.5zM1084 1511h-117l-332 273h236z" />
    <glyph glyph-name="Oacute" unicode="&#xd3;" horiz-adv-x="1229" 
d="M737 737l-134.998 -64.9961c-10.667 -5.33301 -19.834 -9.5 -27.501 -12.5s-13.5 -4.5 -17.5 -4.5c-14 0 -23.333 2.83301 -28 8.5s-7 17.167 -7 34.5c0 43.333 10.167 94.166 30.5 152.499s47.166 110.833 80.499 157.5c46.667 65.333 101.334 116.833 164.001 154.5
s124.667 56.5 186 56.5c69.333 0 125.666 -22.667 168.999 -68s65 -103.333 65 -174c0 -103.333 -19.667 -208.833 -59 -316.5s-97 -213.834 -173 -318.501c-84 -116.667 -174.833 -205.167 -272.5 -265.5s-198.5 -90.5 -302.5 -90.5c-114.667 0 -207.167 38.5 -277.5 115.5
s-105.5 177.5 -105.5 301.5c0 123.333 31.833 256.5 95.5 399.5s149.167 270.167 256.5 381.5c87.333 90.667 183.5 163.5 288.5 218.5s197.167 82.5 276.5 82.5c40 0 69.167 -7.33301 87.5 -22s27.5 -37.334 27.5 -68.001c0 -23.333 -5.5 -41.166 -16.5 -53.499
s-31.5 -23.166 -61.5 -32.499c-8 -2.66699 -21.333 -6.33398 -40 -11.001c-120.667 -31.333 -222.667 -79.666 -306 -144.999c-58 -46 -110.833 -97.833 -158.5 -155.5s-90.5 -121.834 -128.5 -192.501c-38 -71.333 -68 -143 -90 -215s-33 -132 -33 -180
c0 -72.667 18.5 -129.834 55.5 -171.501s87.5 -62.5 151.5 -62.5c73.333 0 149.5 32.167 228.5 96.5s153.833 155.166 224.5 272.499c44 74 79.167 148.5 105.5 223.5s39.5 135.5 39.5 181.5c0 27.333 -7.16699 48.833 -21.5 64.5s-33.833 23.5 -58.5 23.5
c-46.667 0 -88.667 -26.167 -126 -78.5s-66.333 -126.5 -87 -222.5zM887.002 1511h-112l204 273h219z" />
    <glyph glyph-name="Ocircumflex" unicode="&#xd4;" horiz-adv-x="1229" 
d="M737 737l-134.998 -64.9961c-10.667 -5.33301 -19.834 -9.5 -27.501 -12.5s-13.5 -4.5 -17.5 -4.5c-14 0 -23.333 2.83301 -28 8.5s-7 17.167 -7 34.5c0 43.333 10.167 94.166 30.5 152.499s47.166 110.833 80.499 157.5c46.667 65.333 101.334 116.833 164.001 154.5
s124.667 56.5 186 56.5c69.333 0 125.666 -22.667 168.999 -68s65 -103.333 65 -174c0 -103.333 -19.667 -208.833 -59 -316.5s-97 -213.834 -173 -318.501c-84 -116.667 -174.833 -205.167 -272.5 -265.5s-198.5 -90.5 -302.5 -90.5c-114.667 0 -207.167 38.5 -277.5 115.5
s-105.5 177.5 -105.5 301.5c0 123.333 31.833 256.5 95.5 399.5s149.167 270.167 256.5 381.5c87.333 90.667 183.5 163.5 288.5 218.5s197.167 82.5 276.5 82.5c40 0 69.167 -7.33301 87.5 -22s27.5 -37.334 27.5 -68.001c0 -23.333 -5.5 -41.166 -16.5 -53.499
s-31.5 -23.166 -61.5 -32.499c-8 -2.66699 -21.333 -6.33398 -40 -11.001c-120.667 -31.333 -222.667 -79.666 -306 -144.999c-58 -46 -110.833 -97.833 -158.5 -155.5s-90.5 -121.834 -128.5 -192.501c-38 -71.333 -68 -143 -90 -215s-33 -132 -33 -180
c0 -72.667 18.5 -129.834 55.5 -171.501s87.5 -62.5 151.5 -62.5c73.333 0 149.5 32.167 228.5 96.5s153.833 155.166 224.5 272.499c44 74 79.167 148.5 105.5 223.5s39.5 135.5 39.5 181.5c0 27.333 -7.16699 48.833 -21.5 64.5s-33.833 23.5 -58.5 23.5
c-46.667 0 -88.667 -26.167 -126 -78.5s-66.333 -126.5 -87 -222.5zM1196 1511h-108l-141 154l-220 -154h-127l252 273h203z" />
    <glyph glyph-name="Otilde" unicode="&#xd5;" horiz-adv-x="1229" 
d="M737 737l-134.998 -64.9961c-10.667 -5.33301 -19.834 -9.5 -27.501 -12.5s-13.5 -4.5 -17.5 -4.5c-14 0 -23.333 2.83301 -28 8.5s-7 17.167 -7 34.5c0 43.333 10.167 94.166 30.5 152.499s47.166 110.833 80.499 157.5c46.667 65.333 101.334 116.833 164.001 154.5
s124.667 56.5 186 56.5c69.333 0 125.666 -22.667 168.999 -68s65 -103.333 65 -174c0 -103.333 -19.667 -208.833 -59 -316.5s-97 -213.834 -173 -318.501c-84 -116.667 -174.833 -205.167 -272.5 -265.5s-198.5 -90.5 -302.5 -90.5c-114.667 0 -207.167 38.5 -277.5 115.5
s-105.5 177.5 -105.5 301.5c0 123.333 31.833 256.5 95.5 399.5s149.167 270.167 256.5 381.5c87.333 90.667 183.5 163.5 288.5 218.5s197.167 82.5 276.5 82.5c40 0 69.167 -7.33301 87.5 -22s27.5 -37.334 27.5 -68.001c0 -23.333 -5.5 -41.166 -16.5 -53.499
s-31.5 -23.166 -61.5 -32.499c-8 -2.66699 -21.333 -6.33398 -40 -11.001c-120.667 -31.333 -222.667 -79.666 -306 -144.999c-58 -46 -110.833 -97.833 -158.5 -155.5s-90.5 -121.834 -128.5 -192.501c-38 -71.333 -68 -143 -90 -215s-33 -132 -33 -180
c0 -72.667 18.5 -129.834 55.5 -171.501s87.5 -62.5 151.5 -62.5c73.333 0 149.5 32.167 228.5 96.5s153.833 155.166 224.5 272.499c44 74 79.167 148.5 105.5 223.5s39.5 135.5 39.5 181.5c0 27.333 -7.16699 48.833 -21.5 64.5s-33.833 23.5 -58.5 23.5
c-46.667 0 -88.667 -26.167 -126 -78.5s-66.333 -126.5 -87 -222.5zM1239 1763c-19.333 -70 -45.668 -121.165 -79.001 -153.498s-76.333 -48.5 -129 -48.5c-15.333 0 -28.666 0.833008 -39.999 2.5s-22.333 4.16699 -33 7.5l-54 18c-16 5.33301 -29.333 9.16602 -40 11.499
s-20 3.5 -28 3.5c-21.333 0 -39.166 -5.5 -53.499 -16.5s-25.166 -27.5 -32.499 -49.5h-109c18.667 67.333 45.667 118 81 152s78.666 51 129.999 51c14.667 0 29.5 -1.33301 44.5 -4s29.167 -6.33398 42.5 -11.001l53 -16c14 -4 25.333 -7 34 -9s15.667 -3 21 -3
c24 0 42.167 4.83301 54.5 14.5s22.166 26.5 29.499 50.5h108z" />
    <glyph glyph-name="Odieresis" unicode="&#xd6;" horiz-adv-x="1229" 
d="M737 737l-134.998 -64.9961c-10.667 -5.33301 -19.834 -9.5 -27.501 -12.5s-13.5 -4.5 -17.5 -4.5c-14 0 -23.333 2.83301 -28 8.5s-7 17.167 -7 34.5c0 43.333 10.167 94.166 30.5 152.499s47.166 110.833 80.499 157.5c46.667 65.333 101.334 116.833 164.001 154.5
s124.667 56.5 186 56.5c69.333 0 125.666 -22.667 168.999 -68s65 -103.333 65 -174c0 -103.333 -19.667 -208.833 -59 -316.5s-97 -213.834 -173 -318.501c-84 -116.667 -174.833 -205.167 -272.5 -265.5s-198.5 -90.5 -302.5 -90.5c-114.667 0 -207.167 38.5 -277.5 115.5
s-105.5 177.5 -105.5 301.5c0 123.333 31.833 256.5 95.5 399.5s149.167 270.167 256.5 381.5c87.333 90.667 183.5 163.5 288.5 218.5s197.167 82.5 276.5 82.5c40 0 69.167 -7.33301 87.5 -22s27.5 -37.334 27.5 -68.001c0 -23.333 -5.5 -41.166 -16.5 -53.499
s-31.5 -23.166 -61.5 -32.499c-8 -2.66699 -21.333 -6.33398 -40 -11.001c-120.667 -31.333 -222.667 -79.666 -306 -144.999c-58 -46 -110.833 -97.833 -158.5 -155.5s-90.5 -121.834 -128.5 -192.501c-38 -71.333 -68 -143 -90 -215s-33 -132 -33 -180
c0 -72.667 18.5 -129.834 55.5 -171.501s87.5 -62.5 151.5 -62.5c73.333 0 149.5 32.167 228.5 96.5s153.833 155.166 224.5 272.499c44 74 79.167 148.5 105.5 223.5s39.5 135.5 39.5 181.5c0 27.333 -7.16699 48.833 -21.5 64.5s-33.833 23.5 -58.5 23.5
c-46.667 0 -88.667 -26.167 -126 -78.5s-66.333 -126.5 -87 -222.5zM992.002 1640c0 31.333 10.5 57.6689 31.5 79.002s47.167 32 78.5 32s57.333 -10.5 78 -31.5s31 -47.5 31 -79.5c0 -30.667 -10.5 -56.334 -31.5 -77.001s-46.833 -31 -77.5 -31s-56.667 10.667 -78 32
s-32 46.666 -32 75.999zM668.002 1640.01c0 32 10.333 58.5 31 79.5s46.667 31.5 78 31.5s57.5 -10.5 78.5 -31.5s31.5 -47.5 31.5 -79.5c0 -30 -10.667 -55.5 -32 -76.5s-47.333 -31.5 -78 -31.5s-56.5 10.5 -77.5 31.5s-31.5 46.5 -31.5 76.5z" />
    <glyph glyph-name="multiply" unicode="&#xd7;" horiz-adv-x="1706" 
d="M860 709l469 469l98 -99l-469 -469l469 -469l-98 -96l-469 467l-469 -467l-98 96l469 469l-469 469l98 99z" />
    <glyph glyph-name="Oslash" unicode="&#xd8;" horiz-adv-x="1229" 
d="M434 176l6 -0.000976562c56 0 117.333 22.833 184 68.5s129 108.167 187 187.5c72 99.333 131.667 209.333 179 330s71 216.334 71 287.001c0 39.333 -7 67 -21 83s-39.667 25.667 -77 29zM299 218.999l556.996 1045c-57.333 -11.333 -114.166 -34.666 -170.499 -69.999
s-110.166 -82.333 -161.499 -141c-91.333 -102.667 -163.666 -212.834 -216.999 -330.501s-80 -223.167 -80 -316.5c0 -42.667 5.83301 -79 17.5 -109s29.834 -56 54.501 -78zM337.996 -8.00098l-118.998 -221h-160l144 270c-55.333 33.333 -98.5 82.166 -129.5 146.499
s-46.5 137.166 -46.5 218.499c0 147.333 44 304.833 132 472.5s202.333 306.167 343 415.5c68 53.333 141.167 94.333 219.5 123s155.166 43 230.499 43h9l90 168h159l-96 -182c17.333 -4 31.166 -13.5 41.499 -28.5s15.5 -32.833 15.5 -53.5
c0 -15.333 -3.5 -28.666 -10.5 -39.999s-17.833 -21.333 -32.5 -30c39.333 -12.667 69.333 -38.667 90 -78s31 -89.666 31 -150.999c0 -130 -34.167 -275.333 -102.5 -436s-154.833 -296.667 -259.5 -408c-72.667 -77.333 -149.5 -135.833 -230.5 -175.5
s-164.5 -59.5 -250.5 -59.5c-10.667 0 -21.667 0.5 -33 1.5s-23 2.5 -35 4.5z" />
    <glyph glyph-name="Ugrave" unicode="&#xd9;" horiz-adv-x="1417" 
d="M1092 604c-188 -214.667 -340.501 -370.999 -457.501 -468.999s-209.167 -147 -276.5 -147c-39.333 0 -68.833 10.167 -88.5 30.5s-29.5 51.166 -29.5 92.499c0 32.667 11.167 83.5 33.5 152.5s52.833 142.833 91.5 221.5l274 566c16.667 32.667 28.334 60.5 35.001 83.5
s10 44.833 10 65.5c0 18.667 -4.33301 31.834 -13 39.501s-22.667 11.5 -42 11.5c-60 0 -121.5 -44.333 -184.5 -133s-110.167 -202.667 -141.5 -342c-36.667 -30 -73.5 -54.167 -110.5 -72.5s-64.833 -27.5 -83.5 -27.5c-6 0 -10.333 2.66699 -13 8s-4 13.666 -4 24.999
c0 40 12.333 98 37 174s56.667 150.333 96 223c59.333 108.667 126.833 191.5 202.5 248.5s155.834 85.5 240.501 85.5c68.667 0 123.334 -18.5 164.001 -55.5s61 -86.833 61 -149.5c0 -72 -59.333 -224.667 -178 -458c-92 -182.667 -163 -331.667 -213 -447l-35 -84
c-2.66699 -6 -4.66699 -11.167 -6 -15.5s-2 -7.5 -2 -9.5s0.5 -3.5 1.5 -4.5s1.83301 -1.5 2.5 -1.5c20.667 0 116.667 88.167 288 264.5s362 387.833 572 634.5l35 70l1 3c15.333 28 38 45.333 68 52l63 14c11.333 2 21.5 3.5 30.5 4.5s16.833 1.83301 23.5 2.5
c11.333 0 19.666 -1.5 24.999 -4.5s8 -7.16699 8 -12.5c0 -21.333 -32.333 -94.333 -97 -219l-128 -252c-82.667 -169.333 -143.334 -313.166 -182.001 -431.499s-58 -217.5 -58 -297.5v-18l-211 -37c1.33301 83.333 17.5 175.166 48.5 275.499s78.5 213.833 142.5 340.5z
M1333 1511h-117l-332 273h236z" />
    <glyph glyph-name="Uacute" unicode="&#xda;" horiz-adv-x="1417" 
d="M1092 604c-188 -214.667 -340.501 -370.999 -457.501 -468.999s-209.167 -147 -276.5 -147c-39.333 0 -68.833 10.167 -88.5 30.5s-29.5 51.166 -29.5 92.499c0 32.667 11.167 83.5 33.5 152.5s52.833 142.833 91.5 221.5l274 566c16.667 32.667 28.334 60.5 35.001 83.5
s10 44.833 10 65.5c0 18.667 -4.33301 31.834 -13 39.501s-22.667 11.5 -42 11.5c-60 0 -121.5 -44.333 -184.5 -133s-110.167 -202.667 -141.5 -342c-36.667 -30 -73.5 -54.167 -110.5 -72.5s-64.833 -27.5 -83.5 -27.5c-6 0 -10.333 2.66699 -13 8s-4 13.666 -4 24.999
c0 40 12.333 98 37 174s56.667 150.333 96 223c59.333 108.667 126.833 191.5 202.5 248.5s155.834 85.5 240.501 85.5c68.667 0 123.334 -18.5 164.001 -55.5s61 -86.833 61 -149.5c0 -72 -59.333 -224.667 -178 -458c-92 -182.667 -163 -331.667 -213 -447l-35 -84
c-2.66699 -6 -4.66699 -11.167 -6 -15.5s-2 -7.5 -2 -9.5s0.5 -3.5 1.5 -4.5s1.83301 -1.5 2.5 -1.5c20.667 0 116.667 88.167 288 264.5s362 387.833 572 634.5l35 70l1 3c15.333 28 38 45.333 68 52l63 14c11.333 2 21.5 3.5 30.5 4.5s16.833 1.83301 23.5 2.5
c11.333 0 19.666 -1.5 24.999 -4.5s8 -7.16699 8 -12.5c0 -21.333 -32.333 -94.333 -97 -219l-128 -252c-82.667 -169.333 -143.334 -313.166 -182.001 -431.499s-58 -217.5 -58 -297.5v-18l-211 -37c1.33301 83.333 17.5 175.166 48.5 275.499s78.5 213.833 142.5 340.5z
M1136 1511h-112l204 273h219z" />
    <glyph glyph-name="Ucircumflex" unicode="&#xdb;" horiz-adv-x="1417" 
d="M1092 604c-188 -214.667 -340.501 -370.999 -457.501 -468.999s-209.167 -147 -276.5 -147c-39.333 0 -68.833 10.167 -88.5 30.5s-29.5 51.166 -29.5 92.499c0 32.667 11.167 83.5 33.5 152.5s52.833 142.833 91.5 221.5l274 566c16.667 32.667 28.334 60.5 35.001 83.5
s10 44.833 10 65.5c0 18.667 -4.33301 31.834 -13 39.501s-22.667 11.5 -42 11.5c-60 0 -121.5 -44.333 -184.5 -133s-110.167 -202.667 -141.5 -342c-36.667 -30 -73.5 -54.167 -110.5 -72.5s-64.833 -27.5 -83.5 -27.5c-6 0 -10.333 2.66699 -13 8s-4 13.666 -4 24.999
c0 40 12.333 98 37 174s56.667 150.333 96 223c59.333 108.667 126.833 191.5 202.5 248.5s155.834 85.5 240.501 85.5c68.667 0 123.334 -18.5 164.001 -55.5s61 -86.833 61 -149.5c0 -72 -59.333 -224.667 -178 -458c-92 -182.667 -163 -331.667 -213 -447l-35 -84
c-2.66699 -6 -4.66699 -11.167 -6 -15.5s-2 -7.5 -2 -9.5s0.5 -3.5 1.5 -4.5s1.83301 -1.5 2.5 -1.5c20.667 0 116.667 88.167 288 264.5s362 387.833 572 634.5l35 70l1 3c15.333 28 38 45.333 68 52l63 14c11.333 2 21.5 3.5 30.5 4.5s16.833 1.83301 23.5 2.5
c11.333 0 19.666 -1.5 24.999 -4.5s8 -7.16699 8 -12.5c0 -21.333 -32.333 -94.333 -97 -219l-128 -252c-82.667 -169.333 -143.334 -313.166 -182.001 -431.499s-58 -217.5 -58 -297.5v-18l-211 -37c1.33301 83.333 17.5 175.166 48.5 275.499s78.5 213.833 142.5 340.5z
M1445 1511h-108l-141 154l-220 -154h-127l252 273h203z" />
    <glyph glyph-name="Udieresis" unicode="&#xdc;" horiz-adv-x="1417" 
d="M1092 604c-188 -214.667 -340.501 -370.999 -457.501 -468.999s-209.167 -147 -276.5 -147c-39.333 0 -68.833 10.167 -88.5 30.5s-29.5 51.166 -29.5 92.499c0 32.667 11.167 83.5 33.5 152.5s52.833 142.833 91.5 221.5l274 566c16.667 32.667 28.334 60.5 35.001 83.5
s10 44.833 10 65.5c0 18.667 -4.33301 31.834 -13 39.501s-22.667 11.5 -42 11.5c-60 0 -121.5 -44.333 -184.5 -133s-110.167 -202.667 -141.5 -342c-36.667 -30 -73.5 -54.167 -110.5 -72.5s-64.833 -27.5 -83.5 -27.5c-6 0 -10.333 2.66699 -13 8s-4 13.666 -4 24.999
c0 40 12.333 98 37 174s56.667 150.333 96 223c59.333 108.667 126.833 191.5 202.5 248.5s155.834 85.5 240.501 85.5c68.667 0 123.334 -18.5 164.001 -55.5s61 -86.833 61 -149.5c0 -72 -59.333 -224.667 -178 -458c-92 -182.667 -163 -331.667 -213 -447l-35 -84
c-2.66699 -6 -4.66699 -11.167 -6 -15.5s-2 -7.5 -2 -9.5s0.5 -3.5 1.5 -4.5s1.83301 -1.5 2.5 -1.5c20.667 0 116.667 88.167 288 264.5s362 387.833 572 634.5l35 70l1 3c15.333 28 38 45.333 68 52l63 14c11.333 2 21.5 3.5 30.5 4.5s16.833 1.83301 23.5 2.5
c11.333 0 19.666 -1.5 24.999 -4.5s8 -7.16699 8 -12.5c0 -21.333 -32.333 -94.333 -97 -219l-128 -252c-82.667 -169.333 -143.334 -313.166 -182.001 -431.499s-58 -217.5 -58 -297.5v-18l-211 -37c1.33301 83.333 17.5 175.166 48.5 275.499s78.5 213.833 142.5 340.5z
M1241 1640c0 31.333 10.5 57.6689 31.5 79.002s47.167 32 78.5 32s57.333 -10.5 78 -31.5s31 -47.5 31 -79.5c0 -30.667 -10.5 -56.334 -31.5 -77.001s-46.833 -31 -77.5 -31s-56.667 10.667 -78 32s-32 46.666 -32 75.999zM916.999 1640c0 32 10.333 58.5 31 79.5
s46.667 31.5 78 31.5s57.5 -10.5 78.5 -31.5s31.5 -47.5 31.5 -79.5c0 -30 -10.667 -55.5 -32 -76.5s-47.333 -31.5 -78 -31.5s-56.5 10.5 -77.5 31.5s-31.5 46.5 -31.5 76.5z" />
    <glyph glyph-name="Yacute" unicode="&#xdd;" horiz-adv-x="1389" 
d="M985 444c-150.667 -168.667 -273.666 -286.495 -368.999 -353.495s-184.666 -100.5 -267.999 -100.5c-41.333 0 -73.5 10.333 -96.5 31s-34.5 50 -34.5 88c0 19.333 3.33301 41.5 10 66.5s16.334 52.5 29.001 82.5l344 782c17.333 40 29.5 71.5 36.5 94.5
s10.5 41.5 10.5 55.5c0 20.667 -4.33301 35.334 -13 44.001s-23.334 13 -44.001 13c-60.667 0 -120.667 -44.333 -180 -133s-103 -204 -131 -346l-156 -94c-8.66699 -4.66699 -15.667 -8.16699 -21 -10.5s-9.33301 -3.83301 -12 -4.5c-4 0 -7.33301 3.16699 -10 9.5
s-4 14.833 -4 25.5c0 41.333 10.833 101.833 32.5 181.5s48.834 153.167 81.501 220.5c53.333 108.667 118.833 193.167 196.5 253.5s159.167 90.5 244.5 90.5c69.333 0 124.5 -17.667 165.5 -53s61.5 -83.333 61.5 -144c0 -30 -8.33301 -70.833 -25 -122.5
s-42.334 -115.834 -77.001 -192.501l-308 -681c-4.66699 -10 -8.5 -19.833 -11.5 -29.5s-4.5 -15.834 -4.5 -18.501c0.666992 -3.33301 1.66699 -5.5 3 -6.5s3.66602 -1.83301 6.99902 -2.5c22.667 0 51 10.5 85 31.5s82.333 57.833 145 110.5
c96 81.333 183.667 165.666 263 252.999s145.333 171.666 198 252.999c53.333 83.333 100 170 140 260c6 13.333 9.66699 21.333 11 24c6 11.333 15.167 19.666 27.5 24.999s29.166 8 50.499 8h49c16.667 0 30.334 -3.83301 41.001 -11.5s16 -17.5 16 -29.5
c0 -10.667 -4.83301 -30 -14.5 -58s-23.167 -61.333 -40.5 -100l-381 -862c-87.333 -198.667 -166.833 -351.334 -238.5 -458.001s-130.834 -160 -177.501 -160c-24.667 0 -45.5 5.66699 -62.5 17s-25.5 26 -25.5 44c0 14 26.5 64.333 79.5 151s97.5 168 133.5 244z
M956.001 1511h-112l204 273h219z" />
    <glyph glyph-name="Thorn" unicode="&#xde;" horiz-adv-x="1053" 
d="M575 1116c23.333 12.667 45.8301 22.001 67.4971 28.001s43.167 9 64.5 9c88 0 157 -29.167 207 -87.5s75 -139.166 75 -242.499c0 -158.667 -46 -293.5 -138 -404.5s-201 -166.5 -327 -166.5c-52 0 -88.167 7.5 -108.5 22.5s-30.5 40.167 -30.5 75.5
c0 24 7 44.333 21 61s29.667 25 47 25c100 0 180.167 34.167 240.5 102.5s90.5 157.166 90.5 266.499c0 49.333 -10.5 87.666 -31.5 114.999s-50.5 41 -88.5 41c-77.333 0 -143.5 -38.333 -198.5 -115s-106.5 -203.667 -154.5 -381
c-39.333 -215.333 -78.666 -367.5 -117.999 -456.5s-86 -133.5 -140 -133.5c-21.333 0 -38.166 8.16699 -50.499 24.5s-18.5 38.833 -18.5 67.5c0 60 23.333 167.667 70 323s110 333 190 533c101.333 256 178.333 427.833 231 515.5s101.334 131.5 146.001 131.5
c20 0 36.833 -7.83301 50.5 -23.5s20.5 -35.834 20.5 -60.501c0 -34 -32.333 -111.667 -97 -233c-8 -15.333 -14.667 -27.666 -20 -36.999z" />
    <glyph glyph-name="germandbls" unicode="&#xdf;" horiz-adv-x="997" 
d="M106 326c-30 -30.667 -60.001 -58.1631 -90.001 -82.4961s-60 -46.166 -90 -65.499v174c54.667 44.667 104.667 87.667 150 129s87.666 82.333 126.999 123c86.667 298 180 520.667 280 668s208 221 324 221c62 0 112 -21 150 -63s57 -97.333 57 -166
c0 -80.667 -25.167 -164.334 -75.5 -251.001s-122.166 -169.667 -215.499 -249c46.667 -20.667 81.167 -49.834 103.5 -87.501s33.5 -84.834 33.5 -141.501c0 -72.667 -16.333 -144.667 -49 -216s-79 -135.333 -139 -192c-45.333 -43.333 -93.333 -76.333 -144 -99
s-101 -34 -151 -34c-34.667 0 -61.5 7.5 -80.5 22.5s-28.5 36.167 -28.5 63.5c0 26 6.33301 45.167 19 57.5s32.334 18.5 59.001 18.5c4 0 10.667 -0.333008 20 -1s16.333 -1 21 -1c66.667 0 132.167 38.333 196.5 115s96.5 158.334 96.5 245.001
c0 32 -4.66699 60.167 -14 84.5s-23.333 43.833 -42 58.5c-13.333 -8.66699 -25.333 -14.834 -36 -18.501s-21.667 -5.5 -33 -5.5c-24 0 -43 6 -57 18s-21 28.333 -21 49c0 26.667 7.16699 47 21.5 61s42.833 27.333 85.5 40c80 72.667 144 150.5 192 233.5
s72 155.167 72 216.5c0 24 -5.33301 42.333 -16 55s-26 19 -46 19c-54 0 -112.833 -50.5 -176.5 -151.5s-129.5 -249.167 -197.5 -444.5l-260 -747c-32 -90.667 -65.667 -201.667 -101 -333c-44.667 -164.667 -93 -247 -145 -247c-25.333 0 -45.333 9.5 -60 28.5
s-22 44.833 -22 77.5c0 29.333 5.66699 65.166 17 107.499s29 94.166 53 155.499z" />
    <glyph glyph-name="agrave" unicode="&#xe0;" horiz-adv-x="907" 
d="M709 563c-30 14.667 -59.334 25.5029 -88.001 32.5029s-56.667 10.5 -84 10.5c-115.333 0 -212.833 -32.833 -292.5 -98.5s-119.5 -145.5 -119.5 -239.5c0 -30.667 5.83301 -55.334 17.5 -74.001s26.834 -28 45.501 -28c51.333 0 105.833 29.333 163.5 88
s109.167 138.667 154.5 240h174l-88 -224c-6 -14 -10.667 -27.333 -14 -40s-5 -23 -5 -31c0.666992 -2.66699 1.16699 -4.33398 1.5 -5.00098s1.5 -1 3.5 -1c13.333 0 49.333 18.167 108 54.5s119.334 80.833 182.001 133.5v-180c-94 -68.667 -177.667 -121.667 -251 -159
s-129.333 -56 -168 -56c-26.667 0 -45.334 6.66699 -56.001 20s-16 36.666 -16 69.999v12c-47.333 -38 -88.333 -64.5 -123 -79.5s-70.334 -22.5 -107.001 -22.5c-69.333 0 -122.166 21.5 -158.499 64.5s-54.5 106.167 -54.5 189.5c0 143.333 58 263.833 174 361.5
s257.333 146.5 424 146.5c18.667 0 39.167 -1.5 61.5 -4.5s57.833 -9.16699 106.5 -18.5zM696.999 870.003h-117l-332 273h236z" />
    <glyph glyph-name="aacute" unicode="&#xe1;" horiz-adv-x="907" 
d="M709 563c-30 14.667 -59.334 25.5029 -88.001 32.5029s-56.667 10.5 -84 10.5c-115.333 0 -212.833 -32.833 -292.5 -98.5s-119.5 -145.5 -119.5 -239.5c0 -30.667 5.83301 -55.334 17.5 -74.001s26.834 -28 45.501 -28c51.333 0 105.833 29.333 163.5 88
s109.167 138.667 154.5 240h174l-88 -224c-6 -14 -10.667 -27.333 -14 -40s-5 -23 -5 -31c0.666992 -2.66699 1.16699 -4.33398 1.5 -5.00098s1.5 -1 3.5 -1c13.333 0 49.333 18.167 108 54.5s119.334 80.833 182.001 133.5v-180c-94 -68.667 -177.667 -121.667 -251 -159
s-129.333 -56 -168 -56c-26.667 0 -45.334 6.66699 -56.001 20s-16 36.666 -16 69.999v12c-47.333 -38 -88.333 -64.5 -123 -79.5s-70.334 -22.5 -107.001 -22.5c-69.333 0 -122.166 21.5 -158.499 64.5s-54.5 106.167 -54.5 189.5c0 143.333 58 263.833 174 361.5
s257.333 146.5 424 146.5c18.667 0 39.167 -1.5 61.5 -4.5s57.833 -9.16699 106.5 -18.5zM499.999 870.003h-112l204 273h219z" />
    <glyph glyph-name="acircumflex" unicode="&#xe2;" horiz-adv-x="907" 
d="M709 563c-30 14.667 -59.334 25.5029 -88.001 32.5029s-56.667 10.5 -84 10.5c-115.333 0 -212.833 -32.833 -292.5 -98.5s-119.5 -145.5 -119.5 -239.5c0 -30.667 5.83301 -55.334 17.5 -74.001s26.834 -28 45.501 -28c51.333 0 105.833 29.333 163.5 88
s109.167 138.667 154.5 240h174l-88 -224c-6 -14 -10.667 -27.333 -14 -40s-5 -23 -5 -31c0.666992 -2.66699 1.16699 -4.33398 1.5 -5.00098s1.5 -1 3.5 -1c13.333 0 49.333 18.167 108 54.5s119.334 80.833 182.001 133.5v-180c-94 -68.667 -177.667 -121.667 -251 -159
s-129.333 -56 -168 -56c-26.667 0 -45.334 6.66699 -56.001 20s-16 36.666 -16 69.999v12c-47.333 -38 -88.333 -64.5 -123 -79.5s-70.334 -22.5 -107.001 -22.5c-69.333 0 -122.166 21.5 -158.499 64.5s-54.5 106.167 -54.5 189.5c0 143.333 58 263.833 174 361.5
s257.333 146.5 424 146.5c18.667 0 39.167 -1.5 61.5 -4.5s57.833 -9.16699 106.5 -18.5zM808.999 870.003h-108l-141 154l-220 -154h-127l252 273h203z" />
    <glyph glyph-name="atilde" unicode="&#xe3;" horiz-adv-x="907" 
d="M709 563c-30 14.667 -59.334 25.5029 -88.001 32.5029s-56.667 10.5 -84 10.5c-115.333 0 -212.833 -32.833 -292.5 -98.5s-119.5 -145.5 -119.5 -239.5c0 -30.667 5.83301 -55.334 17.5 -74.001s26.834 -28 45.501 -28c51.333 0 105.833 29.333 163.5 88
s109.167 138.667 154.5 240h174l-88 -224c-6 -14 -10.667 -27.333 -14 -40s-5 -23 -5 -31c0.666992 -2.66699 1.16699 -4.33398 1.5 -5.00098s1.5 -1 3.5 -1c13.333 0 49.333 18.167 108 54.5s119.334 80.833 182.001 133.5v-180c-94 -68.667 -177.667 -121.667 -251 -159
s-129.333 -56 -168 -56c-26.667 0 -45.334 6.66699 -56.001 20s-16 36.666 -16 69.999v12c-47.333 -38 -88.333 -64.5 -123 -79.5s-70.334 -22.5 -107.001 -22.5c-69.333 0 -122.166 21.5 -158.499 64.5s-54.5 106.167 -54.5 189.5c0 143.333 58 263.833 174 361.5
s257.333 146.5 424 146.5c18.667 0 39.167 -1.5 61.5 -4.5s57.833 -9.16699 106.5 -18.5zM851.999 1122c-19.333 -70 -45.668 -121.165 -79.001 -153.498s-76.333 -48.5 -129 -48.5c-15.333 0 -28.666 0.833008 -39.999 2.5s-22.333 4.16699 -33 7.5l-54 18
c-16 5.33301 -29.333 9.16602 -40 11.499s-20 3.5 -28 3.5c-21.333 0 -39.166 -5.5 -53.499 -16.5s-25.166 -27.5 -32.499 -49.5h-109c18.667 67.333 45.667 118 81 152s78.666 51 129.999 51c14.667 0 29.5 -1.33301 44.5 -4s29.167 -6.33398 42.5 -11.001l53 -16
c14 -4 25.333 -7 34 -9s15.667 -3 21 -3c24 0 42.167 4.83301 54.5 14.5s22.166 26.5 29.499 50.5h108z" />
    <glyph glyph-name="adieresis" unicode="&#xe4;" horiz-adv-x="907" 
d="M709 563c-30 14.667 -59.334 25.5029 -88.001 32.5029s-56.667 10.5 -84 10.5c-115.333 0 -212.833 -32.833 -292.5 -98.5s-119.5 -145.5 -119.5 -239.5c0 -30.667 5.83301 -55.334 17.5 -74.001s26.834 -28 45.501 -28c51.333 0 105.833 29.333 163.5 88
s109.167 138.667 154.5 240h174l-88 -224c-6 -14 -10.667 -27.333 -14 -40s-5 -23 -5 -31c0.666992 -2.66699 1.16699 -4.33398 1.5 -5.00098s1.5 -1 3.5 -1c13.333 0 49.333 18.167 108 54.5s119.334 80.833 182.001 133.5v-180c-94 -68.667 -177.667 -121.667 -251 -159
s-129.333 -56 -168 -56c-26.667 0 -45.334 6.66699 -56.001 20s-16 36.666 -16 69.999v12c-47.333 -38 -88.333 -64.5 -123 -79.5s-70.334 -22.5 -107.001 -22.5c-69.333 0 -122.166 21.5 -158.499 64.5s-54.5 106.167 -54.5 189.5c0 143.333 58 263.833 174 361.5
s257.333 146.5 424 146.5c18.667 0 39.167 -1.5 61.5 -4.5s57.833 -9.16699 106.5 -18.5zM604.999 999.003c0 31.333 10.5 57.6689 31.5 79.002s47.167 32 78.5 32s57.333 -10.5 78 -31.5s31 -47.5 31 -79.5c0 -30.667 -10.5 -56.334 -31.5 -77.001s-46.833 -31 -77.5 -31
s-56.667 10.667 -78 32s-32 46.666 -32 75.999zM280.999 999.006c0 32 10.333 58.5 31 79.5s46.667 31.5 78 31.5s57.5 -10.5 78.5 -31.5s31.5 -47.5 31.5 -79.5c0 -30 -10.667 -55.5 -32 -76.5s-47.333 -31.5 -78 -31.5s-56.5 10.5 -77.5 31.5s-31.5 46.5 -31.5 76.5z" />
    <glyph glyph-name="aring" unicode="&#xe5;" horiz-adv-x="907" 
d="M496 1004c0 -25.333 9 -46.833 27 -64.5s39.667 -26.5 65 -26.5s46.666 8.66699 63.999 26s26 39 26 65s-8.66699 47.833 -26 65.5s-38.666 26.5 -63.999 26.5c-26.667 0 -48.667 -8.83301 -66 -26.5s-26 -39.5 -26 -65.5zM379 1006c0 57.333 20.333 106.333 61 147
s90 61 148 61c57.333 0 106.5 -20.333 147.5 -61s61.5 -89.667 61.5 -147c0 -58.667 -20.5 -108.5 -61.5 -149.5s-90.167 -61.5 -147.5 -61.5c-58 0 -107.333 20.5 -148 61.5s-61 90.833 -61 149.5zM709 563c-30 14.667 -59.334 25.5029 -88.001 32.5029
s-56.667 10.5 -84 10.5c-115.333 0 -212.833 -32.833 -292.5 -98.5s-119.5 -145.5 -119.5 -239.5c0 -30.667 5.83301 -55.334 17.5 -74.001s26.834 -28 45.501 -28c51.333 0 105.833 29.333 163.5 88s109.167 138.667 154.5 240h174l-88 -224
c-6 -14 -10.667 -27.333 -14 -40s-5 -23 -5 -31c0.666992 -2.66699 1.16699 -4.33398 1.5 -5.00098s1.5 -1 3.5 -1c13.333 0 49.333 18.167 108 54.5s119.334 80.833 182.001 133.5v-180c-94 -68.667 -177.667 -121.667 -251 -159s-129.333 -56 -168 -56
c-26.667 0 -45.334 6.66699 -56.001 20s-16 36.666 -16 69.999v12c-47.333 -38 -88.333 -64.5 -123 -79.5s-70.334 -22.5 -107.001 -22.5c-69.333 0 -122.166 21.5 -158.499 64.5s-54.5 106.167 -54.5 189.5c0 143.333 58 263.833 174 361.5s257.333 146.5 424 146.5
c18.667 0 39.167 -1.5 61.5 -4.5s57.833 -9.16699 106.5 -18.5z" />
    <glyph glyph-name="ae" unicode="&#xe6;" horiz-adv-x="1229" 
d="M635 375c88.667 12.667 160.667 35.167 216 67.5s83 66.5 83 102.5c0 14.667 -4.66699 26.167 -14 34.5s-22.333 12.5 -39 12.5c-40.667 0 -86 -20.833 -136 -62.5s-86.667 -93.167 -110 -154.5zM541 592h-17.002c-117.333 0 -213.166 -30.5 -287.499 -91.5
s-111.5 -138.5 -111.5 -232.5c0 -30.667 5.83301 -55.334 17.5 -74.001s26.834 -28 45.501 -28c56 0 109.833 29.167 161.5 87.5s93.5 138.5 125.5 240.5h74c56 81.333 116.333 142.5 181 183.5s133.334 61.5 206.001 61.5c58 0 104.167 -15 138.5 -45
s51.5 -69.667 51.5 -119c0 -86 -49 -161.167 -147 -225.5s-220 -97.5 -366 -99.5l-1 -8c0 -31.333 10 -55.666 30 -72.999s48.333 -26 85 -26c54 0 122 21 204 63s168.333 100.333 259 175v-180c-102 -76 -190.833 -130.833 -266.5 -164.5s-146.5 -50.5 -212.5 -50.5
c-38 0 -70.833 5.66699 -98.5 17s-52.834 29.333 -75.501 54l-11 -57h-159l22 123c-36 -45.333 -75 -79.5 -117 -102.5s-86.333 -34.5 -133 -34.5c-64.667 0 -115 22.167 -151 66.5s-54 106.833 -54 187.5c0 146 56.5 265.667 169.5 359s259.5 140 439.5 140h30z" />
    <glyph glyph-name="ccedilla" unicode="&#xe7;" horiz-adv-x="735" 
d="M698 201c-102 -76.667 -190.833 -131.332 -266.5 -163.999s-149.167 -49 -220.5 -49c-92 0 -161.5 22.833 -208.5 68.5s-70.5 113.5 -70.5 203.5c0 132 50.167 245.5 150.5 340.5s218.833 142.5 355.5 142.5c59.333 0 105.333 -12.333 138 -37s49 -59.334 49 -104.001
c0 -17.333 -2.33301 -36.166 -7 -56.499s-10.667 -39.166 -18 -56.499l-18 -45h-174c10 23.333 17.5 44.166 22.5 62.499s7.5 33.833 7.5 46.5c0 18 -5.16699 31.667 -15.5 41s-25.5 14 -45.5 14c-52 0 -106 -34.333 -162 -103s-84 -141.334 -84 -218.001
c0 -42.667 10.833 -75.5 32.5 -98.5s52.5 -34.5 92.5 -34.5c55.333 0 120.5 19.167 195.5 57.5s157.167 94.833 246.5 169.5v-180zM-43 -386.998l41 102c42.667 -14 81.834 -24.667 117.501 -32s67.5 -11 95.5 -11c37.333 0 65.333 6.66699 84 20s28 33.333 28 60
c0 25.333 -12.5 43.333 -37.5 54s-68.5 16 -130.5 16h-22l65 178h86l-32 -86h14c68.667 0 121 -13.167 157 -39.5s54 -64.5 54 -114.5c0 -60.667 -20.833 -108.167 -62.5 -142.5s-100.167 -51.5 -175.5 -51.5c-36.667 0 -77.834 3.83301 -123.501 11.5
s-98.5 19.5 -158.5 35.5z" />
    <glyph glyph-name="egrave" unicode="&#xe8;" horiz-adv-x="735" 
d="M698 201c-102 -76.667 -190.836 -131.334 -266.503 -164.001s-149.167 -49 -220.5 -49c-91.333 0 -160.666 23 -207.999 69s-71 113.667 -71 203c0 130.667 49.5 242.834 148.5 336.501s214.833 140.5 347.5 140.5c66 0 116.667 -14 152 -42s53 -68 53 -120
c0 -80.667 -44 -152.667 -132 -216s-206 -106 -354 -128c2.66699 -24 13.5 -42.833 32.5 -56.5s44.5 -20.5 76.5 -20.5c54.667 0 119.834 19.333 195.501 58s157.834 95 246.501 169v-180zM140.997 375c88.667 12.667 161 35.332 217 67.999s84 66.667 84 102
c0 14.667 -5 26.5 -15 35.5s-23.333 13.5 -40 13.5c-40 0 -85 -21.167 -135 -63.5s-87 -94.166 -111 -155.499zM603.997 869.998h-117l-332 273h236z" />
    <glyph glyph-name="eacute" unicode="&#xe9;" horiz-adv-x="735" 
d="M698 201c-102 -76.667 -190.836 -131.334 -266.503 -164.001s-149.167 -49 -220.5 -49c-91.333 0 -160.666 23 -207.999 69s-71 113.667 -71 203c0 130.667 49.5 242.834 148.5 336.501s214.833 140.5 347.5 140.5c66 0 116.667 -14 152 -42s53 -68 53 -120
c0 -80.667 -44 -152.667 -132 -216s-206 -106 -354 -128c2.66699 -24 13.5 -42.833 32.5 -56.5s44.5 -20.5 76.5 -20.5c54.667 0 119.834 19.333 195.501 58s157.834 95 246.501 169v-180zM140.997 375c88.667 12.667 161 35.332 217 67.999s84 66.667 84 102
c0 14.667 -5 26.5 -15 35.5s-23.333 13.5 -40 13.5c-40 0 -85 -21.167 -135 -63.5s-87 -94.166 -111 -155.499zM406.997 869.998h-112l204 273h219z" />
    <glyph glyph-name="ecircumflex" unicode="&#xea;" horiz-adv-x="735" 
d="M698 201c-102 -76.667 -190.836 -131.334 -266.503 -164.001s-149.167 -49 -220.5 -49c-91.333 0 -160.666 23 -207.999 69s-71 113.667 -71 203c0 130.667 49.5 242.834 148.5 336.501s214.833 140.5 347.5 140.5c66 0 116.667 -14 152 -42s53 -68 53 -120
c0 -80.667 -44 -152.667 -132 -216s-206 -106 -354 -128c2.66699 -24 13.5 -42.833 32.5 -56.5s44.5 -20.5 76.5 -20.5c54.667 0 119.834 19.333 195.501 58s157.834 95 246.501 169v-180zM140.997 375c88.667 12.667 161 35.332 217 67.999s84 66.667 84 102
c0 14.667 -5 26.5 -15 35.5s-23.333 13.5 -40 13.5c-40 0 -85 -21.167 -135 -63.5s-87 -94.166 -111 -155.499zM715.997 869.998h-108l-141 154l-220 -154h-127l252 273h203z" />
    <glyph glyph-name="edieresis" unicode="&#xeb;" horiz-adv-x="735" 
d="M698 201c-102 -76.667 -190.836 -131.334 -266.503 -164.001s-149.167 -49 -220.5 -49c-91.333 0 -160.666 23 -207.999 69s-71 113.667 -71 203c0 130.667 49.5 242.834 148.5 336.501s214.833 140.5 347.5 140.5c66 0 116.667 -14 152 -42s53 -68 53 -120
c0 -80.667 -44 -152.667 -132 -216s-206 -106 -354 -128c2.66699 -24 13.5 -42.833 32.5 -56.5s44.5 -20.5 76.5 -20.5c54.667 0 119.834 19.333 195.501 58s157.834 95 246.501 169v-180zM140.997 375c88.667 12.667 161 35.332 217 67.999s84 66.667 84 102
c0 14.667 -5 26.5 -15 35.5s-23.333 13.5 -40 13.5c-40 0 -85 -21.167 -135 -63.5s-87 -94.166 -111 -155.499zM511.997 998.998c0 31.333 10.5 57.6689 31.5 79.002s47.167 32 78.5 32s57.333 -10.5 78 -31.5s31 -47.5 31 -79.5c0 -30.667 -10.5 -56.334 -31.5 -77.001
s-46.833 -31 -77.5 -31s-56.667 10.667 -78 32s-32 46.666 -32 75.999zM187.997 999.001c0 32 10.333 58.5 31 79.5s46.667 31.5 78 31.5s57.5 -10.5 78.5 -31.5s31.5 -47.5 31.5 -79.5c0 -30 -10.667 -55.5 -32 -76.5s-47.333 -31.5 -78 -31.5s-56.5 10.5 -77.5 31.5
s-31.5 46.5 -31.5 76.5z" />
    <glyph glyph-name="igrave" unicode="&#xec;" horiz-adv-x="551" 
d="M37 262c-20 -17.333 -39.167 -33.002 -57.5 -47.002s-36.166 -26.333 -53.499 -37v174c78 65.333 142.667 121.5 194 168.5s79 75.167 83 84.5l53 116h186l-204 -451l-25 -55c0 -7.33301 0.666992 -12.833 2 -16.5s3.33301 -5.5 6 -5.5c13.333 0 50 18.333 110 55
s121 81 183 133v-180c-96 -71.333 -181 -125 -255 -161s-135.667 -54 -185 -54c-29.333 0 -52.333 6.83301 -69 20.5s-25 31.834 -25 54.501c0 16 2.66699 35.833 8 59.5s12.666 47.834 21.999 72.501zM561 869.998h-117l-332 273h236z" />
    <glyph glyph-name="iacute" unicode="&#xed;" horiz-adv-x="551" 
d="M37 262c-20 -17.333 -39.167 -33.002 -57.5 -47.002s-36.166 -26.333 -53.499 -37v174c78 65.333 142.667 121.5 194 168.5s79 75.167 83 84.5l53 116h186l-204 -451l-25 -55c0 -7.33301 0.666992 -12.833 2 -16.5s3.33301 -5.5 6 -5.5c13.333 0 50 18.333 110 55
s121 81 183 133v-180c-96 -71.333 -181 -125 -255 -161s-135.667 -54 -185 -54c-29.333 0 -52.333 6.83301 -69 20.5s-25 31.834 -25 54.501c0 16 2.66699 35.833 8 59.5s12.666 47.834 21.999 72.501zM364 869.998h-112l204 273h219z" />
    <glyph glyph-name="icircumflex" unicode="&#xee;" horiz-adv-x="551" 
d="M37 262c-20 -17.333 -39.167 -33.002 -57.5 -47.002s-36.166 -26.333 -53.499 -37v174c78 65.333 142.667 121.5 194 168.5s79 75.167 83 84.5l53 116h186l-204 -451l-25 -55c0 -7.33301 0.666992 -12.833 2 -16.5s3.33301 -5.5 6 -5.5c13.333 0 50 18.333 110 55
s121 81 183 133v-180c-96 -71.333 -181 -125 -255 -161s-135.667 -54 -185 -54c-29.333 0 -52.333 6.83301 -69 20.5s-25 31.834 -25 54.501c0 16 2.66699 35.833 8 59.5s12.666 47.834 21.999 72.501zM673 869.998h-108l-141 154l-220 -154h-127l252 273h203z" />
    <glyph glyph-name="idieresis" unicode="&#xef;" horiz-adv-x="551" 
d="M37 262c-20 -17.333 -39.167 -33.002 -57.5 -47.002s-36.166 -26.333 -53.499 -37v174c78 65.333 142.667 121.5 194 168.5s79 75.167 83 84.5l53 116h186l-204 -451l-25 -55c0 -7.33301 0.666992 -12.833 2 -16.5s3.33301 -5.5 6 -5.5c13.333 0 50 18.333 110 55
s121 81 183 133v-180c-96 -71.333 -181 -125 -255 -161s-135.667 -54 -185 -54c-29.333 0 -52.333 6.83301 -69 20.5s-25 31.834 -25 54.501c0 16 2.66699 35.833 8 59.5s12.666 47.834 21.999 72.501zM469 998.998c0 31.333 10.5 57.6689 31.5 79.002s47.167 32 78.5 32
s57.333 -10.5 78 -31.5s31 -47.5 31 -79.5c0 -30.667 -10.5 -56.334 -31.5 -77.001s-46.833 -31 -77.5 -31s-56.667 10.667 -78 32s-32 46.666 -32 75.999zM145 999.001c0 32 10.333 58.5 31 79.5s46.667 31.5 78 31.5s57.5 -10.5 78.5 -31.5s31.5 -47.5 31.5 -79.5
c0 -30 -10.667 -55.5 -32 -76.5s-47.333 -31.5 -78 -31.5s-56.5 10.5 -77.5 31.5s-31.5 46.5 -31.5 76.5z" />
    <glyph glyph-name="eth" unicode="&#xf0;" horiz-adv-x="756" 
d="M520 739c1.33301 21.333 2.33301 41.332 3 59.999s1 36.334 1 53.001c0 38.667 -1.16699 75.834 -3.5 111.501s-5.83301 70.834 -10.5 105.501l-268 -76l-31 115l272 76c-14 50 -34.333 92 -61 126s-63 64.333 -109 91c-0.666992 2.66699 -1.16699 5.16699 -1.5 7.5
s-0.5 5.83301 -0.5 10.5c0 20.667 9.16699 37.167 27.5 49.5s42.833 18.5 73.5 18.5c43.333 0 84.833 -22.333 124.5 -67s73.834 -108.334 102.501 -191.001l207 59l33 -112l-213 -62c8 -41.333 14 -83.166 18 -125.499s6 -85.833 6 -130.5c0 -89.333 -7 -177.5 -21 -264.5
s-35.667 -174.167 -65 -261.5c2 -0.666992 4.33301 -1.16699 7 -1.5s6.66699 -0.5 12 -0.5c23.333 0 61.666 22.333 114.999 67l17 14l1 -178c-27.333 -25.333 -52.833 -43.5 -76.5 -54.5s-49.5 -16.5 -77.5 -16.5c-6.66699 0 -15.5 0.833008 -26.5 2.5
s-25.167 4.16699 -42.5 7.5c-47.333 -66.667 -96.833 -114.334 -148.5 -143.001s-113.5 -43 -185.5 -43c-88 0 -156.5 24.5 -205.5 73.5s-73.5 117.167 -73.5 204.5c0 69.333 12.667 137.166 38 203.499s60.333 124.833 105 175.5c42.667 46 92 83.167 148 111.5
s107.333 42.5 154 42.5c24 0 48.667 -4.66699 74 -14s52.333 -24 81 -44zM496 570.999c-23.333 20 -45.999 34.667 -67.999 44s-45.333 14 -70 14c-60.667 0 -116.334 -35.167 -167.001 -105.5s-76 -145.833 -76 -226.5c0 -46 10.5 -80.667 31.5 -104s52.167 -35 93.5 -35
c61.333 0 113 34 155 102s75.667 171.667 101 311z" />
    <glyph glyph-name="ntilde" unicode="&#xf1;" horiz-adv-x="1053" 
d="M-74 178l-0.00292969 174.004c78 65.333 142.667 121.5 194 168.5s79 75.167 83 84.5l53 116h186l-151 -320c152 122.667 270 209.667 354 261s149 77 195 77c20.667 0 38.834 -5.83301 54.501 -17.5s23.5 -25.5 23.5 -41.5c0 -12.667 -9 -38 -27 -76l-14 -32l-138 -302
c-4.66699 -10.667 -10.167 -22.334 -16.5 -35.001s-9.5 -19.334 -9.5 -20.001c0 -7.33301 0.833008 -12.833 2.5 -16.5s4.16699 -5.5 7.5 -5.5c12 0 47.833 18.5 107.5 55.5s120.834 81.167 183.501 132.5v-180c-96 -70.667 -181 -124.167 -255 -160.5
s-135.333 -54.5 -184 -54.5c-29.333 0 -53 6.66699 -71 20s-27 31 -27 53c0 14 2.66699 29.667 8 47s15.666 42.666 30.999 75.999l131 289c-118 -84.667 -245.667 -187.334 -383 -308.001s-222.666 -181 -255.999 -181c-16 0 -29.833 7 -41.5 21s-17.5 30.667 -17.5 50
c0 8 1.33301 17 4 27s6.66699 21 12 33l72 149c-20 -17.333 -39.167 -33 -57.5 -47s-36.166 -26.333 -53.499 -37zM971.997 1122c-19.333 -70 -45.668 -121.165 -79.001 -153.498s-76.333 -48.5 -129 -48.5c-15.333 0 -28.666 0.833008 -39.999 2.5s-22.333 4.16699 -33 7.5
l-54 18c-16 5.33301 -29.333 9.16602 -40 11.499s-20 3.5 -28 3.5c-21.333 0 -39.166 -5.5 -53.499 -16.5s-25.166 -27.5 -32.499 -49.5h-109c18.667 67.333 45.667 118 81 152s78.666 51 129.999 51c14.667 0 29.5 -1.33301 44.5 -4s29.167 -6.33398 42.5 -11.001l53 -16
c14 -4 25.333 -7 34 -9s15.667 -3 21 -3c24 0 42.167 4.83301 54.5 14.5s22.166 26.5 29.499 50.5h108z" />
    <glyph glyph-name="ograve" unicode="&#xf2;" horiz-adv-x="735" 
d="M373 248c-14 16.667 -24 32.667 -30 48s-9 31.333 -9 48c0 44 12.667 81 38 111s58.333 47 99 51c-12 43.333 -27.333 75 -46 95s-43 30 -73 30c-56 0 -109.5 -35.167 -160.5 -105.5s-76.5 -145.833 -76.5 -226.5c0 -44 9.5 -78.167 28.5 -102.5s45.5 -36.5 79.5 -36.5
c26.667 0 53.5 7.83301 80.5 23.5s50.167 37.167 69.5 64.5zM582 334c3.33301 -0.666992 7.16895 -1.16699 11.502 -1.5s9.16602 -0.5 14.499 -0.5c20.667 0 62.334 26 125.001 78l2 1v-178c-26.667 -25.333 -51.834 -43.5 -75.501 -54.5s-49.5 -16.5 -77.5 -16.5
c-6 0 -13.5 0.666992 -22.5 2s-24.833 4 -47.5 8c-31.333 -58.667 -74.666 -104.334 -129.999 -137.001s-116.333 -49 -183 -49c-88 0 -156.5 24.5 -205.5 73.5s-73.5 117.167 -73.5 204.5c0 142.667 46.167 266.834 138.5 372.501s199.166 158.5 320.499 158.5
c74 0 134.833 -20.833 182.5 -62.5s71.5 -93.167 71.5 -154.5c0 -27.333 -5.33301 -49.5 -16 -66.5s-26.334 -29.833 -47.001 -38.5c9.33301 -8 16.333 -18 21 -30s7 -26.667 7 -44c0 -10 -1.33301 -20.167 -4 -30.5s-6.66699 -21.833 -12 -34.5zM574.003 870h-117l-332 273
h236z" />
    <glyph glyph-name="oacute" unicode="&#xf3;" horiz-adv-x="735" 
d="M373 248c-14 16.667 -24 32.667 -30 48s-9 31.333 -9 48c0 44 12.667 81 38 111s58.333 47 99 51c-12 43.333 -27.333 75 -46 95s-43 30 -73 30c-56 0 -109.5 -35.167 -160.5 -105.5s-76.5 -145.833 -76.5 -226.5c0 -44 9.5 -78.167 28.5 -102.5s45.5 -36.5 79.5 -36.5
c26.667 0 53.5 7.83301 80.5 23.5s50.167 37.167 69.5 64.5zM582 334c3.33301 -0.666992 7.16895 -1.16699 11.502 -1.5s9.16602 -0.5 14.499 -0.5c20.667 0 62.334 26 125.001 78l2 1v-178c-26.667 -25.333 -51.834 -43.5 -75.501 -54.5s-49.5 -16.5 -77.5 -16.5
c-6 0 -13.5 0.666992 -22.5 2s-24.833 4 -47.5 8c-31.333 -58.667 -74.666 -104.334 -129.999 -137.001s-116.333 -49 -183 -49c-88 0 -156.5 24.5 -205.5 73.5s-73.5 117.167 -73.5 204.5c0 142.667 46.167 266.834 138.5 372.501s199.166 158.5 320.499 158.5
c74 0 134.833 -20.833 182.5 -62.5s71.5 -93.167 71.5 -154.5c0 -27.333 -5.33301 -49.5 -16 -66.5s-26.334 -29.833 -47.001 -38.5c9.33301 -8 16.333 -18 21 -30s7 -26.667 7 -44c0 -10 -1.33301 -20.167 -4 -30.5s-6.66699 -21.833 -12 -34.5zM377.003 870h-112l204 273
h219z" />
    <glyph glyph-name="ocircumflex" unicode="&#xf4;" horiz-adv-x="735" 
d="M373 248c-14 16.667 -24 32.667 -30 48s-9 31.333 -9 48c0 44 12.667 81 38 111s58.333 47 99 51c-12 43.333 -27.333 75 -46 95s-43 30 -73 30c-56 0 -109.5 -35.167 -160.5 -105.5s-76.5 -145.833 -76.5 -226.5c0 -44 9.5 -78.167 28.5 -102.5s45.5 -36.5 79.5 -36.5
c26.667 0 53.5 7.83301 80.5 23.5s50.167 37.167 69.5 64.5zM582 334c3.33301 -0.666992 7.16895 -1.16699 11.502 -1.5s9.16602 -0.5 14.499 -0.5c20.667 0 62.334 26 125.001 78l2 1v-178c-26.667 -25.333 -51.834 -43.5 -75.501 -54.5s-49.5 -16.5 -77.5 -16.5
c-6 0 -13.5 0.666992 -22.5 2s-24.833 4 -47.5 8c-31.333 -58.667 -74.666 -104.334 -129.999 -137.001s-116.333 -49 -183 -49c-88 0 -156.5 24.5 -205.5 73.5s-73.5 117.167 -73.5 204.5c0 142.667 46.167 266.834 138.5 372.501s199.166 158.5 320.499 158.5
c74 0 134.833 -20.833 182.5 -62.5s71.5 -93.167 71.5 -154.5c0 -27.333 -5.33301 -49.5 -16 -66.5s-26.334 -29.833 -47.001 -38.5c9.33301 -8 16.333 -18 21 -30s7 -26.667 7 -44c0 -10 -1.33301 -20.167 -4 -30.5s-6.66699 -21.833 -12 -34.5zM686.003 870h-108l-141 154
l-220 -154h-127l252 273h203z" />
    <glyph glyph-name="otilde" unicode="&#xf5;" horiz-adv-x="735" 
d="M373 248c-14 16.667 -24 32.667 -30 48s-9 31.333 -9 48c0 44 12.667 81 38 111s58.333 47 99 51c-12 43.333 -27.333 75 -46 95s-43 30 -73 30c-56 0 -109.5 -35.167 -160.5 -105.5s-76.5 -145.833 -76.5 -226.5c0 -44 9.5 -78.167 28.5 -102.5s45.5 -36.5 79.5 -36.5
c26.667 0 53.5 7.83301 80.5 23.5s50.167 37.167 69.5 64.5zM582 334c3.33301 -0.666992 7.16895 -1.16699 11.502 -1.5s9.16602 -0.5 14.499 -0.5c20.667 0 62.334 26 125.001 78l2 1v-178c-26.667 -25.333 -51.834 -43.5 -75.501 -54.5s-49.5 -16.5 -77.5 -16.5
c-6 0 -13.5 0.666992 -22.5 2s-24.833 4 -47.5 8c-31.333 -58.667 -74.666 -104.334 -129.999 -137.001s-116.333 -49 -183 -49c-88 0 -156.5 24.5 -205.5 73.5s-73.5 117.167 -73.5 204.5c0 142.667 46.167 266.834 138.5 372.501s199.166 158.5 320.499 158.5
c74 0 134.833 -20.833 182.5 -62.5s71.5 -93.167 71.5 -154.5c0 -27.333 -5.33301 -49.5 -16 -66.5s-26.334 -29.833 -47.001 -38.5c9.33301 -8 16.333 -18 21 -30s7 -26.667 7 -44c0 -10 -1.33301 -20.167 -4 -30.5s-6.66699 -21.833 -12 -34.5zM729.003 1122
c-19.333 -70 -45.668 -121.165 -79.001 -153.498s-76.333 -48.5 -129 -48.5c-15.333 0 -28.666 0.833008 -39.999 2.5s-22.333 4.16699 -33 7.5l-54 18c-16 5.33301 -29.333 9.16602 -40 11.499s-20 3.5 -28 3.5c-21.333 0 -39.166 -5.5 -53.499 -16.5
s-25.166 -27.5 -32.499 -49.5h-109c18.667 67.333 45.667 118 81 152s78.666 51 129.999 51c14.667 0 29.5 -1.33301 44.5 -4s29.167 -6.33398 42.5 -11.001l53 -16c14 -4 25.333 -7 34 -9s15.667 -3 21 -3c24 0 42.167 4.83301 54.5 14.5s22.166 26.5 29.499 50.5h108z" />
    <glyph glyph-name="odieresis" unicode="&#xf6;" horiz-adv-x="735" 
d="M373 248c-14 16.667 -24 32.667 -30 48s-9 31.333 -9 48c0 44 12.667 81 38 111s58.333 47 99 51c-12 43.333 -27.333 75 -46 95s-43 30 -73 30c-56 0 -109.5 -35.167 -160.5 -105.5s-76.5 -145.833 -76.5 -226.5c0 -44 9.5 -78.167 28.5 -102.5s45.5 -36.5 79.5 -36.5
c26.667 0 53.5 7.83301 80.5 23.5s50.167 37.167 69.5 64.5zM582 334c3.33301 -0.666992 7.16895 -1.16699 11.502 -1.5s9.16602 -0.5 14.499 -0.5c20.667 0 62.334 26 125.001 78l2 1v-178c-26.667 -25.333 -51.834 -43.5 -75.501 -54.5s-49.5 -16.5 -77.5 -16.5
c-6 0 -13.5 0.666992 -22.5 2s-24.833 4 -47.5 8c-31.333 -58.667 -74.666 -104.334 -129.999 -137.001s-116.333 -49 -183 -49c-88 0 -156.5 24.5 -205.5 73.5s-73.5 117.167 -73.5 204.5c0 142.667 46.167 266.834 138.5 372.501s199.166 158.5 320.499 158.5
c74 0 134.833 -20.833 182.5 -62.5s71.5 -93.167 71.5 -154.5c0 -27.333 -5.33301 -49.5 -16 -66.5s-26.334 -29.833 -47.001 -38.5c9.33301 -8 16.333 -18 21 -30s7 -26.667 7 -44c0 -10 -1.33301 -20.167 -4 -30.5s-6.66699 -21.833 -12 -34.5zM482.003 999
c0 31.333 10.5 57.6689 31.5 79.002s47.167 32 78.5 32s57.333 -10.5 78 -31.5s31 -47.5 31 -79.5c0 -30.667 -10.5 -56.334 -31.5 -77.001s-46.833 -31 -77.5 -31s-56.667 10.667 -78 32s-32 46.666 -32 75.999zM158.003 999.003c0 32 10.333 58.5 31 79.5
s46.667 31.5 78 31.5s57.5 -10.5 78.5 -31.5s31.5 -47.5 31.5 -79.5c0 -30 -10.667 -55.5 -32 -76.5s-47.333 -31.5 -78 -31.5s-56.5 10.5 -77.5 31.5s-31.5 46.5 -31.5 76.5z" />
    <glyph glyph-name="divide" unicode="&#xf7;" horiz-adv-x="1706" 
d="M854 367c34 0 63.333 -12.333 88 -37s37 -54 37 -88c0 -34.667 -12.167 -64.167 -36.5 -88.5s-53.833 -36.5 -88.5 -36.5c-35.333 0 -65 12 -89 36s-36 53.667 -36 89c0 34 12.333 63.333 37 88s54 37 88 37zM1452 680v-139h-1198v139h1198zM854 1106
c34 0 63.333 -12.5 88 -37.5s37 -54.833 37 -89.5c0 -34 -12.167 -63.333 -36.5 -88s-53.833 -37 -88.5 -37s-64.167 12.167 -88.5 36.5s-36.5 53.833 -36.5 88.5s12.333 64.5 37 89.5s54 37.5 88 37.5z" />
    <glyph glyph-name="oslash" unicode="&#xf8;" horiz-adv-x="735" 
d="M373 248c-14 16.667 -24 32.667 -30 48s-9 31.333 -9 48c0 44 12.667 81 38 111s58.333 47 99 51c-12 43.333 -27.333 75 -46 95s-43 30 -73 30c-56 0 -109.5 -35.167 -160.5 -105.5s-76.5 -145.833 -76.5 -226.5c0 -44 9.5 -78.167 28.5 -102.5s45.5 -36.5 79.5 -36.5
c26.667 0 53.5 7.83301 80.5 23.5s50.167 37.167 69.5 64.5zM582 334c3.33301 -0.666992 7.16797 -1.16895 11.501 -1.50195s9.16602 -0.5 14.499 -0.5c20.667 0 62.334 26 125.001 78l2 1v-178c-26.667 -25.333 -51.834 -43.5 -75.501 -54.5s-49.5 -16.5 -77.5 -16.5
c-6 0 -13.5 0.666992 -22.5 2s-24.833 4 -47.5 8c-31.333 -57.333 -73.833 -102.666 -127.5 -135.999s-110.834 -50 -171.501 -50c-2 0 -10.5 0.5 -25.5 1.5s-28.5 1.5 -40.5 1.5l-102 -206h-139l123 248c-36 23.333 -62.833 54.833 -80.5 94.5s-26.5 87.167 -26.5 142.5
c0 144 46.333 267.833 139 371.5s203.334 155.5 332.001 155.5h10l72 149h137l-88 -184c35.333 -22 62.333 -48.667 81 -80s28 -65.333 28 -102c0 -26 -5.33301 -47.667 -16 -65s-26.667 -30.666 -48 -39.999c10 -8 17.333 -18 22 -30s7 -26.667 7 -44
c0 -10 -1.33301 -20.167 -4 -30.5s-6.66699 -21.833 -12 -34.5z" />
    <glyph glyph-name="ugrave" unicode="&#xf9;" horiz-adv-x="1053" 
d="M-74 178l-0.00390625 174.003c78 65.333 142.667 121.5 194 168.5s79 75.167 83 84.5l53 116h184l-227 -467c-3.33301 -6.66699 -5.83301 -12.834 -7.5 -18.501s-2.5 -10.5 -2.5 -14.5c0 -2.66699 0.666992 -4.66699 2 -6s3.33301 -2 6 -2
c34.667 0 109.334 49.167 224.001 147.5s227 218.5 337 360.5h180l-213 -451c-4.66699 -10.667 -10.167 -22.334 -16.5 -35.001s-9.5 -19.334 -9.5 -20.001c0 -7.33301 0.833008 -12.833 2.5 -16.5s4.16699 -5.5 7.5 -5.5c12 0 47.833 18.5 107.5 55.5
s120.834 81.167 183.501 132.5v-180c-93.333 -70 -177.666 -123.333 -252.999 -160s-138 -55 -188 -55c-27.333 0 -49.166 6.5 -65.499 19.5s-24.5 30.167 -24.5 51.5c0 12 3 29.667 9 53s14 47.333 24 72l62 154c-102 -104.667 -203.5 -189.167 -304.5 -253.5
s-178.5 -96.5 -232.5 -96.5c-23.333 0 -40.833 6.66699 -52.5 20s-17.5 34 -17.5 62c0 11.333 1.16699 22.833 3.5 34.5s6.16602 24.167 11.499 37.5l51 122c-20 -17.333 -39.167 -33 -57.5 -47s-36.166 -26.333 -53.499 -37zM822.996 870.003h-117l-332 273h236z" />
    <glyph glyph-name="uacute" unicode="&#xfa;" horiz-adv-x="1053" 
d="M-74 178l-0.00390625 174.003c78 65.333 142.667 121.5 194 168.5s79 75.167 83 84.5l53 116h184l-227 -467c-3.33301 -6.66699 -5.83301 -12.834 -7.5 -18.501s-2.5 -10.5 -2.5 -14.5c0 -2.66699 0.666992 -4.66699 2 -6s3.33301 -2 6 -2
c34.667 0 109.334 49.167 224.001 147.5s227 218.5 337 360.5h180l-213 -451c-4.66699 -10.667 -10.167 -22.334 -16.5 -35.001s-9.5 -19.334 -9.5 -20.001c0 -7.33301 0.833008 -12.833 2.5 -16.5s4.16699 -5.5 7.5 -5.5c12 0 47.833 18.5 107.5 55.5
s120.834 81.167 183.501 132.5v-180c-93.333 -70 -177.666 -123.333 -252.999 -160s-138 -55 -188 -55c-27.333 0 -49.166 6.5 -65.499 19.5s-24.5 30.167 -24.5 51.5c0 12 3 29.667 9 53s14 47.333 24 72l62 154c-102 -104.667 -203.5 -189.167 -304.5 -253.5
s-178.5 -96.5 -232.5 -96.5c-23.333 0 -40.833 6.66699 -52.5 20s-17.5 34 -17.5 62c0 11.333 1.16699 22.833 3.5 34.5s6.16602 24.167 11.499 37.5l51 122c-20 -17.333 -39.167 -33 -57.5 -47s-36.166 -26.333 -53.499 -37zM625.996 870.003h-112l204 273h219z" />
    <glyph glyph-name="ucircumflex" unicode="&#xfb;" horiz-adv-x="1053" 
d="M-74 178l-0.00390625 174.003c78 65.333 142.667 121.5 194 168.5s79 75.167 83 84.5l53 116h184l-227 -467c-3.33301 -6.66699 -5.83301 -12.834 -7.5 -18.501s-2.5 -10.5 -2.5 -14.5c0 -2.66699 0.666992 -4.66699 2 -6s3.33301 -2 6 -2
c34.667 0 109.334 49.167 224.001 147.5s227 218.5 337 360.5h180l-213 -451c-4.66699 -10.667 -10.167 -22.334 -16.5 -35.001s-9.5 -19.334 -9.5 -20.001c0 -7.33301 0.833008 -12.833 2.5 -16.5s4.16699 -5.5 7.5 -5.5c12 0 47.833 18.5 107.5 55.5
s120.834 81.167 183.501 132.5v-180c-93.333 -70 -177.666 -123.333 -252.999 -160s-138 -55 -188 -55c-27.333 0 -49.166 6.5 -65.499 19.5s-24.5 30.167 -24.5 51.5c0 12 3 29.667 9 53s14 47.333 24 72l62 154c-102 -104.667 -203.5 -189.167 -304.5 -253.5
s-178.5 -96.5 -232.5 -96.5c-23.333 0 -40.833 6.66699 -52.5 20s-17.5 34 -17.5 62c0 11.333 1.16699 22.833 3.5 34.5s6.16602 24.167 11.499 37.5l51 122c-20 -17.333 -39.167 -33 -57.5 -47s-36.166 -26.333 -53.499 -37zM934.996 870.003h-108l-141 154l-220 -154h-127
l252 273h203z" />
    <glyph glyph-name="udieresis" unicode="&#xfc;" horiz-adv-x="1053" 
d="M-74 178l-0.00390625 174.003c78 65.333 142.667 121.5 194 168.5s79 75.167 83 84.5l53 116h184l-227 -467c-3.33301 -6.66699 -5.83301 -12.834 -7.5 -18.501s-2.5 -10.5 -2.5 -14.5c0 -2.66699 0.666992 -4.66699 2 -6s3.33301 -2 6 -2
c34.667 0 109.334 49.167 224.001 147.5s227 218.5 337 360.5h180l-213 -451c-4.66699 -10.667 -10.167 -22.334 -16.5 -35.001s-9.5 -19.334 -9.5 -20.001c0 -7.33301 0.833008 -12.833 2.5 -16.5s4.16699 -5.5 7.5 -5.5c12 0 47.833 18.5 107.5 55.5
s120.834 81.167 183.501 132.5v-180c-93.333 -70 -177.666 -123.333 -252.999 -160s-138 -55 -188 -55c-27.333 0 -49.166 6.5 -65.499 19.5s-24.5 30.167 -24.5 51.5c0 12 3 29.667 9 53s14 47.333 24 72l62 154c-102 -104.667 -203.5 -189.167 -304.5 -253.5
s-178.5 -96.5 -232.5 -96.5c-23.333 0 -40.833 6.66699 -52.5 20s-17.5 34 -17.5 62c0 11.333 1.16699 22.833 3.5 34.5s6.16602 24.167 11.499 37.5l51 122c-20 -17.333 -39.167 -33 -57.5 -47s-36.166 -26.333 -53.499 -37zM730.996 999.003
c0 31.333 10.5 57.6689 31.5 79.002s47.167 32 78.5 32s57.333 -10.5 78 -31.5s31 -47.5 31 -79.5c0 -30.667 -10.5 -56.334 -31.5 -77.001s-46.833 -31 -77.5 -31s-56.667 10.667 -78 32s-32 46.666 -32 75.999zM406.996 999.006c0 32 10.333 58.5 31 79.5
s46.667 31.5 78 31.5s57.5 -10.5 78.5 -31.5s31.5 -47.5 31.5 -79.5c0 -30 -10.667 -55.5 -32 -76.5s-47.333 -31.5 -78 -31.5s-56.5 10.5 -77.5 31.5s-31.5 46.5 -31.5 76.5z" />
    <glyph glyph-name="yacute" unicode="&#xfd;" horiz-adv-x="965" 
d="M41 268c-19.333 -18 -38.3262 -34.3281 -56.9932 -48.9951s-38 -28.334 -58 -41.001v174c78 65.333 142.667 121.5 194 168.5s79 75.167 83 84.5l53 116h166l-211 -453c-0.666992 -1.33301 -1.33398 -3 -2.00098 -5c-5.33301 -14.667 -8 -23 -8 -25
c0 -2.66699 0.666992 -4.83398 2 -6.50098s2.66602 -2.5 3.99902 -2.5c23.333 0 87.666 48.167 192.999 144.5s213 212.166 323 347.499h162l-262 -571l117 89.5l186 141.5v-180c-100.667 -74.667 -187.834 -141.834 -261.501 -201.501s-139.5 -116.167 -197.5 -169.5
c-49.333 -149.333 -96.333 -260 -141 -332s-88.334 -108 -131.001 -108c-24.667 0 -44.834 8.66699 -60.501 26s-23.5 39.333 -23.5 66c0 56.667 20.833 124.167 62.5 202.5s100.5 160.166 176.5 245.499l87 199l89 205c-110.667 -106 -210.334 -189.833 -299.001 -251.5
s-151.334 -92.5 -188.001 -92.5c-18.667 0 -34 7 -46 21s-18 32.333 -18 55c0 24 5.33301 52.5 16 85.5s27.334 71.833 50.001 116.5zM491.007 870.005h-112l204 273h219z" />
    <glyph glyph-name="thorn" unicode="&#xfe;" horiz-adv-x="1063" 
d="M1026 203c-93.333 -69.333 -170.503 -118.834 -231.503 -148.501s-114.833 -44.5 -161.5 -44.5c-11.333 0 -25.833 1.33301 -43.5 4s-39.5 7 -65.5 13c-30 -14.667 -54.833 -24.834 -74.5 -30.501s-38.5 -8.5 -56.5 -8.5c-34 0 -64.333 11.833 -91 35.5
s-40 51.167 -40 82.5c0 17.333 3.66699 29 11 35s21.333 9 42 9c5.33301 0 14.666 -1.16699 27.999 -3.5s24 -3.5 32 -3.5c30.667 0 61.334 12.167 92.001 36.5s66.667 65.5 108 123.5c36.667 51.333 64 95.166 82 131.499s27 66.166 27 89.499
c0 12.667 -5 23.334 -15 32.001s-22 13 -36 13c-46.667 0 -118 -48.5 -214 -145.5s-168.667 -202.833 -218 -317.5c-24.667 -57.333 -48.334 -119.833 -71.001 -187.5s-43.334 -138.167 -62.001 -211.5c-5.33301 -20 -12.333 -47.667 -21 -83
c-36.667 -148 -81 -222 -133 -222c-22.667 0 -42 9.5 -58 28.5s-24 42.167 -24 69.5c0 54.667 25.5 156.334 76.5 305.001s122.5 327.667 214.5 537c-41.333 -40 -78.166 -73.5 -110.499 -100.5s-61.166 -48.167 -86.499 -63.5v174c39.333 31.333 82.5 68.666 129.5 111.999
s101.5 97 163.5 161l234 655c26 74.667 50.167 126.5 72.5 155.5s47.833 43.5 76.5 43.5c20.667 0 36.834 -9.33301 48.501 -28s17.5 -45 17.5 -79c0 -104.667 -54.667 -272 -164 -502c-64.667 -136.667 -111 -243 -139 -319c62.667 64.667 119.334 111.834 170.001 141.501
s99.667 44.5 147 44.5c56.667 0 103.667 -18.333 141 -55s56 -83 56 -139c0 -53.333 -17 -113.166 -51 -179.499s-80.667 -130.166 -140 -191.499c40.667 12 90.834 36.5 150.501 73.5s122.167 82.833 187.5 137.5v-180z" />
    <glyph glyph-name="ydieresis" unicode="&#xff;" horiz-adv-x="965" 
d="M41 268c-19.333 -18 -38.3262 -34.3281 -56.9932 -48.9951s-38 -28.334 -58 -41.001v174c78 65.333 142.667 121.5 194 168.5s79 75.167 83 84.5l53 116h166l-211 -453c-0.666992 -1.33301 -1.33398 -3 -2.00098 -5c-5.33301 -14.667 -8 -23 -8 -25
c0 -2.66699 0.666992 -4.83398 2 -6.50098s2.66602 -2.5 3.99902 -2.5c23.333 0 87.666 48.167 192.999 144.5s213 212.166 323 347.499h162l-262 -571l117 89.5l186 141.5v-180c-100.667 -74.667 -187.834 -141.834 -261.501 -201.501s-139.5 -116.167 -197.5 -169.5
c-49.333 -149.333 -96.333 -260 -141 -332s-88.334 -108 -131.001 -108c-24.667 0 -44.834 8.66699 -60.501 26s-23.5 39.333 -23.5 66c0 56.667 20.833 124.167 62.5 202.5s100.5 160.166 176.5 245.499l87 199l89 205c-110.667 -106 -210.334 -189.833 -299.001 -251.5
s-151.334 -92.5 -188.001 -92.5c-18.667 0 -34 7 -46 21s-18 32.333 -18 55c0 24 5.33301 52.5 16 85.5s27.334 71.833 50.001 116.5zM596.007 999.005c0 31.333 10.5 57.6689 31.5 79.002s47.167 32 78.5 32s57.333 -10.5 78 -31.5s31 -47.5 31 -79.5
c0 -30.667 -10.5 -56.334 -31.5 -77.001s-46.833 -31 -77.5 -31s-56.667 10.667 -78 32s-32 46.666 -32 75.999zM272.007 999.008c0 32 10.333 58.5 31 79.5s46.667 31.5 78 31.5s57.5 -10.5 78.5 -31.5s31.5 -47.5 31.5 -79.5c0 -30 -10.667 -55.5 -32 -76.5
s-47.333 -31.5 -78 -31.5s-56.5 10.5 -77.5 31.5s-31.5 46.5 -31.5 76.5z" />
    <glyph glyph-name="Cacute" unicode="&#x106;" horiz-adv-x="1147" 
d="M1008 332c-62 -110.667 -140.334 -196.002 -235.001 -256.002s-198.667 -90 -312 -90c-134 0 -241 38.5 -321 115.5s-120 179.167 -120 306.5c0 116 31.833 238.167 95.5 366.5s156.167 256.5 277.5 384.5c88 92.667 178.333 163 271 211s184.667 72 276 72
c92.667 0 166.334 -24.5 221.001 -73.5s82 -114.833 82 -197.5c0 -130.667 -61.167 -255.5 -183.5 -374.5s-279.5 -202.833 -471.5 -251.5l53 225c120 43.333 216.833 101.5 290.5 174.5s110.5 143.833 110.5 212.5c0 32.667 -10.167 58.334 -30.5 77.001
s-48.833 28 -85.5 28c-53.333 0 -112.666 -18.833 -177.999 -56.5s-133 -92.167 -203 -163.5c-97.333 -98 -176.333 -204.833 -237 -320.5s-91 -213.5 -91 -293.5c0 -75.333 22.667 -135.166 68 -179.499s106.666 -66.5 183.999 -66.5s147 19.167 209 57.5
s119.333 97.833 172 178.5zM918.999 1511h-112l204 273h219z" />
    <glyph glyph-name="cacute" unicode="&#x107;" horiz-adv-x="735" 
d="M698 201c-102 -76.667 -190.833 -131.332 -266.5 -163.999s-149.167 -49 -220.5 -49c-92 0 -161.5 22.833 -208.5 68.5s-70.5 113.5 -70.5 203.5c0 132 50.167 245.5 150.5 340.5s218.833 142.5 355.5 142.5c59.333 0 105.333 -12.333 138 -37s49 -59.334 49 -104.001
c0 -17.333 -2.33301 -36.166 -7 -56.499s-10.667 -39.166 -18 -56.499l-18 -45h-174c10 23.333 17.5 44.166 22.5 62.499s7.5 33.833 7.5 46.5c0 18 -5.16699 31.667 -15.5 41s-25.5 14 -45.5 14c-52 0 -106 -34.333 -162 -103s-84 -141.334 -84 -218.001
c0 -42.667 10.833 -75.5 32.5 -98.5s52.5 -34.5 92.5 -34.5c55.333 0 120.5 19.167 195.5 57.5s157.167 94.833 246.5 169.5v-180zM403 870.002h-112l204 273h219z" />
    <glyph glyph-name="Ccaron" unicode="&#x10c;" horiz-adv-x="1147" 
d="M1008 332c-62 -110.667 -140.334 -196.002 -235.001 -256.002s-198.667 -90 -312 -90c-134 0 -241 38.5 -321 115.5s-120 179.167 -120 306.5c0 116 31.833 238.167 95.5 366.5s156.167 256.5 277.5 384.5c88 92.667 178.333 163 271 211s184.667 72 276 72
c92.667 0 166.334 -24.5 221.001 -73.5s82 -114.833 82 -197.5c0 -130.667 -61.167 -255.5 -183.5 -374.5s-279.5 -202.833 -471.5 -251.5l53 225c120 43.333 216.833 101.5 290.5 174.5s110.5 143.833 110.5 212.5c0 32.667 -10.167 58.334 -30.5 77.001
s-48.833 28 -85.5 28c-53.333 0 -112.666 -18.833 -177.999 -56.5s-133 -92.167 -203 -163.5c-97.333 -98 -176.333 -204.833 -237 -320.5s-91 -213.5 -91 -293.5c0 -75.333 22.667 -135.166 68 -179.499s106.666 -66.5 183.999 -66.5s147 19.167 209 57.5
s119.333 97.833 172 178.5zM701.999 1784h109l141 -154l219 154h127l-252 -273h-203z" />
    <glyph glyph-name="ccaron" unicode="&#x10d;" horiz-adv-x="735" 
d="M698 201c-102 -76.667 -190.833 -131.332 -266.5 -163.999s-149.167 -49 -220.5 -49c-92 0 -161.5 22.833 -208.5 68.5s-70.5 113.5 -70.5 203.5c0 132 50.167 245.5 150.5 340.5s218.833 142.5 355.5 142.5c59.333 0 105.333 -12.333 138 -37s49 -59.334 49 -104.001
c0 -17.333 -2.33301 -36.166 -7 -56.499s-10.667 -39.166 -18 -56.499l-18 -45h-174c10 23.333 17.5 44.166 22.5 62.499s7.5 33.833 7.5 46.5c0 18 -5.16699 31.667 -15.5 41s-25.5 14 -45.5 14c-52 0 -106 -34.333 -162 -103s-84 -141.334 -84 -218.001
c0 -42.667 10.833 -75.5 32.5 -98.5s52.5 -34.5 92.5 -34.5c55.333 0 120.5 19.167 195.5 57.5s157.167 94.833 246.5 169.5v-180zM186 1143h109l141 -154l219 154h127l-252 -273h-203z" />
    <glyph glyph-name="dcroat" unicode="&#x111;" horiz-adv-x="985" 
d="M557 406c102 173.333 183.498 343.333 244.498 510s91.5 290.667 91.5 372c0 1.33301 -0.5 2.33301 -1.5 3s-1.83301 1 -2.5 1c-25.333 0 -76.166 -91.167 -152.499 -273.5s-136.166 -386.5 -179.499 -612.5zM374.998 248c4 56 11.001 110.667 21.001 164
s23.333 106.333 40 159c-12.667 4 -23 6.83301 -31 8.5s-15.333 2.5 -22 2.5c-70 0 -130.167 -31.167 -180.5 -93.5s-75.5 -139.833 -75.5 -232.5c0 -31.333 7.66699 -55.833 23 -73.5s37 -26.5 65 -26.5c16.667 0 37.667 7.16699 63 21.5s57.666 37.833 96.999 70.5z
M394.999 94c-40.667 -36.667 -81.166 -63.833 -121.499 -81.5s-81.5 -26.5 -123.5 -26.5c-67.333 0 -119.666 23.667 -156.999 71s-56 113.666 -56 198.999c0 130.667 44.167 243.167 132.5 337.5s190.166 141.5 305.499 141.5c14 0 29.333 -1 46 -3s34.667 -5 54 -9
c10 32 20.667 64 32 96l40 111h-225l40 119h234c58 128 119.333 232 184 312s117.334 120 158.001 120c28 0 49 -18.167 63 -54.5s21 -91.166 21 -164.499c0 -32 -2 -65.833 -6 -101.5s-10.333 -72.834 -19 -111.501h195l-41 -119h-184
c-45.333 -142 -103.333 -273.333 -174 -394s-152.667 -227.667 -246 -321c0 -2 -0.333008 -4.5 -1 -7.5s-1 -5.16699 -1 -6.5c0 -11.333 3.5 -19.666 10.5 -24.999s17.833 -8 32.5 -8c26 0 73.833 20 143.5 60s141.834 91 216.501 153v-180
c-94.667 -70.667 -179.834 -124.167 -255.501 -160.5s-139.834 -54.5 -192.501 -54.5c-34.667 0 -59.834 8 -75.501 24s-25.5 44 -29.5 84z" />
    <glyph glyph-name="Gbreve" unicode="&#x11e;" horiz-adv-x="1151" 
d="M641 119c-36.667 -42.667 -79.1699 -74.832 -127.503 -96.499s-102.166 -32.5 -161.499 -32.5c-99.333 0 -177.333 32 -234 96s-85 152.667 -85 266c0 115.333 26.833 242.166 80.5 380.499s125.834 264.833 216.501 379.5c84.667 106.667 174.5 188 269.5 244
s191.5 84 289.5 84c88.667 0 160 -24.333 214 -73s81 -112.334 81 -191.001c0 -84 -30.167 -161.833 -90.5 -233.5s-143.5 -127.834 -249.5 -168.501v201c47.333 24 84.333 52.167 111 84.5s40 64.833 40 97.5c0 30 -10 53.833 -30 71.5s-46.667 26.5 -80 26.5
c-57.333 0 -116.666 -18.167 -177.999 -54.5s-122.333 -89.833 -183 -160.5c-85.333 -100.667 -156.166 -215.667 -212.499 -345s-84.5 -238.666 -84.5 -327.999c0 -60.667 12 -107.334 36 -140.001s58 -49 102 -49c60 0 125.667 26 197 78s144 127 218 225
c34.667 94 64 154.833 88 182.5s53.333 41.5 88 41.5c25.333 0 47.166 -9.33301 65.499 -28s27.5 -41 27.5 -67c0 -31.333 -7.66699 -62.166 -23 -92.499s-40 -62.833 -74 -97.5c-85.333 -267.333 -178.833 -489.833 -280.5 -667.5s-180.167 -266.5 -235.5 -266.5
c-5.33301 0 -9 1.83301 -11 5.5s-3 10.834 -3 21.501c0 5.33301 2.33301 21.5 7 48.5s7 50.833 7 71.5c0 9.33301 -0.166992 16.5 -0.5 21.5s-0.833008 9.83301 -1.5 14.5l-6 57c44 58.667 83.5 120.5 118.5 185.5s66.5 134.167 94.5 207.5zM619.997 1782l112.999 -1
c2 -44 14.667 -76 38 -96s60.333 -30 111 -30c53.333 0 97.833 10.333 133.5 31s64.167 52.667 85.5 96h119c-26.667 -88 -69.667 -154.833 -129 -200.5s-133.666 -68.5 -222.999 -68.5c-84 0 -146.333 20.167 -187 60.5s-61 101.5 -61 183.5v25z" />
    <glyph glyph-name="gbreve" unicode="&#x11f;" horiz-adv-x="907" 
d="M709 563c-30 14.667 -59.334 25.502 -88.001 32.502s-56.667 10.5 -84 10.5c-115.333 0 -212.833 -32.833 -292.5 -98.5s-119.5 -145.5 -119.5 -239.5c0 -30.667 5.83301 -55.334 17.5 -74.001s26.834 -28 45.501 -28c51.333 0 105.833 29.333 163.5 88
s109.167 138.667 154.5 240h174l-141 -349l174 121c91.333 62.667 143 101 155 115v-180l-95 -65c-180 -120.667 -308 -223.334 -384 -308.001c-71.333 -185.333 -124.333 -303 -159 -353s-71.667 -75 -111 -75c-30 0 -53.5 9.33301 -70.5 28s-25.5 44 -25.5 76
c0 48.667 23 114 69 196s111 171.667 195 269l39 92c-28 -26.667 -56.333 -46.167 -85 -58.5s-59 -18.5 -91 -18.5c-70 0 -123.5 21.833 -160.5 65.5s-55.5 107.167 -55.5 190.5c0 143.333 58 263.833 174 361.5s257.333 146.5 424 146.5c18.667 0 39.167 -1.5 61.5 -4.5
s57.833 -9.16699 106.5 -18.5zM245.999 1141l112.999 -1c2 -44 14.667 -76 38 -96s60.333 -30 111 -30c53.333 0 97.833 10.333 133.5 31s64.167 52.667 85.5 96h119c-26.667 -88 -69.667 -154.833 -129 -200.5s-133.666 -68.5 -222.999 -68.5
c-84 0 -146.333 20.167 -187 60.5s-61 101.5 -61 183.5v25z" />
    <glyph glyph-name="Idotaccent" unicode="&#x130;" horiz-adv-x="930" 
d="M10 199c24 -8 42.666 -13.4961 55.999 -16.4961s25.333 -4.5 36 -4.5c79.333 0 156.166 36 230.499 108s146.5 180.667 216.5 326c56 115.333 102.333 235.166 139 359.499s55 209.5 55 255.5c0 13.333 -2.83301 24.166 -8.5 32.499s-12.834 12.5 -21.501 12.5
c-40.667 0 -89.834 -47.5 -147.501 -142.5s-103.5 -212.833 -137.5 -353.5c-36 -29.333 -72.167 -53 -108.5 -71s-64.166 -27 -83.499 -27c-7.33301 0 -12.333 2.66699 -15 8s-4 15 -4 29c0 62.667 12.5 134 37.5 214s59.5 157.333 103.5 232
c56 96 119.833 171.167 191.5 225.5s141.834 81.5 210.501 81.5c60 0 106.667 -18.167 140 -54.5s50 -86.833 50 -151.5c0 -36 -6.33301 -85.167 -19 -147.5s-30.667 -132.833 -54 -211.5c-29.333 -95.333 -64.5 -188.833 -105.5 -280.5s-87.167 -179.834 -138.5 -264.501
c-80.667 -130.667 -165.667 -226.834 -255 -288.501s-188 -92.5 -296 -92.5c-37.333 0 -71.166 4.16699 -101.499 12.5s-59.166 21.5 -86.499 39.5zM671.999 1640c0 32 10.5 58.502 31.5 79.502s47.167 31.5 78.5 31.5c32 0 58.167 -10.5 78.5 -31.5s30.5 -47.5 30.5 -79.5
c0 -30.667 -10.333 -56.334 -31 -77.001s-46.667 -31 -78 -31c-30 0 -55.833 10.667 -77.5 32s-32.5 46.666 -32.5 75.999z" />
    <glyph glyph-name="dotlessi" unicode="&#x131;" horiz-adv-x="551" 
d="M37 262c-20 -17.333 -39.167 -33.002 -57.5 -47.002s-36.166 -26.333 -53.499 -37v174c78 65.333 142.667 121.5 194 168.5s79 75.167 83 84.5l53 116h186l-204 -451l-25 -55c0 -7.33301 0.666992 -12.833 2 -16.5s3.33301 -5.5 6 -5.5c13.333 0 50 18.333 110 55
s121 81 183 133v-180c-96 -71.333 -181 -125 -255 -161s-135.667 -54 -185 -54c-29.333 0 -52.333 6.83301 -69 20.5s-25 31.834 -25 54.501c0 16 2.66699 35.833 8 59.5s12.666 47.834 21.999 72.501z" />
    <glyph glyph-name="Lslash" unicode="&#x141;" horiz-adv-x="1475" 
d="M416 43c-34.667 -14.667 -70.167 -25.502 -106.5 -32.502s-73.833 -10.5 -112.5 -10.5c-70 0 -121.333 9.16699 -154 27.5s-49 46.833 -49 85.5c0 40 21.167 70.833 63.5 92.5s103.833 32.5 184.5 32.5c20.667 0 42.667 -1.33301 66 -4s49.666 -7 78.999 -13
c32 32.667 62.167 72.167 90.5 118.5s56.833 101.833 85.5 166.5l-287 -111l58 156l295 113c100.667 298 193.834 500.833 279.501 608.5s189.834 161.5 312.501 161.5c65.333 0 118.5 -20.333 159.5 -61s61.5 -93.667 61.5 -159c0 -26.667 -5.33301 -58.167 -16 -94.5
s-28.667 -82.5 -54 -138.5l-227 -61c42 85.333 69.167 145.833 81.5 181.5s18.5 65.834 18.5 90.501c0 20 -5 35.5 -15 46.5s-24 16.5 -42 16.5c-47.333 0 -100.333 -46.667 -159 -140s-117 -224 -175 -392l289 111l-60 -156l-288 -113
c-30.667 -80 -61.834 -150.333 -93.501 -211s-65.167 -114.667 -100.5 -162c31.333 -4.66699 62.333 -8.16699 93 -10.5s60.667 -3.5 90 -3.5c73.333 0 149.333 4.33301 228 13s158.334 21.334 239.001 38.001l-73 -204c-80.667 -12.667 -152.334 -21.667 -215.001 -27
s-121.667 -8 -177 -8c-60 0 -120.667 4.33301 -182 13s-124 22 -188 40z" />
    <glyph glyph-name="lslash" unicode="&#x142;" horiz-adv-x="551" 
d="M68 287c-25.333 -22 -49.835 -42.001 -73.502 -60.001s-46.5 -34.333 -68.5 -49v174l135.5 116.5c40.333 36.333 75.833 70.5 106.5 102.5l35 103l-226 -92l58 153l221 94l160 451c26.667 75.333 51.167 127.666 73.5 156.999s47.5 44 75.5 44
c20.667 0 36.834 -9.5 48.501 -28.5s17.5 -45.833 17.5 -80.5c0 -57.333 -12.667 -126.166 -38 -206.499s-63.333 -171.166 -114 -272.499l207 88l-57 -154l-228 -98l-30 -53l-135 -408l-2 -4c-7.33301 -21.333 -11 -37.666 -11 -48.999c0 -8 0.833008 -13.333 2.5 -16
s4.16699 -4 7.5 -4c11.333 0 45.333 18.167 102 54.5s116.334 80.166 179.001 131.499v-180c-94.667 -70.667 -177 -123.167 -247 -157.5s-128.333 -51.5 -175 -51.5c-26.667 0 -47.334 8 -62.001 24s-22 38.667 -22 68c0 17.333 1.83301 35.5 5.5 54.5
s8.83398 36.5 15.501 52.5z" />
    <glyph glyph-name="OE" unicode="&#x152;" horiz-adv-x="1864" 
d="M1212 1298c58.667 46.667 120.835 81.998 186.502 105.998s132.5 36 200.5 36c79.333 0 143 -15.167 191 -45.5s72 -70.5 72 -120.5c0 -53.333 -56.667 -147.666 -170 -282.999c-63.333 -76 -113.333 -138 -150 -186l-143 115c36.667 52.667 85.667 112.167 147 178.5
s92 112.5 92 138.5c0 11.333 -5.83301 20.666 -17.5 27.999s-27.5 11 -47.5 11c-32.667 0 -73.667 -13 -123 -39s-100 -61.667 -152 -107c-51.333 -45.333 -90.666 -94.666 -117.999 -147.999s-41 -107 -41 -161c0 -54.667 17 -106 51 -154s51 -76.333 51 -85
c0 -24.667 -41.333 -63.334 -124 -116.001l-44 -28c-64 -42 -107.333 -75.5 -130 -100.5s-34 -50.167 -34 -75.5c0 -28 12 -49.667 36 -65s58.667 -23 104 -23c98.667 0 192 25.333 280 76s163 123 225 217h209c-44 -137.333 -136.667 -252.166 -278 -344.499
s-295 -138.5 -461 -138.5c-66.667 0 -121.834 9.33301 -165.501 28s-81.5 48.667 -113.5 90c-55.333 -40 -110.333 -69.667 -165 -89s-111.334 -29 -170.001 -29c-114 0 -206.333 38.667 -277 116s-106 178.333 -106 303c0 110 27.167 232 81.5 366
s126.166 252.333 215.499 355c90 104 188.167 185 294.5 243s208.833 87 307.5 87c83.333 0 150 -13.667 200 -41s78.667 -65.666 86 -114.999zM1022 630.998c-26.667 34.667 -46.332 69.668 -58.999 105.001s-19 72 -19 110c0 63.333 18.167 130.666 54.5 201.999
s54.5 116 54.5 134c0 26.667 -11.333 48.334 -34 65.001s-53 25 -91 25c-80 0 -164.333 -27.167 -253 -81.5s-171 -129.5 -247 -225.5c-63.333 -80 -114 -172.5 -152 -277.5s-57 -203.167 -57 -294.5c0 -69.333 17.667 -123.166 53 -161.499s84.666 -57.5 147.999 -57.5
c61.333 0 118.833 17.5 172.5 52.5s106.167 89.167 157.5 162.5c40.667 57.333 82.167 104.666 124.5 141.999s91.5 70.666 147.5 99.999z" />
    <glyph glyph-name="oe" unicode="&#x153;" horiz-adv-x="1174" 
d="M580 375c88 12.667 159.833 35.333 215.5 68s83.5 66.667 83.5 102c0 14.667 -5.16699 26.5 -15.5 35.5s-23.833 13.5 -40.5 13.5c-40 0 -84.5 -21 -133.5 -63s-85.5 -94 -109.5 -156zM1135 200.999c-105.333 -78.667 -195.165 -134.168 -269.498 -166.501
s-147.166 -48.5 -218.499 -48.5c-50 0 -93.5 8.66699 -130.5 26s-66.5 42.666 -88.5 75.999c-32 -32 -70.167 -57 -114.5 -75s-89.5 -27 -135.5 -27c-76 0 -138 25.5 -186 76.5s-72 117.5 -72 199.5c0 125.333 44.667 235.5 134 330.5s192 142.5 308 142.5
c47.333 0 88.166 -9.16699 122.499 -27.5s65.5 -47.166 93.5 -86.499c49.333 38.667 98.166 67.334 146.499 86.001s99.166 28 152.499 28c60.667 0 108.167 -14.167 142.5 -42.5s51.5 -67.5 51.5 -117.5c0 -80 -44.333 -151.667 -133 -215s-206.667 -106.333 -354 -129
c2 -23.333 12.833 -42 32.5 -56s45.5 -21 77.5 -21c54.667 0 119.5 19.333 194.5 58s157.167 95 246.5 169v-180zM389.001 251.998c0 47.333 4.99902 90.333 14.999 129s25 74 45 106c-12.667 25.333 -27.667 43.666 -45 54.999s-38.666 17 -63.999 17
c-60.667 0 -113.667 -28.5 -159 -85.5s-68 -123.5 -68 -199.5c0 -38 10 -68.667 30 -92s46 -35 78 -35c28.667 0 58.167 9.33301 88.5 28s56.833 44.334 79.5 77.001z" />
    <glyph glyph-name="Scedilla" unicode="&#x15e;" horiz-adv-x="1360" 
d="M629 319c-28 4.66699 -54.835 7.99902 -80.502 9.99902s-50.167 3 -73.5 3c-60 0 -109.167 -7.66699 -147.5 -23s-57.5 -33.666 -57.5 -54.999c0 -26 24.5 -46.833 73.5 -62.5s115.5 -23.5 199.5 -23.5c127.333 0 230.5 18.5 309.5 55.5s118.5 84.833 118.5 143.5
c0 56.667 -74.667 122.667 -224 198l-53 27c-83.333 43.333 -145.833 92.333 -187.5 147s-62.5 115.667 -62.5 183c0 66.667 22.667 134.834 68 204.501s106.666 130.5 183.999 182.5c63.333 42.667 131.166 76.167 203.499 100.5s139.833 36.5 202.5 36.5
c78.667 0 141.667 -18.333 189 -55s71 -85.334 71 -146.001c0 -92.667 -50.5 -176.5 -151.5 -251.5s-227.5 -118.833 -379.5 -131.5l37 182c92.667 24.667 166.834 53.5 222.501 86.5s83.5 63.833 83.5 92.5c0 11.333 -6.83301 21.333 -20.5 30s-30.167 13 -49.5 13
c-31.333 0 -70.666 -7.33301 -117.999 -22s-92.666 -34 -135.999 -58c-67.333 -38 -118.333 -77.667 -153 -119s-52 -83.666 -52 -126.999c0 -74.667 75.667 -147.667 227 -219l97 -47c65.333 -34 115.333 -76 150 -126s52 -105.667 52 -167
c0 -121.333 -58.167 -217.5 -174.5 -288.5s-275.166 -106.5 -476.499 -106.5c-144 0 -256.5 23.5 -337.5 70.5s-121.5 111.5 -121.5 193.5c0 77.333 40.333 140.666 121 189.999s186 74 316 74c24 0 50 -1.66699 78 -5s58 -8.33301 90 -15zM75.998 -387.001l41 102
c42.667 -14 81.834 -24.667 117.501 -32s67.5 -11 95.5 -11c37.333 0 65.333 6.66699 84 20s28 33.333 28 60c0 25.333 -12.5 43.333 -37.5 54s-68.5 16 -130.5 16h-22l65 178h86l-32 -86h14c68.667 0 121 -13.167 157 -39.5s54 -64.5 54 -114.5
c0 -60.667 -20.833 -108.167 -62.5 -142.5s-100.167 -51.5 -175.5 -51.5c-36.667 0 -77.834 3.83301 -123.501 11.5s-98.5 19.5 -158.5 35.5z" />
    <glyph glyph-name="scedilla" unicode="&#x15f;" horiz-adv-x="705" 
d="M-74 352c76 60 144.162 122.165 204.495 186.498s114.5 132.5 162.5 204.5c4.66699 74.667 18.334 131.334 41.001 170.001s53.334 58 92.001 58c27.333 0 48.833 -8.66699 64.5 -26s23.5 -41.666 23.5 -72.999c0 -23.333 -5 -45.833 -15 -67.5s-26 -43.834 -48 -66.501
c3.33301 -53.333 5.83301 -97 7.5 -131s2.5 -63.667 2.5 -89c0 -74 -5.33301 -136.5 -16 -187.5s-28 -96.833 -52 -137.5c44.667 22.667 89.167 49.334 133.5 80.001s90.833 66.667 139.5 108v-180c-85.333 -62 -162.666 -107.667 -231.999 -137s-134 -44 -194 -44h-13
c-19.333 -10.667 -38.666 -18.334 -57.999 -23.001s-41.666 -7 -66.999 -7c-40.667 0 -72 10.167 -94 30.5s-33 49.833 -33 88.5c0 18.667 3.16699 30.834 9.5 36.501s19.833 8.5 40.5 8.5c12.667 0 31.667 -2.5 57 -7.5s44.333 -7.5 57 -7.5c46.667 0 82.667 30.667 108 92
s38 149 38 263v24c-38 -58.667 -85.5 -115 -142.5 -169s-129.167 -111 -216.5 -171v174zM-84.0049 -387.002l41 102c42.667 -14 81.834 -24.667 117.501 -32s67.5 -11 95.5 -11c37.333 0 65.333 6.66699 84 20s28 33.333 28 60c0 25.333 -12.5 43.333 -37.5 54
s-68.5 16 -130.5 16h-22l65 178h86l-32 -86h14c68.667 0 121 -13.167 157 -39.5s54 -64.5 54 -114.5c0 -60.667 -20.833 -108.167 -62.5 -142.5s-100.167 -51.5 -175.5 -51.5c-36.667 0 -77.834 3.83301 -123.501 11.5s-98.5 19.5 -158.5 35.5z" />
    <glyph glyph-name="Scaron" unicode="&#x160;" horiz-adv-x="1360" 
d="M629 319c-28 4.66699 -54.835 7.99902 -80.502 9.99902s-50.167 3 -73.5 3c-60 0 -109.167 -7.66699 -147.5 -23s-57.5 -33.666 -57.5 -54.999c0 -26 24.5 -46.833 73.5 -62.5s115.5 -23.5 199.5 -23.5c127.333 0 230.5 18.5 309.5 55.5s118.5 84.833 118.5 143.5
c0 56.667 -74.667 122.667 -224 198l-53 27c-83.333 43.333 -145.833 92.333 -187.5 147s-62.5 115.667 -62.5 183c0 66.667 22.667 134.834 68 204.501s106.666 130.5 183.999 182.5c63.333 42.667 131.166 76.167 203.499 100.5s139.833 36.5 202.5 36.5
c78.667 0 141.667 -18.333 189 -55s71 -85.334 71 -146.001c0 -92.667 -50.5 -176.5 -151.5 -251.5s-227.5 -118.833 -379.5 -131.5l37 182c92.667 24.667 166.834 53.5 222.501 86.5s83.5 63.833 83.5 92.5c0 11.333 -6.83301 21.333 -20.5 30s-30.167 13 -49.5 13
c-31.333 0 -70.666 -7.33301 -117.999 -22s-92.666 -34 -135.999 -58c-67.333 -38 -118.333 -77.667 -153 -119s-52 -83.666 -52 -126.999c0 -74.667 75.667 -147.667 227 -219l97 -47c65.333 -34 115.333 -76 150 -126s52 -105.667 52 -167
c0 -121.333 -58.167 -217.5 -174.5 -288.5s-275.166 -106.5 -476.499 -106.5c-144 0 -256.5 23.5 -337.5 70.5s-121.5 111.5 -121.5 193.5c0 77.333 40.333 140.666 121 189.999s186 74 316 74c24 0 50 -1.66699 78 -5s58 -8.33301 90 -15zM724.998 1784h109l141 -154
l219 154h127l-252 -273h-203z" />
    <glyph glyph-name="scaron" unicode="&#x161;" horiz-adv-x="705" 
d="M-74 352c76 60 144.162 122.165 204.495 186.498s114.5 132.5 162.5 204.5c4.66699 74.667 18.334 131.334 41.001 170.001s53.334 58 92.001 58c27.333 0 48.833 -8.66699 64.5 -26s23.5 -41.666 23.5 -72.999c0 -23.333 -5 -45.833 -15 -67.5s-26 -43.834 -48 -66.501
c3.33301 -53.333 5.83301 -97 7.5 -131s2.5 -63.667 2.5 -89c0 -74 -5.33301 -136.5 -16 -187.5s-28 -96.833 -52 -137.5c44.667 22.667 89.167 49.334 133.5 80.001s90.833 66.667 139.5 108v-180c-85.333 -62 -162.666 -107.667 -231.999 -137s-134 -44 -194 -44h-13
c-19.333 -10.667 -38.666 -18.334 -57.999 -23.001s-41.666 -7 -66.999 -7c-40.667 0 -72 10.167 -94 30.5s-33 49.833 -33 88.5c0 18.667 3.16699 30.834 9.5 36.501s19.833 8.5 40.5 8.5c12.667 0 31.667 -2.5 57 -7.5s44.333 -7.5 57 -7.5c46.667 0 82.667 30.667 108 92
s38 149 38 263v24c-38 -58.667 -85.5 -115 -142.5 -169s-129.167 -111 -216.5 -171v174zM171.995 1143h109l141 -154l219 154h127l-252 -273h-203z" />
    <glyph glyph-name="Ydieresis" unicode="&#x178;" horiz-adv-x="1389" 
d="M985 444c-150.667 -168.667 -273.666 -286.495 -368.999 -353.495s-184.666 -100.5 -267.999 -100.5c-41.333 0 -73.5 10.333 -96.5 31s-34.5 50 -34.5 88c0 19.333 3.33301 41.5 10 66.5s16.334 52.5 29.001 82.5l344 782c17.333 40 29.5 71.5 36.5 94.5
s10.5 41.5 10.5 55.5c0 20.667 -4.33301 35.334 -13 44.001s-23.334 13 -44.001 13c-60.667 0 -120.667 -44.333 -180 -133s-103 -204 -131 -346l-156 -94c-8.66699 -4.66699 -15.667 -8.16699 -21 -10.5s-9.33301 -3.83301 -12 -4.5c-4 0 -7.33301 3.16699 -10 9.5
s-4 14.833 -4 25.5c0 41.333 10.833 101.833 32.5 181.5s48.834 153.167 81.501 220.5c53.333 108.667 118.833 193.167 196.5 253.5s159.167 90.5 244.5 90.5c69.333 0 124.5 -17.667 165.5 -53s61.5 -83.333 61.5 -144c0 -30 -8.33301 -70.833 -25 -122.5
s-42.334 -115.834 -77.001 -192.501l-308 -681c-4.66699 -10 -8.5 -19.833 -11.5 -29.5s-4.5 -15.834 -4.5 -18.501c0.666992 -3.33301 1.66699 -5.5 3 -6.5s3.66602 -1.83301 6.99902 -2.5c22.667 0 51 10.5 85 31.5s82.333 57.833 145 110.5
c96 81.333 183.667 165.666 263 252.999s145.333 171.666 198 252.999c53.333 83.333 100 170 140 260c6 13.333 9.66699 21.333 11 24c6 11.333 15.167 19.666 27.5 24.999s29.166 8 50.499 8h49c16.667 0 30.334 -3.83301 41.001 -11.5s16 -17.5 16 -29.5
c0 -10.667 -4.83301 -30 -14.5 -58s-23.167 -61.333 -40.5 -100l-381 -862c-87.333 -198.667 -166.833 -351.334 -238.5 -458.001s-130.834 -160 -177.501 -160c-24.667 0 -45.5 5.66699 -62.5 17s-25.5 26 -25.5 44c0 14 26.5 64.333 79.5 151s97.5 168 133.5 244z
M1061 1640c0 31.333 10.5 57.6689 31.5 79.002s47.167 32 78.5 32s57.333 -10.5 78 -31.5s31 -47.5 31 -79.5c0 -30.667 -10.5 -56.334 -31.5 -77.001s-46.833 -31 -77.5 -31s-56.667 10.667 -78 32s-32 46.666 -32 75.999zM737.001 1640.01c0 32 10.333 58.5 31 79.5
s46.667 31.5 78 31.5s57.5 -10.5 78.5 -31.5s31.5 -47.5 31.5 -79.5c0 -30 -10.667 -55.5 -32 -76.5s-47.333 -31.5 -78 -31.5s-56.5 10.5 -77.5 31.5s-31.5 46.5 -31.5 76.5z" />
    </font>
</defs>
</svg>
